<?xml version="1.0" encoding="UTF-8" standalone="no"?>
<!DOCTYPE svg PUBLIC "-//W3C//DTD SVG 1.1//EN"
 "http://www.w3.org/Graphics/SVG/1.1/DTD/svg11.dtd">
<!-- Generated by graphviz version 14.1.4 (20260321.0153)
 -->
<!-- Title: PDS_v0_3 Pages: 1 -->
<svg width="2665pt" height="1448pt"
 viewBox="0.00 0.00 2665.00 1448.00" xmlns="http://www.w3.org/2000/svg" xmlns:xlink="http://www.w3.org/1999/xlink">
<g id="graph0" class="graph" transform="scale(1 1) rotate(0) translate(20.16 1427.36)">
<title>PDS_v0_3</title>
<polygon fill="white" stroke="none" points="-20.16,20.16 -20.16,-1427.36 2645.12,-1427.36 2645.12,20.16 -20.16,20.16"/>
<g id="clust1" class="cluster">
<title>cluster_charger</title>
<path fill="#bfeaf4" stroke="#5b65c9" stroke-width="2" d="M219.96,-1031.24C219.96,-1031.24 351.96,-1031.24 351.96,-1031.24 357.96,-1031.24 363.96,-1037.24 363.96,-1043.24 363.96,-1043.24 363.96,-1160.71 363.96,-1160.71 363.96,-1166.71 357.96,-1172.71 351.96,-1172.71 351.96,-1172.71 219.96,-1172.71 219.96,-1172.71 213.96,-1172.71 207.96,-1166.71 207.96,-1160.71 207.96,-1160.71 207.96,-1043.24 207.96,-1043.24 207.96,-1037.24 213.96,-1031.24 219.96,-1031.24"/>
<text xml:space="preserve" text-anchor="middle" x="285.96" y="-1155.41" font-family="Helvetica,sans-Serif" font-size="14.00">Charger</text>
</g>
<g id="clust2" class="cluster">
<title>cluster_user</title>
<path fill="#bfeaf4" stroke="#5b65c9" stroke-width="2" d="M209.96,-757.05C209.96,-757.05 357.96,-757.05 357.96,-757.05 363.96,-757.05 369.96,-763.05 369.96,-769.05 369.96,-769.05 369.96,-939.86 369.96,-939.86 369.96,-945.86 363.96,-951.86 357.96,-951.86 357.96,-951.86 209.96,-951.86 209.96,-951.86 203.96,-951.86 197.96,-945.86 197.96,-939.86 197.96,-939.86 197.96,-769.05 197.96,-769.05 197.96,-763.05 203.96,-757.05 209.96,-757.05"/>
<text xml:space="preserve" text-anchor="middle" x="283.96" y="-934.56" font-family="Helvetica,sans-Serif" font-size="14.00">User</text>
</g>
<g id="clust3" class="cluster">
<title>cluster_pds</title>
<path fill="#d9d9d9" stroke="#888888" stroke-width="2" d="M389.96,-8C389.96,-8 2604.96,-8 2604.96,-8 2610.96,-8 2616.96,-14 2616.96,-20 2616.96,-20 2616.96,-1351.86 2616.96,-1351.86 2616.96,-1357.86 2610.96,-1363.86 2604.96,-1363.86 2604.96,-1363.86 389.96,-1363.86 389.96,-1363.86 383.96,-1363.86 377.96,-1357.86 377.96,-1351.86 377.96,-1351.86 377.96,-20 377.96,-20 377.96,-14 383.96,-8 389.96,-8"/>
<text xml:space="preserve" text-anchor="middle" x="1497.46" y="-1346.56" font-family="Helvetica,sans-Serif" font-size="14.00">PDS v0.2&#45;0.3 Subsystem</text>
</g>
<g id="clust4" class="cluster">
<title>cluster_battpack</title>
<polygon fill="#fff8bf" stroke="#d1b24a" stroke-width="2" points="1610.96,-1218.83 1610.96,-1332.86 1993.96,-1332.86 1993.96,-1218.83 1610.96,-1218.83"/>
<text xml:space="preserve" text-anchor="middle" x="1802.46" y="-1315.56" font-family="Helvetica,sans-Serif" font-size="14.00">1S1P Li&#45;Ion</text>
</g>
<g id="clust5" class="cluster">
<title>cluster_battery</title>
<path fill="#a9c7e6" stroke="#5b65c9" stroke-width="2" d="M1653.96,-1226.83C1653.96,-1226.83 1973.96,-1226.83 1973.96,-1226.83 1979.96,-1226.83 1985.96,-1232.83 1985.96,-1238.83 1985.96,-1238.83 1985.96,-1289.86 1985.96,-1289.86 1985.96,-1295.86 1979.96,-1301.86 1973.96,-1301.86 1973.96,-1301.86 1653.96,-1301.86 1653.96,-1301.86 1647.96,-1301.86 1641.96,-1295.86 1641.96,-1289.86 1641.96,-1289.86 1641.96,-1238.83 1641.96,-1238.83 1641.96,-1232.83 1647.96,-1226.83 1653.96,-1226.83"/>
<text xml:space="preserve" text-anchor="middle" x="1813.96" y="-1284.56" font-family="Helvetica,sans-Serif" font-size="14.00">Battery</text>
</g>
<g id="clust6" class="cluster">
<title>cluster_board</title>
<polygon fill="#fff8bf" stroke="#d1b24a" stroke-width="2" points="385.96,-264.86 385.96,-1023.24 2048.96,-1023.24 2048.96,-264.86 385.96,-264.86"/>
<text xml:space="preserve" text-anchor="middle" x="1217.46" y="-1005.94" font-family="Helvetica,sans-Serif" font-size="14.00">PDS Circuitboard</text>
</g>
<g id="clust7" class="cluster">
<title>cluster_protection</title>
<polygon fill="#fff8bf" stroke="#d1b24a" stroke-width="2" points="393.96,-646.57 393.96,-982.86 1413.96,-982.86 1413.96,-646.57 393.96,-646.57"/>
<text xml:space="preserve" text-anchor="middle" x="903.96" y="-965.56" font-family="Helvetica,sans-Serif" font-size="14.00">Protection Circuit</text>
</g>
<g id="clust8" class="cluster">
<title>cluster_batt_charger</title>
<path fill="#a9c7e6" stroke="#5b65c9" stroke-width="2" d="M1158.96,-876.83C1158.96,-876.83 1370.96,-876.83 1370.96,-876.83 1376.96,-876.83 1382.96,-882.83 1382.96,-888.83 1382.96,-888.83 1382.96,-939.86 1382.96,-939.86 1382.96,-945.86 1376.96,-951.86 1370.96,-951.86 1370.96,-951.86 1158.96,-951.86 1158.96,-951.86 1152.96,-951.86 1146.96,-945.86 1146.96,-939.86 1146.96,-939.86 1146.96,-888.83 1146.96,-888.83 1146.96,-882.83 1152.96,-876.83 1158.96,-876.83"/>
<text xml:space="preserve" text-anchor="middle" x="1264.96" y="-934.56" font-family="Helvetica,sans-Serif" font-size="14.00">Battery Charger</text>
</g>
<g id="clust9" class="cluster">
<title>cluster_power_protection</title>
<path fill="#a9c7e6" stroke="#5b65c9" stroke-width="2" d="M421.96,-654.57C421.96,-654.57 1126.96,-654.57 1126.96,-654.57 1132.96,-654.57 1138.96,-660.57 1138.96,-666.57 1138.96,-666.57 1138.96,-922.57 1138.96,-922.57 1138.96,-928.57 1132.96,-934.57 1126.96,-934.57 1126.96,-934.57 421.96,-934.57 421.96,-934.57 415.96,-934.57 409.96,-928.57 409.96,-922.57 409.96,-922.57 409.96,-666.57 409.96,-666.57 409.96,-660.57 415.96,-654.57 421.96,-654.57"/>
<text xml:space="preserve" text-anchor="middle" x="774.46" y="-917.27" font-family="Helvetica,sans-Serif" font-size="14.00">Power Protection</text>
</g>
<g id="clust10" class="cluster">
<title>cluster_regulator_block</title>
<polygon fill="#fff8bf" stroke="#d1b24a" stroke-width="2" points="1820.96,-859.46 1820.96,-992.24 2025.96,-992.24 2025.96,-859.46 1820.96,-859.46"/>
<text xml:space="preserve" text-anchor="middle" x="1923.46" y="-974.94" font-family="Helvetica,sans-Serif" font-size="14.00">Regulator</text>
</g>
<g id="clust11" class="cluster">
<title>cluster_regulator</title>
<path fill="#a9c7e6" stroke="#5b65c9" stroke-width="2" d="M1863.96,-867.46C1863.96,-867.46 1982.96,-867.46 1982.96,-867.46 1988.96,-867.46 1994.96,-873.46 1994.96,-879.46 1994.96,-879.46 1994.96,-949.24 1994.96,-949.24 1994.96,-955.24 1988.96,-961.24 1982.96,-961.24 1982.96,-961.24 1863.96,-961.24 1863.96,-961.24 1857.96,-961.24 1851.96,-955.24 1851.96,-949.24 1851.96,-949.24 1851.96,-879.46 1851.96,-879.46 1851.96,-873.46 1857.96,-867.46 1863.96,-867.46"/>
<text xml:space="preserve" text-anchor="middle" x="1923.46" y="-943.94" font-family="Helvetica,sans-Serif" font-size="14.00">Regulator</text>
</g>
<g id="clust12" class="cluster">
<title>cluster_ina219</title>
<polygon fill="#fff8bf" stroke="#d1b24a" stroke-width="2" points="1421.96,-272.86 1421.96,-743.3 1910.96,-743.3 1910.96,-272.86 1421.96,-272.86"/>
<text xml:space="preserve" text-anchor="middle" x="1666.46" y="-726" font-family="Helvetica,sans-Serif" font-size="14.00">INA219</text>
</g>
<g id="clust13" class="cluster">
<title>cluster_batt_monitoring</title>
<path fill="#a9c7e6" stroke="#5b65c9" stroke-width="2" d="M1441.96,-280.86C1441.96,-280.86 1851.96,-280.86 1851.96,-280.86 1857.96,-280.86 1863.96,-286.86 1863.96,-292.86 1863.96,-292.86 1863.96,-700.3 1863.96,-700.3 1863.96,-706.3 1857.96,-712.3 1851.96,-712.3 1851.96,-712.3 1441.96,-712.3 1441.96,-712.3 1435.96,-712.3 1429.96,-706.3 1429.96,-700.3 1429.96,-700.3 1429.96,-292.86 1429.96,-292.86 1429.96,-286.86 1435.96,-280.86 1441.96,-280.86"/>
<text xml:space="preserve" text-anchor="middle" x="1646.96" y="-695" font-family="Helvetica,sans-Serif" font-size="14.00">Battery monitoring</text>
</g>
<g id="clust14" class="cluster">
<title>cluster_xiao</title>
<polygon fill="#fff8bf" stroke="#d1b24a" stroke-width="2" points="2056.96,-16 2056.96,-627.9 2592.96,-627.9 2592.96,-16 2056.96,-16"/>
<text xml:space="preserve" text-anchor="middle" x="2324.96" y="-610.6" font-family="Helvetica,sans-Serif" font-size="14.00">XIAO ESP32</text>
</g>
<g id="clust15" class="cluster">
<title>cluster_loop</title>
<path fill="#a9c7e6" stroke="#5b65c9" stroke-width="2" d="M2076.96,-24C2076.96,-24 2356.96,-24 2356.96,-24 2362.96,-24 2368.96,-30 2368.96,-36 2368.96,-36 2368.96,-566.15 2368.96,-566.15 2368.96,-572.15 2362.96,-578.15 2356.96,-578.15 2356.96,-578.15 2076.96,-578.15 2076.96,-578.15 2070.96,-578.15 2064.96,-572.15 2064.96,-566.15 2064.96,-566.15 2064.96,-36 2064.96,-36 2064.96,-30 2070.96,-24 2076.96,-24"/>
<text xml:space="preserve" text-anchor="middle" x="2216.96" y="-560.85" font-family="Helvetica,sans-Serif" font-size="14.00">Loop</text>
</g>
<g id="clust16" class="cluster">
<title>cluster_setup</title>
<path fill="#a9c7e6" stroke="#5b65c9" stroke-width="2" d="M2395.96,-125.03C2395.96,-125.03 2572.96,-125.03 2572.96,-125.03 2578.96,-125.03 2584.96,-131.03 2584.96,-137.03 2584.96,-137.03 2584.96,-584.9 2584.96,-584.9 2584.96,-590.9 2578.96,-596.9 2572.96,-596.9 2572.96,-596.9 2395.96,-596.9 2395.96,-596.9 2389.96,-596.9 2383.96,-590.9 2383.96,-584.9 2383.96,-584.9 2383.96,-137.03 2383.96,-137.03 2383.96,-131.03 2389.96,-125.03 2395.96,-125.03"/>
<text xml:space="preserve" text-anchor="middle" x="2484.46" y="-579.6" font-family="Helvetica,sans-Serif" font-size="14.00">Setup</text>
</g>
<!-- note_energy -->
<g id="node1" class="node">
<title>note_energy</title>
<polygon fill="#fff5b0" stroke="#d1b24a" points="369.67,-1298.99 192.25,-1298.99 192.25,-1206.71 369.67,-1206.71 369.67,-1298.99"/>
<text xml:space="preserve" text-anchor="middle" x="280.96" y="-1273.25" font-family="Helvetica,sans-Serif" font-size="18.00">Enough for 6 hours</text>
<text xml:space="preserve" text-anchor="middle" x="280.96" y="-1254.5" font-family="Helvetica,sans-Serif" font-size="18.00">of continuous</text>
<text xml:space="preserve" text-anchor="middle" x="280.96" y="-1235.75" font-family="Helvetica,sans-Serif" font-size="18.00">operation in On</text>
<text xml:space="preserve" text-anchor="middle" x="280.96" y="-1217" font-family="Helvetica,sans-Serif" font-size="18.00">mode</text>
</g>
<!-- charger_usb -->
<!-- note_energy&#45;&gt;charger_usb -->
<!-- batt_store -->
<g id="node9" class="node">
<title>batt_store</title>
<polygon fill="#bdfb9b" stroke="#166534" points="1807.92,-1270.86 1680,-1270.86 1680,-1234.83 1807.92,-1234.83 1807.92,-1270.86"/>
<text xml:space="preserve" text-anchor="middle" x="1743.96" y="-1245.12" font-family="Helvetica,sans-Serif" font-size="18.00">Store energy</text>
</g>
<!-- note_energy&#45;&gt;batt_store -->
<!-- note_energy&#45;&gt;batt_store -->
<g id="edge111" class="edge">
<title>note_energy&#45;&gt;batt_store</title>
<path fill="none" stroke="#333333" stroke-width="2.2" stroke-dasharray="5,2" d="M370.12,-1263.1C670.07,-1297.57 1623.96,-1407.2 1623.96,-1407.2 1623.96,-1407.2 1644.96,-1407.2 1644.96,-1407.2 1644.96,-1407.2 1697.71,-1324.96 1726.2,-1280.54"/>
<polygon fill="#333333" stroke="#333333" stroke-width="2.2" points="1728.45,-1282.21 1730.42,-1273.96 1723.74,-1279.19 1728.45,-1282.21"/>
</g>
<!-- charger_power -->
<g id="node3" class="node">
<title>charger_power</title>
<polygon fill="#bdfb9b" stroke="#166534" points="355.55,-1075.27 216.38,-1075.27 216.38,-1039.24 355.55,-1039.24 355.55,-1075.27"/>
<text xml:space="preserve" text-anchor="middle" x="285.96" y="-1049.53" font-family="Helvetica,sans-Serif" font-size="18.00">Provide power</text>
</g>
<!-- charger_usb&#45;&gt;charger_power -->
<!-- protection_usb_anchor -->
<!-- charger_usb&#45;&gt;protection_usb_anchor -->
<!-- charger_usb&#45;&gt;protection_usb_anchor -->
<g id="edge104" class="edge">
<title>charger_usb:e&#45;&gt;protection_usb_anchor:w</title>
<path fill="none" stroke="#e11d28" stroke-width="2.2" d="M363.96,-1130.26C375.48,-1111.63 397.96,-1075.27 397.96,-1075.27 397.96,-1075.27 398.68,-1027.93 399.37,-982.86"/>
<text xml:space="preserve" text-anchor="middle" x="353.92" y="-1062.89" font-family="Helvetica,sans-Serif" font-size="15.00" fill="#e11d28">USB&#45;C Cable</text>
</g>
<!-- user_on -->
<g id="node4" class="node">
<title>user_on</title>
<polygon fill="#bdfb9b" stroke="#166534" points="362.17,-920.86 205.75,-920.86 205.75,-884.83 362.17,-884.83 362.17,-920.86"/>
<text xml:space="preserve" text-anchor="middle" x="283.96" y="-895.12" font-family="Helvetica,sans-Serif" font-size="18.00">Switch power on</text>
</g>
<!-- charger_power&#45;&gt;user_on -->
<!-- note_prob -->
<g id="node6" class="node">
<title>note_prob</title>
<polygon fill="#fff5b0" stroke="#d1b24a" points="175.92,-801.08 0,-801.08 0,-765.05 175.92,-765.05 175.92,-801.08"/>
<text xml:space="preserve" text-anchor="middle" x="87.96" y="-775.34" font-family="Helvetica,sans-Serif" font-size="18.00">{c} Probability&lt; 1%</text>
</g>
<!-- charger_power&#45;&gt;note_prob -->
<!-- charger_reg -->
<g id="node16" class="node">
<title>charger_reg</title>
<polygon fill="#bdfb9b" stroke="#166534" points="1344.3,-920.86 1185.62,-920.86 1185.62,-884.83 1344.3,-884.83 1344.3,-920.86"/>
<text xml:space="preserve" text-anchor="middle" x="1264.96" y="-895.12" font-family="Helvetica,sans-Serif" font-size="18.00">Regulate voltage</text>
</g>
<!-- charger_power&#45;&gt;charger_reg -->
<!-- user_off -->
<g id="node5" class="node">
<title>user_off</title>
<polygon fill="#bdfb9b" stroke="#166534" points="361.8,-801.08 206.13,-801.08 206.13,-765.05 361.8,-765.05 361.8,-801.08"/>
<text xml:space="preserve" text-anchor="middle" x="283.96" y="-775.34" font-family="Helvetica,sans-Serif" font-size="18.00">Switch power off</text>
</g>
<!-- user_on&#45;&gt;user_off -->
<!-- restore_power -->
<g id="node17" class="node">
<title>restore_power</title>
<polygon fill="#bdfb9b" stroke="#166534" points="1069.67,-801.08 928.25,-801.08 928.25,-765.05 1069.67,-765.05 1069.67,-801.08"/>
<text xml:space="preserve" text-anchor="middle" x="998.96" y="-775.34" font-family="Helvetica,sans-Serif" font-size="18.00">Restore power</text>
</g>
<!-- user_on&#45;&gt;restore_power -->
<!-- user_on&#45;&gt;restore_power -->
<g id="edge86" class="edge">
<title>user_on:e&#45;&gt;restore_power:w</title>
<path fill="none" stroke="#1f7a4d" stroke-width="2.2" d="M363.17,-902.85C363.17,-902.85 386.96,-859.46 386.96,-859.46 386.96,-859.46 913.96,-810.46 913.96,-810.46 913.96,-810.46 918.65,-800.8 922.45,-792.96"/>
<polygon fill="#1f7a4d" stroke="#1f7a4d" stroke-width="2.2" points="924.82,-794.49 925.8,-786.07 919.78,-792.04 924.82,-794.49"/>
</g>
<!-- cut_off_power -->
<g id="node23" class="node">
<title>cut_off_power</title>
<polygon fill="#bdfb9b" stroke="#166534" points="751.42,-801.08 620.5,-801.08 620.5,-765.05 751.42,-765.05 751.42,-801.08"/>
<text xml:space="preserve" text-anchor="middle" x="685.96" y="-775.34" font-family="Helvetica,sans-Serif" font-size="18.00">Cut off power</text>
</g>
<!-- user_off&#45;&gt;cut_off_power -->
<g id="edge87" class="edge">
<title>user_off:e&#45;&gt;cut_off_power:w</title>
<path fill="none" stroke="#1f7a4d" stroke-width="2.2" d="M362.8,-783.07C362.8,-783.07 417.96,-834.96 417.96,-834.96 417.96,-834.96 589.96,-834.96 589.96,-834.96 589.96,-834.96 604.96,-810.46 604.96,-810.46 604.96,-810.46 610.09,-800.8 614.25,-792.96"/>
<polygon fill="#1f7a4d" stroke="#1f7a4d" stroke-width="2.2" points="616.66,-794.39 617.94,-786.01 611.71,-791.76 616.66,-794.39"/>
</g>
<!-- note_prob&#45;&gt;user_on -->
<!-- detect_oc -->
<g id="node18" class="node">
<title>detect_oc</title>
<polygon fill="#bdfb9b" stroke="#166534" points="590.42,-801.08 417.5,-801.08 417.5,-765.05 590.42,-765.05 590.42,-801.08"/>
<text xml:space="preserve" text-anchor="middle" x="503.96" y="-775.34" font-family="Helvetica,sans-Serif" font-size="18.00">Detect overcurrent</text>
</g>
<!-- note_prob&#45;&gt;detect_oc -->
<!-- note_prob&#45;&gt;detect_oc -->
<g id="edge112" class="edge">
<title>note_prob&#45;&gt;detect_oc</title>
<path fill="none" stroke="#333333" stroke-width="2.2" stroke-dasharray="5,2" d="M125.87,-801.58C162.01,-819.23 210.96,-843.13 210.96,-843.13 210.96,-843.13 356.96,-843.13 356.96,-843.13 356.96,-843.13 406.68,-822.81 448.29,-805.81"/>
<polygon fill="#333333" stroke="#333333" stroke-width="2.2" points="449.23,-808.46 455.57,-802.84 447.11,-803.27 449.23,-808.46"/>
</g>
<!-- detect_ov -->
<g id="node19" class="node">
<title>detect_ov</title>
<polygon fill="#bdfb9b" stroke="#166534" points="898.67,-810.46 781.25,-810.46 781.25,-755.68 898.67,-755.68 898.67,-810.46"/>
<text xml:space="preserve" text-anchor="middle" x="839.96" y="-784.72" font-family="Helvetica,sans-Serif" font-size="18.00">Detect</text>
<text xml:space="preserve" text-anchor="middle" x="839.96" y="-765.97" font-family="Helvetica,sans-Serif" font-size="18.00">overvoltage</text>
</g>
<!-- note_prob&#45;&gt;detect_ov -->
<g id="edge113" class="edge">
<title>note_prob&#45;&gt;detect_ov</title>
<path fill="none" stroke="#333333" stroke-width="2.2" stroke-dasharray="5,2" d="M129.89,-801.51C163.81,-816.43 205.96,-834.96 205.96,-834.96 205.96,-834.96 750.96,-834.96 750.96,-834.96 750.96,-834.96 765.35,-826.57 782.56,-816.54"/>
<polygon fill="#333333" stroke="#333333" stroke-width="2.2" points="783.96,-818.96 789.46,-812.52 781.14,-814.13 783.96,-818.96"/>
</g>
<!-- battpack_jst -->
<!-- battery_jst -->
<!-- battpack_jst&#45;&gt;battery_jst -->
<!-- protection_batt_anchor -->
<!-- battpack_jst&#45;&gt;protection_batt_anchor -->
<!-- battpack_jst&#45;&gt;protection_batt_anchor -->
<g id="edge105" class="edge">
<title>battpack_jst:s&#45;&gt;protection_batt_anchor:n</title>
<path fill="none" stroke="#e11d28" stroke-width="2.2" d="M1610.96,-1233.4C1596.84,-1202.08 1568.96,-1140.27 1568.96,-1140.27 1568.96,-1140.27 1504.96,-1031.24 1504.96,-1031.24 1504.96,-1031.24 1437.51,-944.93 1413.96,-914.8"/>
<text xml:space="preserve" text-anchor="middle" x="1480.04" y="-1067.58" font-family="Helvetica,sans-Serif" font-size="15.00" fill="#e11d28">Battery Cable</text>
</g>
<!-- battery_jst&#45;&gt;batt_store -->
<!-- batt_provide -->
<g id="node10" class="node">
<title>batt_provide</title>
<polygon fill="#bdfb9b" stroke="#166534" points="1977.55,-1270.86 1838.38,-1270.86 1838.38,-1234.83 1977.55,-1234.83 1977.55,-1270.86"/>
<text xml:space="preserve" text-anchor="middle" x="1907.96" y="-1245.12" font-family="Helvetica,sans-Serif" font-size="18.00">Provide power</text>
</g>
<!-- batt_store&#45;&gt;batt_provide -->
<!-- batt_store&#45;&gt;charger_reg -->
<!-- batt_provide&#45;&gt;charger_reg -->
<g id="edge91" class="edge">
<title>batt_provide:s&#45;&gt;charger_reg:n</title>
<path fill="none" stroke="#1f7a4d" stroke-width="2.2" d="M1907.96,-1233.83C1907.96,-1233.83 1415.96,-1031.24 1415.96,-1031.24 1415.96,-1031.24 1359.96,-1023.24 1359.96,-1023.24 1359.96,-1023.24 1294.81,-953.72 1272.41,-929.82"/>
<polygon fill="#1f7a4d" stroke="#1f7a4d" stroke-width="2.2" points="1274.75,-928.22 1267.24,-924.29 1270.66,-932.05 1274.75,-928.22"/>
</g>
<!-- regulate_voltage -->
<g id="node29" class="node">
<title>regulate_voltage</title>
<polygon fill="#bdfb9b" stroke="#166534" points="1956.17,-930.24 1859.75,-930.24 1859.75,-875.46 1956.17,-875.46 1956.17,-930.24"/>
<text xml:space="preserve" text-anchor="middle" x="1907.96" y="-904.5" font-family="Helvetica,sans-Serif" font-size="18.00">Regulate</text>
<text xml:space="preserve" text-anchor="middle" x="1907.96" y="-885.75" font-family="Helvetica,sans-Serif" font-size="18.00">voltage</text>
</g>
<!-- batt_provide&#45;&gt;regulate_voltage -->
<!-- batt_provide&#45;&gt;regulate_voltage -->
<!-- batt_provide&#45;&gt;regulate_voltage -->
<g id="edge92" class="edge">
<title>batt_provide:s&#45;&gt;regulate_voltage:n</title>
<path fill="none" stroke="#1f7a4d" stroke-width="2.2" d="M1907.96,-1233.83C1907.96,-1233.83 1915.96,-1172.71 1915.96,-1172.71 1915.96,-1172.71 1915.96,-1031.24 1915.96,-1031.24 1915.96,-1031.24 1910.93,-968.36 1908.85,-942.32"/>
<polygon fill="#1f7a4d" stroke="#1f7a4d" stroke-width="2.2" points="1911.65,-942.31 1908.23,-934.56 1906.07,-942.76 1911.65,-942.31"/>
</g>
<!-- battchg_usb_in -->
<!-- protection_usb_anchor&#45;&gt;battchg_usb_in -->
<!-- battchg_batt_in -->
<!-- protection_batt_anchor&#45;&gt;battchg_batt_in -->
<!-- protection_phys_out -->
<!-- protection_phys_out&#45;&gt;restore_power -->
<!-- ina_phys_in -->
<!-- protection_phys_out&#45;&gt;ina_phys_in -->
<!-- protection_phys_out&#45;&gt;ina_phys_in -->
<g id="edge106" class="edge">
<title>protection_phys_out:s&#45;&gt;ina_phys_in:nw</title>
<path fill="none" stroke="#e11d28" stroke-width="2.2" d="M1413.96,-755.57C1458.92,-754.36 1867.96,-743.3 1867.96,-743.3"/>
<text xml:space="preserve" text-anchor="middle" x="1597.08" y="-750.94" font-family="Helvetica,sans-Serif" font-size="15.00" fill="#e11d28">PC Out trace</text>
</g>
<!-- battchg_usb_in&#45;&gt;battchg_batt_in -->
<!-- battchg_usb_in&#45;&gt;charger_reg -->
<!-- battchg_usb_in&#45;&gt;charger_reg -->
<!-- battchg_batt_in&#45;&gt;charger_reg -->
<!-- battchg_batt_in&#45;&gt;charger_reg -->
<!-- charger_reg&#45;&gt;batt_store -->
<g id="edge90" class="edge">
<title>charger_reg:n&#45;&gt;batt_store:s</title>
<path fill="none" stroke="#1f7a4d" stroke-width="2.2" d="M1264.96,-921.86C1264.96,-921.86 1359.96,-1023.24 1359.96,-1023.24 1359.96,-1023.24 1415.96,-1031.24 1415.96,-1031.24 1415.96,-1031.24 1592.96,-1140.27 1592.96,-1140.27 1592.96,-1140.27 1701.46,-1207.5 1734.51,-1227.98"/>
<polygon fill="#1f7a4d" stroke="#1f7a4d" stroke-width="2.2" points="1732.85,-1230.25 1741.13,-1232.08 1735.8,-1225.49 1732.85,-1230.25"/>
</g>
<!-- charger_reg&#45;&gt;restore_power -->
<!-- restore_power&#45;&gt;detect_oc -->
<!-- restore_power&#45;&gt;cut_off_power -->
<!-- protection_ina_out -->
<!-- restore_power&#45;&gt;protection_ina_out -->
<!-- ina_measure_v -->
<g id="node43" class="node">
<title>ina_measure_v</title>
<polygon fill="#bdfb9b" stroke="#166534" points="1625.55,-681.3 1468.38,-681.3 1468.38,-645.27 1625.55,-645.27 1625.55,-681.3"/>
<text xml:space="preserve" text-anchor="middle" x="1546.96" y="-655.56" font-family="Helvetica,sans-Serif" font-size="18.00">Measure voltage</text>
</g>
<!-- restore_power&#45;&gt;ina_measure_v -->
<!-- detect_oc&#45;&gt;detect_ov -->
<!-- cut_off_in_nw -->
<!-- detect_oc&#45;&gt;cut_off_in_nw -->
<!-- detect_oc&#45;&gt;cut_off_power -->
<g id="edge88" class="edge">
<title>detect_oc:e&#45;&gt;cut_off_power:w</title>
<path fill="none" stroke="#1f7a4d" stroke-width="2.2" d="M590.42,-783.07C590.42,-783.07 600.75,-783.07 609.3,-783.07"/>
<polygon fill="#1f7a4d" stroke="#1f7a4d" stroke-width="2.2" points="609.17,-785.87 617.17,-783.07 609.17,-780.27 609.17,-785.87"/>
</g>
<!-- cut_off_in_n -->
<!-- detect_ov&#45;&gt;cut_off_in_n -->
<!-- detect_ov&#45;&gt;cut_off_power -->
<g id="edge89" class="edge">
<title>detect_ov:w&#45;&gt;cut_off_power:e</title>
<path fill="none" stroke="#1f7a4d" stroke-width="2.2" d="M781.25,-783.07C781.25,-783.07 771.28,-783.07 762.87,-783.07"/>
<polygon fill="#1f7a4d" stroke="#1f7a4d" stroke-width="2.2" points="762.75,-780.27 754.75,-783.07 762.75,-785.87 762.75,-780.27"/>
</g>
<!-- cut_off_in_w -->
<!-- cut_off_in_w&#45;&gt;cut_off_power -->
<!-- cut_off_in_nw&#45;&gt;cut_off_power -->
<!-- cut_off_in_n&#45;&gt;cut_off_power -->
<!-- protection_pc_out -->
<!-- cut_off_power&#45;&gt;protection_pc_out -->
<!-- cut_off_power&#45;&gt;protection_pc_out -->
<!-- protection_ina_out&#45;&gt;restore_power -->
<!-- protection_ina_out&#45;&gt;protection_pc_out -->
<!-- protection_pc_out&#45;&gt;restore_power -->
<!-- protection_pc_out&#45;&gt;protection_ina_out -->
<!-- regulator_phys_in -->
<!-- regulator_out -->
<!-- regulator_phys_in&#45;&gt;regulator_out -->
<!-- regulator_phys_out -->
<!-- regulator_phys_out&#45;&gt;regulator_out -->
<!-- connector_terminal -->
<g id="node30" class="node">
<title>connector_terminal</title>
<polygon fill="#fff8bf" stroke="#d1b24a" stroke-width="2" points="2040.8,-690.68 1933.12,-690.68 1933.12,-635.9 2040.8,-635.9 2040.8,-690.68"/>
<text xml:space="preserve" text-anchor="middle" x="1986.96" y="-664.94" font-family="Helvetica,sans-Serif" font-size="18.00">Connector</text>
<text xml:space="preserve" text-anchor="middle" x="1986.96" y="-646.19" font-family="Helvetica,sans-Serif" font-size="18.00">Terminal</text>
</g>
<!-- regulator_phys_out&#45;&gt;connector_terminal -->
<g id="edge108" class="edge">
<title>regulator_phys_out:se&#45;&gt;connector_terminal:n</title>
<path fill="none" stroke="#e11d28" stroke-width="2.2" d="M2012.08,-859.46C2002.94,-798.38 1986.96,-691.68 1986.96,-691.68"/>
<text xml:space="preserve" text-anchor="middle" x="1947.4" y="-777.07" font-family="Helvetica,sans-Serif" font-size="15.00" fill="#e11d28">3V3 / 5V / GND</text>
</g>
<!-- regulator_out&#45;&gt;connector_terminal -->
<!-- regulate_voltage&#45;&gt;regulator_out -->
<!-- regulate_voltage&#45;&gt;regulator_out -->
<!-- ina_measure_i -->
<g id="node44" class="node">
<title>ina_measure_i</title>
<polygon fill="#bdfb9b" stroke="#166534" points="1841.8,-681.3 1686.12,-681.3 1686.12,-645.27 1841.8,-645.27 1841.8,-681.3"/>
<text xml:space="preserve" text-anchor="middle" x="1763.96" y="-655.56" font-family="Helvetica,sans-Serif" font-size="18.00">Measure current</text>
</g>
<!-- regulate_voltage&#45;&gt;ina_measure_i -->
<!-- xiao_collect -->
<g id="node50" class="node">
<title>xiao_collect</title>
<polygon fill="#bdfb9b" stroke="#166534" points="2361.42,-178.44 2116.5,-178.44 2116.5,-142.41 2361.42,-142.41 2361.42,-178.44"/>
<text xml:space="preserve" text-anchor="middle" x="2238.96" y="-152.7" font-family="Helvetica,sans-Serif" font-size="18.00">Collect PDS measurements</text>
</g>
<!-- regulate_voltage&#45;&gt;xiao_collect -->
<!-- ina_respond -->
<g id="node45" class="node">
<title>ina_respond</title>
<polygon fill="#bdfb9b" stroke="#166534" points="1855.92,-427.37 1626,-427.37 1626,-391.34 1855.92,-391.34 1855.92,-427.37"/>
<text xml:space="preserve" text-anchor="middle" x="1740.96" y="-401.63" font-family="Helvetica,sans-Serif" font-size="18.00">Respond to I2C Requests</text>
</g>
<!-- connector_terminal&#45;&gt;ina_respond -->
<!-- xiao_pwr_5v -->
<!-- connector_terminal&#45;&gt;xiao_pwr_5v -->
<!-- connector_terminal&#45;&gt;xiao_pwr_5v -->
<g id="edge110" class="edge">
<title>connector_terminal:e&#45;&gt;xiao_pwr_5v:ne</title>
<path fill="none" stroke="#e11d28" stroke-width="2.2" d="M2048.96,-662.65C2102.48,-657.87 2437.96,-627.9 2437.96,-627.9"/>
<text xml:space="preserve" text-anchor="middle" x="2211.21" y="-646.78" font-family="Helvetica,sans-Serif" font-size="15.00" fill="#e11d28">5V / GND</text>
</g>
<!-- xiao_pwr_3v3 -->
<!-- connector_terminal&#45;&gt;xiao_pwr_3v3 -->
<!-- xiao_get_init -->
<g id="node55" class="node">
<title>xiao_get_init</title>
<polygon fill="#bdfb9b" stroke="#166534" points="2577.3,-565.9 2484.62,-565.9 2484.62,-492.37 2577.3,-492.37 2577.3,-565.9"/>
<text xml:space="preserve" text-anchor="middle" x="2530.96" y="-540.16" font-family="Helvetica,sans-Serif" font-size="18.00">Get</text>
<text xml:space="preserve" text-anchor="middle" x="2530.96" y="-521.41" font-family="Helvetica,sans-Serif" font-size="18.00">INA219</text>
<text xml:space="preserve" text-anchor="middle" x="2530.96" y="-502.66" font-family="Helvetica,sans-Serif" font-size="18.00">init state</text>
</g>
<!-- connector_terminal&#45;&gt;xiao_get_init -->
<!-- ina_phys_in&#45;&gt;ina_measure_v -->
<!-- ina_phys_out -->
<!-- ina_phys_out&#45;&gt;regulator_phys_in -->
<!-- ina_phys_out&#45;&gt;regulator_phys_in -->
<g id="edge107" class="edge">
<title>ina_phys_out:ne&#45;&gt;regulator_phys_in:sw</title>
<path fill="none" stroke="#e11d28" stroke-width="2.2" d="M1886.96,-743.3C1886.96,-743.3 1871.96,-810.46 1871.96,-810.46 1871.96,-810.46 1844.96,-859.46 1844.96,-859.46"/>
<text xml:space="preserve" text-anchor="middle" x="1823.49" y="-805.68" font-family="Helvetica,sans-Serif" font-size="15.00" fill="#e11d28">INA Out / GND</text>
</g>
<!-- ina_phys_out&#45;&gt;ina_respond -->
<!-- xiao_i2c_port -->
<!-- ina_phys_out&#45;&gt;xiao_i2c_port -->
<g id="edge109" class="edge">
<title>ina_phys_out:e&#45;&gt;xiao_i2c_port:nw</title>
<path fill="none" stroke="#e11d28" stroke-width="2.2" d="M1910.96,-635.84C1958.13,-635.08 2406.96,-627.9 2406.96,-627.9"/>
<text xml:space="preserve" text-anchor="middle" x="2122.21" y="-633.37" font-family="Helvetica,sans-Serif" font-size="15.00" fill="#e11d28">I2C Cables</text>
</g>
<!-- ina_power_in -->
<!-- ina_power_in&#45;&gt;ina_measure_v -->
<!-- ina_signal_in -->
<!-- ina_signal_in&#45;&gt;ina_measure_i -->
<!-- ina_resp_in_v -->
<!-- ina_resp_in_v&#45;&gt;ina_respond -->
<!-- ina_resp_in_i -->
<!-- ina_resp_in_i&#45;&gt;ina_respond -->
<!-- ina_resp_req_1 -->
<!-- ina_resp_req_1&#45;&gt;ina_respond -->
<!-- ina_resp_req_2 -->
<!-- ina_resp_req_2&#45;&gt;ina_respond -->
<!-- ina_resp_req_3 -->
<!-- ina_resp_req_3&#45;&gt;ina_respond -->
<!-- ina_resp_out_1 -->
<!-- ina_resp_out_2 -->
<!-- ina_resp_out_3 -->
<!-- ina_measure_v&#45;&gt;ina_measure_i -->
<!-- ina_measure_v&#45;&gt;ina_respond -->
<!-- ina_measure_v&#45;&gt;ina_respond -->
<g id="edge99" class="edge">
<title>ina_measure_v:s&#45;&gt;ina_respond:nw</title>
<path fill="none" stroke="#1f7a4d" stroke-width="2.2" d="M1546.96,-644.27C1546.96,-644.27 1640.96,-635.9 1640.96,-635.9 1640.96,-635.9 1776.96,-627.9 1776.96,-627.9 1776.96,-627.9 1776.96,-492.37 1776.96,-492.37 1776.96,-492.37 1670.48,-446.52 1636.38,-431.84"/>
<polygon fill="#1f7a4d" stroke="#1f7a4d" stroke-width="2.2" points="1637.51,-429.28 1629.06,-428.69 1635.3,-434.42 1637.51,-429.28"/>
<text xml:space="preserve" text-anchor="middle" x="1772.09" y="-600.41" font-family="Helvetica,sans-Serif" font-size="15.00" fill="#1f7a4d">V</text>
</g>
<!-- ina_measure_i&#45;&gt;ina_respond -->
<!-- ina_measure_i&#45;&gt;ina_respond -->
<g id="edge100" class="edge">
<title>ina_measure_i:s&#45;&gt;ina_respond:ne</title>
<path fill="none" stroke="#1f7a4d" stroke-width="2.2" d="M1763.96,-644.27C1763.96,-644.27 1838.96,-627.9 1838.96,-627.9 1838.96,-627.9 1851.43,-480.48 1854.98,-438.44"/>
<polygon fill="#1f7a4d" stroke="#1f7a4d" stroke-width="2.2" points="1857.76,-438.9 1855.64,-430.69 1852.18,-438.42 1857.76,-438.9"/>
<text xml:space="preserve" text-anchor="middle" x="1841.49" y="-572.92" font-family="Helvetica,sans-Serif" font-size="15.00" fill="#1f7a4d">I</text>
</g>
<!-- ina_respond&#45;&gt;ina_resp_out_1 -->
<!-- ina_respond&#45;&gt;ina_resp_out_2 -->
<!-- ina_respond&#45;&gt;ina_resp_out_3 -->
<!-- xiao_process_i -->
<g id="node48" class="node">
<title>xiao_process_i</title>
<polygon fill="#bdfb9b" stroke="#166534" points="2163.17,-316.97 2072.75,-316.97 2072.75,-262.19 2163.17,-262.19 2163.17,-316.97"/>
<text xml:space="preserve" text-anchor="middle" x="2117.96" y="-291.23" font-family="Helvetica,sans-Serif" font-size="18.00">Process</text>
<text xml:space="preserve" text-anchor="middle" x="2117.96" y="-272.48" font-family="Helvetica,sans-Serif" font-size="18.00">current</text>
</g>
<!-- ina_respond&#45;&gt;xiao_process_i -->
<!-- ina_respond&#45;&gt;xiao_process_i -->
<g id="edge103" class="edge">
<title>ina_respond:se&#45;&gt;xiao_process_i:w</title>
<path fill="none" stroke="#1f7a4d" stroke-width="2.2" d="M1855.92,-391.34C1855.92,-391.34 2018.96,-314.47 2061.63,-294.35"/>
<polygon fill="#1f7a4d" stroke="#1f7a4d" stroke-width="2.2" points="2062.7,-296.94 2068.74,-291 2060.31,-291.87 2062.7,-296.94"/>
<text xml:space="preserve" text-anchor="middle" x="1941.52" y="-344.34" font-family="Helvetica,sans-Serif" font-size="15.00" fill="#1f7a4d">Resp</text>
</g>
<!-- xiao_process_v -->
<g id="node49" class="node">
<title>xiao_process_v</title>
<polygon fill="#bdfb9b" stroke="#166534" points="2283.17,-316.97 2192.75,-316.97 2192.75,-262.19 2283.17,-262.19 2283.17,-316.97"/>
<text xml:space="preserve" text-anchor="middle" x="2237.96" y="-291.23" font-family="Helvetica,sans-Serif" font-size="18.00">Process</text>
<text xml:space="preserve" text-anchor="middle" x="2237.96" y="-272.48" font-family="Helvetica,sans-Serif" font-size="18.00">voltage</text>
</g>
<!-- ina_respond&#45;&gt;xiao_process_v -->
<!-- ina_respond&#45;&gt;xiao_process_v -->
<!-- ina_respond&#45;&gt;xiao_process_v -->
<g id="edge102" class="edge">
<title>ina_respond:se&#45;&gt;xiao_process_v:w</title>
<path fill="none" stroke="#1f7a4d" stroke-width="2.2" d="M1855.92,-391.34C1855.92,-391.34 2177.96,-326.34 2177.96,-326.34 2177.96,-326.34 2183.76,-310.88 2187.84,-300.01"/>
<polygon fill="#1f7a4d" stroke="#1f7a4d" stroke-width="2.2" points="2190.39,-301.17 2190.58,-292.69 2185.15,-299.2 2190.39,-301.17"/>
<text xml:space="preserve" text-anchor="middle" x="2013.47" y="-357.56" font-family="Helvetica,sans-Serif" font-size="15.00" fill="#1f7a4d">Resp</text>
</g>
<!-- xiao_collect_init -->
<g id="node56" class="node">
<title>xiao_collect_init</title>
<polygon fill="#bdfb9b" stroke="#166534" points="2546.8,-326.34 2415.12,-326.34 2415.12,-252.81 2546.8,-252.81 2546.8,-326.34"/>
<text xml:space="preserve" text-anchor="middle" x="2480.96" y="-300.6" font-family="Helvetica,sans-Serif" font-size="18.00">Collect</text>
<text xml:space="preserve" text-anchor="middle" x="2480.96" y="-281.85" font-family="Helvetica,sans-Serif" font-size="18.00">peripheral init</text>
<text xml:space="preserve" text-anchor="middle" x="2480.96" y="-263.1" font-family="Helvetica,sans-Serif" font-size="18.00">states</text>
</g>
<!-- ina_respond&#45;&gt;xiao_collect_init -->
<!-- ina_respond&#45;&gt;xiao_collect_init -->
<g id="edge101" class="edge">
<title>ina_respond:se&#45;&gt;xiao_collect_init:w</title>
<path fill="none" stroke="#1f7a4d" stroke-width="2.2" d="M1855.92,-391.34C1855.92,-391.34 2375.96,-326.34 2375.96,-326.34 2375.96,-326.34 2394.83,-308.16 2406.03,-297.37"/>
<polygon fill="#1f7a4d" stroke="#1f7a4d" stroke-width="2.2" points="2407.91,-299.45 2411.73,-291.89 2404.02,-295.42 2407.91,-299.45"/>
<text xml:space="preserve" text-anchor="middle" x="2115.66" y="-357.75" font-family="Helvetica,sans-Serif" font-size="15.00" fill="#1f7a4d">Result</text>
</g>
<!-- xiao_read_v -->
<g id="node46" class="node">
<title>xiao_read_v</title>
<polygon fill="#bdfb9b" stroke="#166534" points="2203.05,-547.15 2072.88,-547.15 2072.88,-511.12 2203.05,-511.12 2203.05,-547.15"/>
<text xml:space="preserve" text-anchor="middle" x="2137.96" y="-521.41" font-family="Helvetica,sans-Serif" font-size="18.00">Read voltage</text>
</g>
<!-- xiao_read_v&#45;&gt;ina_respond -->
<!-- xiao_read_v&#45;&gt;ina_respond -->
<g id="edge97" class="edge">
<title>xiao_read_v:sw&#45;&gt;ina_respond:ne</title>
<path fill="none" stroke="#1f7a4d" stroke-width="2.2" d="M2072.88,-510.12C2072.88,-510.12 2055.96,-492.37 2055.96,-492.37 2055.96,-492.37 1908.23,-444.37 1866.68,-430.86"/>
<polygon fill="#1f7a4d" stroke="#1f7a4d" stroke-width="2.2" points="1867.56,-428.21 1859.09,-428.4 1865.83,-433.53 1867.56,-428.21"/>
<text xml:space="preserve" text-anchor="middle" x="1959.48" y="-466.91" font-family="Helvetica,sans-Serif" font-size="15.00" fill="#1f7a4d">Req</text>
</g>
<!-- xiao_read_i -->
<g id="node47" class="node">
<title>xiao_read_i</title>
<polygon fill="#bdfb9b" stroke="#166534" points="2361.3,-547.15 2232.62,-547.15 2232.62,-511.12 2361.3,-511.12 2361.3,-547.15"/>
<text xml:space="preserve" text-anchor="middle" x="2296.96" y="-521.41" font-family="Helvetica,sans-Serif" font-size="18.00">Read current</text>
</g>
<!-- xiao_read_i&#45;&gt;ina_respond -->
<!-- xiao_read_i&#45;&gt;ina_respond -->
<g id="edge98" class="edge">
<title>xiao_read_i:sw&#45;&gt;ina_respond:ne</title>
<path fill="none" stroke="#1f7a4d" stroke-width="2.2" d="M2232.62,-510.12C2232.62,-510.12 2217.96,-492.37 2217.96,-492.37 2217.96,-492.37 1926.99,-440.13 1866.76,-429.32"/>
<polygon fill="#1f7a4d" stroke="#1f7a4d" stroke-width="2.2" points="1867.57,-426.62 1859.2,-427.96 1866.58,-432.13 1867.57,-426.62"/>
<text xml:space="preserve" text-anchor="middle" x="2040.19" y="-464.38" font-family="Helvetica,sans-Serif" font-size="15.00" fill="#1f7a4d">Req</text>
</g>
<!-- xiao_process_i&#45;&gt;xiao_collect -->
<!-- xiao_process_i&#45;&gt;xiao_collect -->
<g id="edge94" class="edge">
<title>xiao_process_i:s&#45;&gt;xiao_collect:nw</title>
<path fill="none" stroke="#1f7a4d" stroke-width="2.2" d="M2117.96,-261.19C2117.96,-261.19 2117.1,-212.77 2116.7,-190.46"/>
<polygon fill="#1f7a4d" stroke="#1f7a4d" stroke-width="2.2" points="2119.5,-190.71 2116.56,-182.76 2113.9,-190.81 2119.5,-190.71"/>
<text xml:space="preserve" text-anchor="middle" x="2096.33" y="-227.32" font-family="Helvetica,sans-Serif" font-size="15.00" fill="#1f7a4d">Result</text>
</g>
<!-- xiao_process_v&#45;&gt;xiao_collect -->
<!-- xiao_process_v&#45;&gt;xiao_collect -->
<g id="edge93" class="edge">
<title>xiao_process_v:s&#45;&gt;xiao_collect:ne</title>
<path fill="none" stroke="#1f7a4d" stroke-width="2.2" d="M2237.96,-261.19C2237.96,-261.19 2323.43,-204.59 2352.14,-185.58"/>
<polygon fill="#1f7a4d" stroke="#1f7a4d" stroke-width="2.2" points="2353.52,-188.02 2358.64,-181.27 2350.43,-183.36 2353.52,-188.02"/>
<text xml:space="preserve" text-anchor="middle" x="2274.05" y="-224.88" font-family="Helvetica,sans-Serif" font-size="15.00" fill="#1f7a4d">Result</text>
</g>
<!-- xiao_log -->
<g id="node51" class="node">
<title>xiao_log</title>
<polygon fill="#bdfb9b" stroke="#166534" points="2360.92,-68.03 2095,-68.03 2095,-32 2360.92,-32 2360.92,-68.03"/>
<text xml:space="preserve" text-anchor="middle" x="2227.96" y="-42.29" font-family="Helvetica,sans-Serif" font-size="18.00">Log measurements via Serial0</text>
</g>
<!-- xiao_collect&#45;&gt;xiao_log -->
<!-- xiao_collect&#45;&gt;xiao_log -->
<g id="edge95" class="edge">
<title>xiao_collect:s&#45;&gt;xiao_log:n</title>
<path fill="none" stroke="#1f7a4d" stroke-width="2.2" d="M2238.96,-141.41C2238.96,-141.41 2232.71,-99.7 2229.63,-79.17"/>
<polygon fill="#1f7a4d" stroke="#1f7a4d" stroke-width="2.2" points="2232.41,-78.82 2228.45,-71.32 2226.87,-79.65 2232.41,-78.82"/>
<text xml:space="preserve" text-anchor="middle" x="2216.67" y="-111.79" font-family="Helvetica,sans-Serif" font-size="15.00" fill="#1f7a4d">LoRa</text>
</g>
<!-- xiao_pwr_5v&#45;&gt;xiao_read_i -->
<!-- xiao_i2c_port&#45;&gt;xiao_get_init -->
<!-- xiao_pwr_3v3&#45;&gt;xiao_get_init -->
<!-- xiao_get_init&#45;&gt;ina_respond -->
<g id="edge96" class="edge">
<title>xiao_get_init:w&#45;&gt;ina_respond:ne</title>
<path fill="none" stroke="#1f7a4d" stroke-width="2.2" d="M2483.62,-529.13C2483.62,-529.13 2468.96,-492.37 2468.96,-492.37 2468.96,-492.37 1950.17,-437.36 1867.08,-428.55"/>
<polygon fill="#1f7a4d" stroke="#1f7a4d" stroke-width="2.2" points="1867.48,-425.78 1859.23,-427.72 1866.89,-431.35 1867.48,-425.78"/>
<text xml:space="preserve" text-anchor="middle" x="2174.2" y="-464.05" font-family="Helvetica,sans-Serif" font-size="15.00" fill="#1f7a4d">Req</text>
</g>
<!-- xiao_get_init&#45;&gt;xiao_collect_init -->
<!-- xiao_init_bus -->
<g id="node57" class="node">
<title>xiao_init_bus</title>
<polygon fill="#bdfb9b" stroke="#166534" points="2553.17,-187.81 2408.75,-187.81 2408.75,-133.03 2553.17,-133.03 2553.17,-187.81"/>
<text xml:space="preserve" text-anchor="middle" x="2480.96" y="-162.07" font-family="Helvetica,sans-Serif" font-size="18.00">Init Serial0 and</text>
<text xml:space="preserve" text-anchor="middle" x="2480.96" y="-143.32" font-family="Helvetica,sans-Serif" font-size="18.00">I2C</text>
</g>
<!-- xiao_collect_init&#45;&gt;xiao_init_bus -->
</g>
</svg>
