<?xml version="1.0" encoding="UTF-8" standalone="no"?>
<!DOCTYPE svg PUBLIC "-//W3C//DTD SVG 1.1//EN"
 "http://www.w3.org/Graphics/SVG/1.1/DTD/svg11.dtd">
<!-- Generated by graphviz version 14.1.4 (20260321.0153)
 -->
<!-- Title: PDS_v0_2 Pages: 1 -->
<svg width="1132pt" height="1620pt"
 viewBox="0.00 0.00 1132.00 1620.00" xmlns="http://www.w3.org/2000/svg" xmlns:xlink="http://www.w3.org/1999/xlink">
<g id="graph0" class="graph" transform="scale(1 1) rotate(0) translate(20.16 1600.14)">
<title>PDS_v0_2</title>
<polygon fill="white" stroke="none" points="-20.16,20.16 -20.16,-1600.14 1111.62,-1600.14 1111.62,20.16 -20.16,20.16"/>
<g id="clust1" class="cluster">
<title>cluster_charger</title>
<path fill="#bfeaf4" stroke="#5b65c9" stroke-width="2" d="M28,-1496.95C28,-1496.95 160,-1496.95 160,-1496.95 166,-1496.95 172,-1502.95 172,-1508.95 172,-1508.95 172,-1559.98 172,-1559.98 172,-1565.98 166,-1571.98 160,-1571.98 160,-1571.98 28,-1571.98 28,-1571.98 22,-1571.98 16,-1565.98 16,-1559.98 16,-1559.98 16,-1508.95 16,-1508.95 16,-1502.95 22,-1496.95 28,-1496.95"/>
<text xml:space="preserve" text-anchor="middle" x="94" y="-1554.68" font-family="Helvetica,sans-Serif" font-size="14.00">Charger</text>
</g>
<g id="clust2" class="cluster">
<title>cluster_user</title>
<path fill="#bfeaf4" stroke="#5b65c9" stroke-width="2" d="M20,-1189.52C20,-1189.52 168,-1189.52 168,-1189.52 174,-1189.52 180,-1195.52 180,-1201.52 180,-1201.52 180,-1414.95 180,-1414.95 180,-1420.95 174,-1426.95 168,-1426.95 168,-1426.95 20,-1426.95 20,-1426.95 14,-1426.95 8,-1420.95 8,-1414.95 8,-1414.95 8,-1201.52 8,-1201.52 8,-1195.52 14,-1189.52 20,-1189.52"/>
<text xml:space="preserve" text-anchor="middle" x="94" y="-1409.65" font-family="Helvetica,sans-Serif" font-size="14.00">User</text>
</g>
<g id="clust3" class="cluster">
<title>cluster_pds</title>
<path fill="#d9d9d9" stroke="#888888" stroke-width="2" d="M200,-8C200,-8 745,-8 745,-8 751,-8 757,-14 757,-20 757,-20 757,-1476.95 757,-1476.95 757,-1482.95 751,-1488.95 745,-1488.95 745,-1488.95 200,-1488.95 200,-1488.95 194,-1488.95 188,-1482.95 188,-1476.95 188,-1476.95 188,-20 188,-20 188,-14 194,-8 200,-8"/>
<text xml:space="preserve" text-anchor="middle" x="472.5" y="-1471.65" font-family="Helvetica,sans-Serif" font-size="14.00">PDS v0.2&#45;0.3 Subsystem</text>
</g>
<g id="clust4" class="cluster">
<title>cluster_battpack</title>
<polygon fill="#fff8bf" stroke="#d1b24a" stroke-width="2" points="393,-1343.92 393,-1457.95 723,-1457.95 723,-1343.92 393,-1343.92"/>
<text xml:space="preserve" text-anchor="middle" x="558" y="-1440.65" font-family="Helvetica,sans-Serif" font-size="14.00">1S1P Li&#45;Ion</text>
</g>
<g id="clust5" class="cluster">
<title>cluster_battery</title>
<path fill="#a9c7e6" stroke="#5b65c9" stroke-width="2" d="M413,-1351.92C413,-1351.92 703,-1351.92 703,-1351.92 709,-1351.92 715,-1357.92 715,-1363.92 715,-1363.92 715,-1414.95 715,-1414.95 715,-1420.95 709,-1426.95 703,-1426.95 703,-1426.95 413,-1426.95 413,-1426.95 407,-1426.95 401,-1420.95 401,-1414.95 401,-1414.95 401,-1363.92 401,-1363.92 401,-1357.92 407,-1351.92 413,-1351.92"/>
<text xml:space="preserve" text-anchor="middle" x="558" y="-1409.65" font-family="Helvetica,sans-Serif" font-size="14.00">Battery</text>
</g>
<g id="clust6" class="cluster">
<title>cluster_board</title>
<polygon fill="#fff8bf" stroke="#d1b24a" stroke-width="2" points="196,-830.68 196,-1335.92 709,-1335.92 709,-830.68 196,-830.68"/>
<text xml:space="preserve" text-anchor="middle" x="452.5" y="-1318.62" font-family="Helvetica,sans-Serif" font-size="14.00">PDS Circuitboard</text>
</g>
<g id="clust7" class="cluster">
<title>cluster_protection</title>
<polygon fill="#fff8bf" stroke="#d1b24a" stroke-width="2" points="212,-1071.11 212,-1295.55 546,-1295.55 546,-1071.11 212,-1071.11"/>
<text xml:space="preserve" text-anchor="middle" x="379" y="-1278.25" font-family="Helvetica,sans-Serif" font-size="14.00">Protection Circuit</text>
</g>
<g id="clust8" class="cluster">
<title>cluster_batt_charger</title>
<path fill="#a9c7e6" stroke="#5b65c9" stroke-width="2" d="M298,-1189.52C298,-1189.52 448,-1189.52 448,-1189.52 454,-1189.52 460,-1195.52 460,-1201.52 460,-1201.52 460,-1252.55 460,-1252.55 460,-1258.55 454,-1264.55 448,-1264.55 448,-1264.55 298,-1264.55 298,-1264.55 292,-1264.55 286,-1258.55 286,-1252.55 286,-1252.55 286,-1201.52 286,-1201.52 286,-1195.52 292,-1189.52 298,-1189.52"/>
<text xml:space="preserve" text-anchor="middle" x="373" y="-1247.25" font-family="Helvetica,sans-Serif" font-size="14.00">Battery Charger</text>
</g>
<g id="clust9" class="cluster">
<title>cluster_power_protection</title>
<path fill="#a9c7e6" stroke="#5b65c9" stroke-width="2" d="M232,-1079.11C232,-1079.11 526,-1079.11 526,-1079.11 532,-1079.11 538,-1085.11 538,-1091.11 538,-1091.11 538,-1142.14 538,-1142.14 538,-1148.14 532,-1154.14 526,-1154.14 526,-1154.14 232,-1154.14 232,-1154.14 226,-1154.14 220,-1148.14 220,-1142.14 220,-1142.14 220,-1091.11 220,-1091.11 220,-1085.11 226,-1079.11 232,-1079.11"/>
<text xml:space="preserve" text-anchor="middle" x="379" y="-1136.85" font-family="Helvetica,sans-Serif" font-size="14.00">Power Protection</text>
</g>
<g id="clust10" class="cluster">
<title>cluster_regulator_block</title>
<polygon fill="#fff8bf" stroke="#d1b24a" stroke-width="2" points="573,-1172.14 573,-1304.92 701,-1304.92 701,-1172.14 573,-1172.14"/>
<text xml:space="preserve" text-anchor="middle" x="637" y="-1287.62" font-family="Helvetica,sans-Serif" font-size="14.00">Regulator</text>
</g>
<g id="clust11" class="cluster">
<title>cluster_regulator</title>
<path fill="#a9c7e6" stroke="#5b65c9" stroke-width="2" d="M593,-1180.14C593,-1180.14 681,-1180.14 681,-1180.14 687,-1180.14 693,-1186.14 693,-1192.14 693,-1192.14 693,-1261.92 693,-1261.92 693,-1267.92 687,-1273.92 681,-1273.92 681,-1273.92 593,-1273.92 593,-1273.92 587,-1273.92 581,-1267.92 581,-1261.92 581,-1261.92 581,-1192.14 581,-1192.14 581,-1186.14 587,-1180.14 593,-1180.14"/>
<text xml:space="preserve" text-anchor="middle" x="637" y="-1256.62" font-family="Helvetica,sans-Serif" font-size="14.00">Regulator</text>
</g>
<g id="clust12" class="cluster">
<title>cluster_ina219</title>
<polygon fill="#fff8bf" stroke="#d1b24a" stroke-width="2" points="204,-838.68 204,-1063.12 579,-1063.12 579,-838.68 204,-838.68"/>
<text xml:space="preserve" text-anchor="middle" x="391.5" y="-1045.82" font-family="Helvetica,sans-Serif" font-size="14.00">INA219</text>
</g>
<g id="clust13" class="cluster">
<title>cluster_batt_monitoring</title>
<path fill="#a9c7e6" stroke="#5b65c9" stroke-width="2" d="M224,-846.68C224,-846.68 559,-846.68 559,-846.68 565,-846.68 571,-852.68 571,-858.68 571,-858.68 571,-1020.12 571,-1020.12 571,-1026.12 565,-1032.12 559,-1032.12 559,-1032.12 224,-1032.12 224,-1032.12 218,-1032.12 212,-1026.12 212,-1020.12 212,-1020.12 212,-858.68 212,-858.68 212,-852.68 218,-846.68 224,-846.68"/>
<text xml:space="preserve" text-anchor="middle" x="391.5" y="-1014.82" font-family="Helvetica,sans-Serif" font-size="14.00">Battery monitoring</text>
</g>
<g id="clust14" class="cluster">
<title>cluster_xiao</title>
<polygon fill="#fff8bf" stroke="#d1b24a" stroke-width="2" points="245,-16 245,-822.68 733,-822.68 733,-16 245,-16"/>
<text xml:space="preserve" text-anchor="middle" x="489" y="-805.38" font-family="Helvetica,sans-Serif" font-size="14.00">XIAO ESP32&#45;S3</text>
</g>
<g id="clust15" class="cluster">
<title>cluster_setup</title>
<path fill="#a9c7e6" stroke="#5b65c9" stroke-width="2" d="M265,-402.09C265,-402.09 401,-402.09 401,-402.09 407,-402.09 413,-408.09 413,-414.09 413,-414.09 413,-779.68 413,-779.68 413,-785.68 407,-791.68 401,-791.68 401,-791.68 265,-791.68 265,-791.68 259,-791.68 253,-785.68 253,-779.68 253,-779.68 253,-414.09 253,-414.09 253,-408.09 259,-402.09 265,-402.09"/>
<text xml:space="preserve" text-anchor="middle" x="333" y="-774.38" font-family="Helvetica,sans-Serif" font-size="14.00">Setup</text>
</g>
<g id="clust16" class="cluster">
<title>cluster_loop</title>
<path fill="#a9c7e6" stroke="#5b65c9" stroke-width="2" d="M433,-24C433,-24 713,-24 713,-24 719,-24 725,-30 725,-36 725,-36 725,-760.93 725,-760.93 725,-766.93 719,-772.93 713,-772.93 713,-772.93 433,-772.93 433,-772.93 427,-772.93 421,-766.93 421,-760.93 421,-760.93 421,-36 421,-36 421,-30 427,-24 433,-24"/>
<text xml:space="preserve" text-anchor="middle" x="573" y="-755.63" font-family="Helvetica,sans-Serif" font-size="14.00">Loop</text>
</g>
<!-- charger_power -->
<g id="node1" class="node">
<title>charger_power</title>
<polygon fill="#bdfb9b" stroke="#166534" points="163.58,-1540.98 24.42,-1540.98 24.42,-1504.95 163.58,-1504.95 163.58,-1540.98"/>
<text xml:space="preserve" text-anchor="middle" x="94" y="-1515.24" font-family="Helvetica,sans-Serif" font-size="18.00">Provide power</text>
</g>
<!-- user_on -->
<g id="node2" class="node">
<title>user_on</title>
<polygon fill="#bdfb9b" stroke="#166534" points="172.21,-1395.95 15.79,-1395.95 15.79,-1359.92 172.21,-1359.92 172.21,-1395.95"/>
<text xml:space="preserve" text-anchor="middle" x="94" y="-1370.21" font-family="Helvetica,sans-Serif" font-size="18.00">Switch power on</text>
</g>
<!-- charger_power&#45;&gt;user_on -->
<!-- batt_store -->
<g id="node4" class="node">
<title>batt_store</title>
<polygon fill="#bdfb9b" stroke="#166534" points="536.96,-1395.95 409.04,-1395.95 409.04,-1359.92 536.96,-1359.92 536.96,-1395.95"/>
<text xml:space="preserve" text-anchor="middle" x="473" y="-1370.21" font-family="Helvetica,sans-Serif" font-size="18.00">Store energy</text>
</g>
<!-- charger_power&#45;&gt;batt_store -->
<!-- charger_reg -->
<g id="node6" class="node">
<title>charger_reg</title>
<polygon fill="#bdfb9b" stroke="#166534" points="452.33,-1233.55 293.67,-1233.55 293.67,-1197.52 452.33,-1197.52 452.33,-1233.55"/>
<text xml:space="preserve" text-anchor="middle" x="373" y="-1207.81" font-family="Helvetica,sans-Serif" font-size="18.00">Regulate voltage</text>
</g>
<!-- charger_power&#45;&gt;charger_reg -->
<g id="edge34" class="edge">
<title>charger_power&#45;&gt;charger_reg</title>
<path fill="none" stroke="#1f7a4d" stroke-width="2.2" d="M164.06,-1517.87C325.14,-1509.03 707,-1488.95 707,-1488.95 707,-1488.95 707,-1343.92 707,-1343.92 707,-1343.92 559,-1335.92 559,-1335.92 559,-1335.92 456.17,-1274.85 403.1,-1240.06"/>
<polygon fill="#1f7a4d" stroke="#1f7a4d" stroke-width="2.2" points="404.79,-1237.83 396.58,-1235.74 401.7,-1242.49 404.79,-1237.83"/>
</g>
<!-- charger_power&#45;&gt;charger_reg -->
<g id="edge52" class="edge">
<title>charger_power&#45;&gt;charger_reg</title>
<path fill="none" stroke="#e11d28" stroke-width="2.2" d="M164,-1518.67C330.85,-1510.31 737,-1488.95 737,-1488.95 737,-1488.95 737,-1343.92 737,-1343.92 737,-1343.92 589,-1335.92 589,-1335.92 589,-1335.92 563.41,-1320.72 529.81,-1301.17"/>
<polygon fill="#e11d28" stroke="#e11d28" stroke-width="2.2" points="531.33,-1298.82 523.01,-1297.22 528.52,-1303.66 531.33,-1298.82"/>
<text xml:space="preserve" text-anchor="middle" x="586.95" y="-1495.94" font-family="Helvetica,sans-Serif" font-size="15.00" fill="#e11d28">USB&#45;C Cable</text>
</g>
<!-- user_off -->
<g id="node3" class="node">
<title>user_off</title>
<polygon fill="#bdfb9b" stroke="#166534" points="171.83,-1233.55 16.17,-1233.55 16.17,-1197.52 171.83,-1197.52 171.83,-1233.55"/>
<text xml:space="preserve" text-anchor="middle" x="94" y="-1207.81" font-family="Helvetica,sans-Serif" font-size="18.00">Switch power off</text>
</g>
<!-- user_on&#45;&gt;user_off -->
<!-- restore_power -->
<g id="node7" class="node">
<title>restore_power</title>
<polygon fill="#bdfb9b" stroke="#166534" points="369.71,-1123.14 228.29,-1123.14 228.29,-1087.11 369.71,-1087.11 369.71,-1123.14"/>
<text xml:space="preserve" text-anchor="middle" x="299" y="-1097.4" font-family="Helvetica,sans-Serif" font-size="18.00">Restore power</text>
</g>
<!-- user_on&#45;&gt;restore_power -->
<!-- user_on&#45;&gt;restore_power -->
<g id="edge35" class="edge">
<title>user_on&#45;&gt;restore_power</title>
<path fill="none" stroke="#1f7a4d" stroke-width="2.2" d="M146.23,-1359.43C173.99,-1348.28 202,-1335.92 202,-1335.92 202,-1335.92 270.71,-1194.94 293.29,-1133.83"/>
<polygon fill="#1f7a4d" stroke="#1f7a4d" stroke-width="2.2" points="295.84,-1135.02 295.84,-1126.54 290.56,-1133.17 295.84,-1135.02"/>
</g>
<!-- cut_off_power -->
<g id="node8" class="node">
<title>cut_off_power</title>
<polygon fill="#bdfb9b" stroke="#166534" points="530.46,-1123.14 399.54,-1123.14 399.54,-1087.11 530.46,-1087.11 530.46,-1123.14"/>
<text xml:space="preserve" text-anchor="middle" x="465" y="-1097.4" font-family="Helvetica,sans-Serif" font-size="18.00">Cut off power</text>
</g>
<!-- user_off&#45;&gt;cut_off_power -->
<g id="edge36" class="edge">
<title>user_off&#45;&gt;cut_off_power</title>
<path fill="none" stroke="#1f7a4d" stroke-width="2.2" d="M170.31,-1197.05C221.28,-1185.37 279,-1172.14 279,-1172.14 279,-1172.14 385,-1154.14 385,-1154.14 385,-1154.14 406.02,-1141.53 426.51,-1129.23"/>
<polygon fill="#1f7a4d" stroke="#1f7a4d" stroke-width="2.2" points="427.84,-1131.7 433.26,-1125.18 424.96,-1126.89 427.84,-1131.7"/>
</g>
<!-- batt_provide -->
<g id="node5" class="node">
<title>batt_provide</title>
<polygon fill="#bdfb9b" stroke="#166534" points="706.59,-1395.95 567.41,-1395.95 567.41,-1359.92 706.59,-1359.92 706.59,-1395.95"/>
<text xml:space="preserve" text-anchor="middle" x="637" y="-1370.21" font-family="Helvetica,sans-Serif" font-size="18.00">Provide power</text>
</g>
<!-- batt_store&#45;&gt;batt_provide -->
<!-- batt_store&#45;&gt;charger_reg -->
<!-- batt_store&#45;&gt;restore_power -->
<g id="edge53" class="edge">
<title>batt_store&#45;&gt;restore_power</title>
<path fill="none" stroke="#e11d28" stroke-width="2.2" d="M552,-1343.92C552,-1343.92 700,-1335.92 700,-1335.92 700,-1335.92 700,-1172.14 700,-1172.14 700,-1172.14 630.56,-1168.18 556.89,-1163.97"/>
<polygon fill="#e11d28" stroke="#e11d28" stroke-width="2.2" points="557.47,-1161.2 549.32,-1163.53 557.15,-1166.79 557.47,-1161.2"/>
<text xml:space="preserve" text-anchor="middle" x="760.75" y="-1257.97" font-family="Helvetica,sans-Serif" font-size="15.00" fill="#e11d28">Battery Cable JST</text>
</g>
<!-- regulate_voltage -->
<g id="node9" class="node">
<title>regulate_voltage</title>
<polygon fill="#bdfb9b" stroke="#166534" points="685.21,-1242.92 588.79,-1242.92 588.79,-1188.14 685.21,-1188.14 685.21,-1242.92"/>
<text xml:space="preserve" text-anchor="middle" x="637" y="-1217.18" font-family="Helvetica,sans-Serif" font-size="18.00">Regulate</text>
<text xml:space="preserve" text-anchor="middle" x="637" y="-1198.43" font-family="Helvetica,sans-Serif" font-size="18.00">voltage</text>
</g>
<!-- batt_provide&#45;&gt;regulate_voltage -->
<!-- batt_provide&#45;&gt;regulate_voltage -->
<!-- batt_provide&#45;&gt;regulate_voltage -->
<g id="edge38" class="edge">
<title>batt_provide&#45;&gt;regulate_voltage</title>
<path fill="none" stroke="#1f7a4d" stroke-width="2.2" d="M651.67,-1359.47C660.19,-1334.3 661.76,-1287.22 656.38,-1253.98"/>
<polygon fill="#1f7a4d" stroke="#1f7a4d" stroke-width="2.2" points="659.21,-1253.88 654.92,-1246.56 653.71,-1254.95 659.21,-1253.88"/>
</g>
<!-- charger_reg&#45;&gt;batt_store -->
<g id="edge37" class="edge">
<title>charger_reg&#45;&gt;batt_store</title>
<path fill="none" stroke="#1f7a4d" stroke-width="2.2" d="M376.55,-1233.98C389.35,-1262.17 423.67,-1317.89 448.15,-1350.83"/>
<polygon fill="#1f7a4d" stroke="#1f7a4d" stroke-width="2.2" points="445.66,-1352.18 452.75,-1356.82 450.11,-1348.77 445.66,-1352.18"/>
</g>
<!-- charger_reg&#45;&gt;restore_power -->
<!-- restore_power&#45;&gt;cut_off_power -->
<!-- connector_terminal -->
<g id="node10" class="node">
<title>connector_terminal</title>
<polygon fill="#fff5b0" stroke="#d1b24a" points="700.84,-1010.49 593.16,-1010.49 593.16,-955.71 700.84,-955.71 700.84,-1010.49"/>
<text xml:space="preserve" text-anchor="middle" x="647" y="-984.75" font-family="Helvetica,sans-Serif" font-size="18.00">Connector</text>
<text xml:space="preserve" text-anchor="middle" x="647" y="-966" font-family="Helvetica,sans-Serif" font-size="18.00">Terminal</text>
</g>
<!-- restore_power&#45;&gt;connector_terminal -->
<g id="edge54" class="edge">
<title>restore_power&#45;&gt;connector_terminal</title>
<path fill="none" stroke="#e11d28" stroke-width="2.2" d="M385,-1071.11C385,-1071.11 578,-1063.12 578,-1063.12 578,-1063.12 597.97,-1040.25 616.42,-1019.12"/>
<polygon fill="#e11d28" stroke="#e11d28" stroke-width="2.2" points="618.3,-1021.23 621.45,-1013.36 614.08,-1017.54 618.3,-1021.23"/>
<text xml:space="preserve" text-anchor="middle" x="443.56" y="-1067.41" font-family="Helvetica,sans-Serif" font-size="15.00" fill="#e11d28">PC Out trace / GND</text>
</g>
<!-- ina_measure_v -->
<g id="node11" class="node">
<title>ina_measure_v</title>
<polygon fill="#bdfb9b" stroke="#166534" points="377.58,-1001.11 220.42,-1001.11 220.42,-965.08 377.58,-965.08 377.58,-1001.11"/>
<text xml:space="preserve" text-anchor="middle" x="299" y="-975.37" font-family="Helvetica,sans-Serif" font-size="18.00">Measure voltage</text>
</g>
<!-- restore_power&#45;&gt;ina_measure_v -->
<!-- restore_power&#45;&gt;ina_measure_v -->
<g id="edge55" class="edge">
<title>restore_power&#45;&gt;ina_measure_v</title>
<path fill="none" stroke="#e11d28" stroke-width="2.2" d="M308.89,-1071.11C309.1,-1069.11 309.31,-1067.11 309.52,-1065.11"/>
<polygon fill="#e11d28" stroke="#e11d28" stroke-width="2.2" points="311.33,-1074.68 309.38,-1066.43 305.76,-1074.09 311.33,-1074.68"/>
<text xml:space="preserve" text-anchor="middle" x="282.58" y="-1069.61" font-family="Helvetica,sans-Serif" font-size="15.00" fill="#e11d28">INA Out</text>
</g>
<!-- regulate_voltage&#45;&gt;connector_terminal -->
<!-- regulate_voltage&#45;&gt;connector_terminal -->
<g id="edge56" class="edge">
<title>regulate_voltage&#45;&gt;connector_terminal</title>
<path fill="none" stroke="#e11d28" stroke-width="2.2" d="M647.79,-1172.15C652.84,-1129.16 655.58,-1063.24 653.95,-1021.96"/>
<polygon fill="#e11d28" stroke="#e11d28" stroke-width="2.2" points="656.76,-1021.98 653.54,-1014.14 651.16,-1022.28 656.76,-1021.98"/>
<text xml:space="preserve" text-anchor="middle" x="598.75" y="-1098.55" font-family="Helvetica,sans-Serif" font-size="15.00" fill="#e11d28">5V / 3V3 / GND</text>
</g>
<!-- ina_measure_i -->
<g id="node12" class="node">
<title>ina_measure_i</title>
<polygon fill="#bdfb9b" stroke="#166534" points="562.84,-1001.11 407.17,-1001.11 407.17,-965.08 562.84,-965.08 562.84,-1001.11"/>
<text xml:space="preserve" text-anchor="middle" x="485" y="-975.37" font-family="Helvetica,sans-Serif" font-size="18.00">Measure current</text>
</g>
<!-- regulate_voltage&#45;&gt;ina_measure_i -->
<!-- xiao_collect -->
<g id="node21" class="node">
<title>xiao_collect</title>
<polygon fill="#bdfb9b" stroke="#166534" points="717.46,-187.81 472.54,-187.81 472.54,-151.78 717.46,-151.78 717.46,-187.81"/>
<text xml:space="preserve" text-anchor="middle" x="595" y="-162.07" font-family="Helvetica,sans-Serif" font-size="18.00">Collect PDS measurements</text>
</g>
<!-- regulate_voltage&#45;&gt;xiao_collect -->
<!-- ina_respond -->
<g id="node13" class="node">
<title>ina_respond</title>
<polygon fill="#bdfb9b" stroke="#166534" points="556.96,-890.71 327.04,-890.71 327.04,-854.68 556.96,-854.68 556.96,-890.71"/>
<text xml:space="preserve" text-anchor="middle" x="442" y="-864.97" font-family="Helvetica,sans-Serif" font-size="18.00">Respond to I2C Requests</text>
</g>
<!-- connector_terminal&#45;&gt;ina_respond -->
<!-- xiao_get_init -->
<g id="node14" class="node">
<title>xiao_get_init</title>
<polygon fill="#bdfb9b" stroke="#166534" points="399.33,-760.68 306.67,-760.68 306.67,-687.15 399.33,-687.15 399.33,-760.68"/>
<text xml:space="preserve" text-anchor="middle" x="353" y="-734.94" font-family="Helvetica,sans-Serif" font-size="18.00">Get</text>
<text xml:space="preserve" text-anchor="middle" x="353" y="-716.19" font-family="Helvetica,sans-Serif" font-size="18.00">INA219</text>
<text xml:space="preserve" text-anchor="middle" x="353" y="-697.44" font-family="Helvetica,sans-Serif" font-size="18.00">init state</text>
</g>
<!-- connector_terminal&#45;&gt;xiao_get_init -->
<!-- xiao_read_v -->
<g id="node17" class="node">
<title>xiao_read_v</title>
<polygon fill="#bdfb9b" stroke="#166534" points="559.09,-741.93 428.92,-741.93 428.92,-705.9 559.09,-705.9 559.09,-741.93"/>
<text xml:space="preserve" text-anchor="middle" x="494" y="-716.19" font-family="Helvetica,sans-Serif" font-size="18.00">Read voltage</text>
</g>
<!-- connector_terminal&#45;&gt;xiao_read_v -->
<g id="edge57" class="edge">
<title>connector_terminal&#45;&gt;xiao_read_v</title>
<path fill="none" stroke="#e11d28" stroke-width="2.2" d="M596,-830.68C596,-830.68 590.15,-828.55 584.48,-826.49"/>
<polygon fill="#e11d28" stroke="#e11d28" stroke-width="2.2" points="585.6,-823.92 577.13,-823.82 583.69,-829.18 585.6,-823.92"/>
<text xml:space="preserve" text-anchor="middle" x="553.87" y="-830.09" font-family="Helvetica,sans-Serif" font-size="15.00" fill="#e11d28">3V3 / GND</text>
</g>
<!-- xiao_read_i -->
<g id="node18" class="node">
<title>xiao_read_i</title>
<polygon fill="#bdfb9b" stroke="#166534" points="717.34,-741.93 588.66,-741.93 588.66,-705.9 717.34,-705.9 717.34,-741.93"/>
<text xml:space="preserve" text-anchor="middle" x="653" y="-716.19" font-family="Helvetica,sans-Serif" font-size="18.00">Read current</text>
</g>
<!-- connector_terminal&#45;&gt;xiao_read_i -->
<g id="edge58" class="edge">
<title>connector_terminal&#45;&gt;xiao_read_i</title>
<path fill="none" stroke="#e11d28" stroke-width="2.2" d="M650.46,-830.68C650.52,-828.68 650.59,-826.68 650.65,-824.68"/>
<polygon fill="#e11d28" stroke="#e11d28" stroke-width="2.2" points="653.14,-834.09 650.61,-826.01 647.55,-833.91 653.14,-834.09"/>
<text xml:space="preserve" text-anchor="middle" x="618.3" y="-813.43" font-family="Helvetica,sans-Serif" font-size="15.00" fill="#e11d28">5V / GND</text>
</g>
<!-- ina_measure_v&#45;&gt;ina_measure_i -->
<!-- ina_measure_v&#45;&gt;ina_respond -->
<!-- ina_measure_v&#45;&gt;ina_respond -->
<g id="edge39" class="edge">
<title>ina_measure_v&#45;&gt;ina_respond</title>
<path fill="none" stroke="#1f7a4d" stroke-width="2.2" d="M330.5,-964.68C357.39,-946.74 394.84,-918.63 419.03,-898.4"/>
<polygon fill="#1f7a4d" stroke="#1f7a4d" stroke-width="2.2" points="420.81,-900.56 425.07,-893.23 417.17,-896.3 420.81,-900.56"/>
</g>
<!-- ina_measure_v&#45;&gt;xiao_read_v -->
<g id="edge50" class="edge">
<title>ina_measure_v&#45;&gt;xiao_read_v</title>
<path fill="none" stroke="#1f7a4d" stroke-width="2.2" d="M351.31,-964.59C430.58,-938.05 572,-890.71 572,-890.71 572,-890.71 572,-830.68 572,-830.68 572,-830.68 536.41,-782.42 513.31,-751.1"/>
<polygon fill="#1f7a4d" stroke="#1f7a4d" stroke-width="2.2" points="515.86,-749.84 508.86,-745.06 511.35,-753.16 515.86,-749.84"/>
</g>
<!-- ina_measure_i&#45;&gt;ina_respond -->
<!-- ina_measure_i&#45;&gt;ina_respond -->
<g id="edge40" class="edge">
<title>ina_measure_i&#45;&gt;ina_respond</title>
<path fill="none" stroke="#1f7a4d" stroke-width="2.2" d="M486.62,-964.68C482.88,-947.46 472.78,-920.84 462.67,-900.84"/>
<polygon fill="#1f7a4d" stroke="#1f7a4d" stroke-width="2.2" points="465.24,-899.72 458.99,-894 460.31,-902.37 465.24,-899.72"/>
</g>
<!-- ina_measure_i&#45;&gt;xiao_read_i -->
<g id="edge51" class="edge">
<title>ina_measure_i&#45;&gt;xiao_read_i</title>
<path fill="none" stroke="#1f7a4d" stroke-width="2.2" d="M524.42,-964.7C584.48,-938.18 692,-890.71 692,-890.71 692,-890.71 692,-830.68 692,-830.68 692,-830.68 674.81,-784.06 663.25,-752.73"/>
<polygon fill="#1f7a4d" stroke="#1f7a4d" stroke-width="2.2" points="665.99,-752.04 660.59,-745.5 660.73,-753.98 665.99,-752.04"/>
</g>
<!-- ina_respond&#45;&gt;xiao_read_v -->
<!-- xiao_get_init&#45;&gt;ina_respond -->
<g id="edge47" class="edge">
<title>xiao_get_init&#45;&gt;ina_respond</title>
<path fill="none" stroke="#1f7a4d" stroke-width="2.2" d="M374.92,-761.07C390.59,-786.91 411.33,-821.12 425.58,-844.61"/>
<polygon fill="#1f7a4d" stroke="#1f7a4d" stroke-width="2.2" points="423.17,-846.04 429.71,-851.43 427.96,-843.14 423.17,-846.04"/>
<text xml:space="preserve" text-anchor="middle" x="368.38" y="-804.34" font-family="Helvetica,sans-Serif" font-size="15.00" fill="#1f7a4d">[I2C Req]</text>
</g>
<!-- xiao_collect_init -->
<g id="node15" class="node">
<title>xiao_collect_init</title>
<polygon fill="#bdfb9b" stroke="#166534" points="401.83,-622.15 270.17,-622.15 270.17,-548.62 401.83,-548.62 401.83,-622.15"/>
<text xml:space="preserve" text-anchor="middle" x="336" y="-596.41" font-family="Helvetica,sans-Serif" font-size="18.00">Collect</text>
<text xml:space="preserve" text-anchor="middle" x="336" y="-577.66" font-family="Helvetica,sans-Serif" font-size="18.00">peripheral init</text>
<text xml:space="preserve" text-anchor="middle" x="336" y="-558.91" font-family="Helvetica,sans-Serif" font-size="18.00">states</text>
</g>
<!-- xiao_get_init&#45;&gt;xiao_collect_init -->
<!-- xiao_get_init&#45;&gt;xiao_collect_init -->
<g id="edge41" class="edge">
<title>xiao_get_init&#45;&gt;xiao_collect_init</title>
<path fill="none" stroke="#1f7a4d" stroke-width="2.2" d="M358.56,-686.69C357.82,-670.36 355.62,-650.86 352.61,-633.42"/>
<polygon fill="#1f7a4d" stroke="#1f7a4d" stroke-width="2.2" points="355.36,-632.93 351.13,-625.58 349.86,-633.96 355.36,-632.93"/>
<text xml:space="preserve" text-anchor="middle" x="330.08" y="-661.55" font-family="Helvetica,sans-Serif" font-size="15.00" fill="#1f7a4d">[Result]</text>
</g>
<!-- xiao_init_bus -->
<g id="node16" class="node">
<title>xiao_init_bus</title>
<polygon fill="#bdfb9b" stroke="#166534" points="405.21,-464.87 260.79,-464.87 260.79,-410.09 405.21,-410.09 405.21,-464.87"/>
<text xml:space="preserve" text-anchor="middle" x="333" y="-439.13" font-family="Helvetica,sans-Serif" font-size="18.00">Init Serial0 and</text>
<text xml:space="preserve" text-anchor="middle" x="333" y="-420.38" font-family="Helvetica,sans-Serif" font-size="18.00">I2C</text>
</g>
<!-- xiao_collect_init&#45;&gt;xiao_init_bus -->
<!-- xiao_read_v&#45;&gt;ina_respond -->
<g id="edge48" class="edge">
<title>xiao_read_v&#45;&gt;ina_respond</title>
<path fill="none" stroke="#1f7a4d" stroke-width="2.2" d="M480.25,-742.31C467.11,-767.23 450.25,-813.4 442.95,-843.32"/>
<polygon fill="#1f7a4d" stroke="#1f7a4d" stroke-width="2.2" points="440.24,-842.62 441.28,-851.03 445.71,-843.8 440.24,-842.62"/>
<text xml:space="preserve" text-anchor="middle" x="429.73" y="-778.56" font-family="Helvetica,sans-Serif" font-size="15.00" fill="#1f7a4d">[I2C Req]</text>
</g>
<!-- xiao_process_v -->
<g id="node19" class="node">
<title>xiao_process_v</title>
<polygon fill="#bdfb9b" stroke="#166534" points="539.21,-464.87 448.79,-464.87 448.79,-410.09 539.21,-410.09 539.21,-464.87"/>
<text xml:space="preserve" text-anchor="middle" x="494" y="-439.13" font-family="Helvetica,sans-Serif" font-size="18.00">Process</text>
<text xml:space="preserve" text-anchor="middle" x="494" y="-420.38" font-family="Helvetica,sans-Serif" font-size="18.00">voltage</text>
</g>
<!-- xiao_read_v&#45;&gt;xiao_process_v -->
<!-- xiao_read_v&#45;&gt;xiao_process_v -->
<g id="edge42" class="edge">
<title>xiao_read_v&#45;&gt;xiao_process_v</title>
<path fill="none" stroke="#1f7a4d" stroke-width="2.2" d="M499.75,-705.55C506.26,-660.45 506.99,-538.79 501.95,-476.44"/>
<polygon fill="#1f7a4d" stroke="#1f7a4d" stroke-width="2.2" points="504.74,-476.19 501.21,-468.48 499.16,-476.71 504.74,-476.19"/>
</g>
<!-- xiao_read_i&#45;&gt;ina_respond -->
<g id="edge49" class="edge">
<title>xiao_read_i&#45;&gt;ina_respond</title>
<path fill="none" stroke="#1f7a4d" stroke-width="2.2" d="M638.88,-742.39C616.15,-770.51 574,-822.68 574,-822.68 574,-822.68 534.94,-837.18 499.32,-850.41"/>
<polygon fill="#1f7a4d" stroke="#1f7a4d" stroke-width="2.2" points="498.56,-847.71 492.03,-853.12 500.51,-852.96 498.56,-847.71"/>
<text xml:space="preserve" text-anchor="middle" x="581.4" y="-799.27" font-family="Helvetica,sans-Serif" font-size="15.00" fill="#1f7a4d">[I2C Req]</text>
</g>
<!-- xiao_process_i -->
<g id="node20" class="node">
<title>xiao_process_i</title>
<polygon fill="#bdfb9b" stroke="#166534" points="698.21,-464.87 607.79,-464.87 607.79,-410.09 698.21,-410.09 698.21,-464.87"/>
<text xml:space="preserve" text-anchor="middle" x="653" y="-439.13" font-family="Helvetica,sans-Serif" font-size="18.00">Process</text>
<text xml:space="preserve" text-anchor="middle" x="653" y="-420.38" font-family="Helvetica,sans-Serif" font-size="18.00">current</text>
</g>
<!-- xiao_read_i&#45;&gt;xiao_process_i -->
<!-- xiao_read_i&#45;&gt;xiao_process_i -->
<g id="edge43" class="edge">
<title>xiao_read_i&#45;&gt;xiao_process_i</title>
<path fill="none" stroke="#1f7a4d" stroke-width="2.2" d="M658.75,-705.55C665.26,-660.45 665.99,-538.79 660.95,-476.44"/>
<polygon fill="#1f7a4d" stroke="#1f7a4d" stroke-width="2.2" points="663.74,-476.19 660.21,-468.48 658.16,-476.71 663.74,-476.19"/>
</g>
<!-- note_vgt -->
<g id="node25" class="node">
<title>note_vgt</title>
<polygon fill="#fff5b0" stroke="#d1b24a" points="1091.46,-483.62 792.54,-483.62 792.54,-391.34 1091.46,-391.34 1091.46,-483.62"/>
<text xml:space="preserve" text-anchor="middle" x="942" y="-457.88" font-family="Helvetica,sans-Serif" font-size="18.00">All pairs of (Read X, Process X) or</text>
<text xml:space="preserve" text-anchor="middle" x="942" y="-439.13" font-family="Helvetica,sans-Serif" font-size="18.00">(Read X, Calculate Y) must be</text>
<text xml:space="preserve" text-anchor="middle" x="942" y="-420.38" font-family="Helvetica,sans-Serif" font-size="18.00">implemented as a Variable Getter</text>
<text xml:space="preserve" text-anchor="middle" x="942" y="-401.63" font-family="Helvetica,sans-Serif" font-size="18.00">Template</text>
</g>
<!-- xiao_read_i&#45;&gt;note_vgt -->
<!-- xiao_process_v&#45;&gt;xiao_collect -->
<!-- xiao_process_v&#45;&gt;xiao_collect -->
<g id="edge44" class="edge">
<title>xiao_process_v&#45;&gt;xiao_collect</title>
<path fill="none" stroke="#1f7a4d" stroke-width="2.2" d="M511.13,-410.03C535.8,-359.64 577.42,-250.28 591.61,-198.74"/>
<polygon fill="#1f7a4d" stroke="#1f7a4d" stroke-width="2.2" points="594.24,-199.76 593.51,-191.32 588.81,-198.37 594.24,-199.76"/>
<text xml:space="preserve" text-anchor="middle" x="525.87" y="-305.89" font-family="Helvetica,sans-Serif" font-size="15.00" fill="#1f7a4d">[Result]</text>
</g>
<!-- xiao_process_i&#45;&gt;xiao_collect -->
<!-- xiao_process_i&#45;&gt;xiao_collect -->
<g id="edge45" class="edge">
<title>xiao_process_i&#45;&gt;xiao_collect</title>
<path fill="none" stroke="#1f7a4d" stroke-width="2.2" d="M654.3,-410.03C648.81,-359.64 624.99,-250.28 608.33,-198.74"/>
<polygon fill="#1f7a4d" stroke="#1f7a4d" stroke-width="2.2" points="611.01,-197.9 605.77,-191.24 605.71,-199.72 611.01,-197.9"/>
<text xml:space="preserve" text-anchor="middle" x="605.82" y="-305.89" font-family="Helvetica,sans-Serif" font-size="15.00" fill="#1f7a4d">[Result]</text>
</g>
<!-- xiao_log -->
<g id="node22" class="node">
<title>xiao_log</title>
<polygon fill="#bdfb9b" stroke="#166534" points="716.96,-68.03 451.04,-68.03 451.04,-32 716.96,-32 716.96,-68.03"/>
<text xml:space="preserve" text-anchor="middle" x="584" y="-42.29" font-family="Helvetica,sans-Serif" font-size="18.00">Log measurements via Serial0</text>
</g>
<!-- xiao_collect&#45;&gt;xiao_log -->
<!-- xiao_collect&#45;&gt;xiao_log -->
<g id="edge46" class="edge">
<title>xiao_collect&#45;&gt;xiao_log</title>
<path fill="none" stroke="#1f7a4d" stroke-width="2.2" d="M601.64,-151.42C603.26,-132.45 600.9,-101.81 596.43,-79.35"/>
<polygon fill="#1f7a4d" stroke="#1f7a4d" stroke-width="2.2" points="599.19,-78.87 594.65,-71.71 593.73,-80.13 599.19,-78.87"/>
<text xml:space="preserve" text-anchor="middle" x="552.91" y="-116.89" font-family="Helvetica,sans-Serif" font-size="15.00" fill="#1f7a4d">[LoRa Frame]</text>
</g>
<!-- note_nb -->
<g id="node23" class="node">
<title>note_nb</title>
<polygon fill="#fff5b0" stroke="#d1b24a" points="1058.84,-760.68 825.16,-760.68 825.16,-687.15 1058.84,-687.15 1058.84,-760.68"/>
<text xml:space="preserve" text-anchor="middle" x="942" y="-734.94" font-family="Helvetica,sans-Serif" font-size="18.00">No blocking</text>
<text xml:space="preserve" text-anchor="middle" x="942" y="-716.19" font-family="Helvetica,sans-Serif" font-size="18.00">{c} operations besides I2C</text>
<text xml:space="preserve" text-anchor="middle" x="942" y="-697.44" font-family="Helvetica,sans-Serif" font-size="18.00">or UART comms</text>
</g>
<!-- note_nb&#45;&gt;xiao_read_v -->
<g id="edge59" class="edge">
<title>note_nb&#45;&gt;xiao_read_v</title>
<path fill="none" stroke="#333333" stroke-width="2.2" stroke-dasharray="5,2" d="M871.95,-761.11C819.22,-789.11 756,-822.68 756,-822.68 756,-822.68 741,-826.68 741,-826.68 741,-826.68 589,-826.68 589,-826.68 589,-826.68 574,-822.68 574,-822.68 574,-822.68 539.32,-779.86 515.62,-750.61"/>
<polygon fill="#333333" stroke="#333333" stroke-width="2.2" points="517.98,-749.07 510.77,-744.62 513.63,-752.6 517.98,-749.07"/>
</g>
<!-- note_nb&#45;&gt;xiao_read_i -->
<g id="edge60" class="edge">
<title>note_nb&#45;&gt;xiao_read_i</title>
<path fill="none" stroke="#333333" stroke-width="2.2" stroke-dasharray="5,2" d="M824.76,-723.91C796.43,-723.91 749.33,-723.91 749.33,-723.91 749.33,-723.91 740.89,-723.91 729,-723.91"/>
<polygon fill="#333333" stroke="#333333" stroke-width="2.2" points="729.12,-721.12 721.12,-723.92 729.12,-726.72 729.12,-721.12"/>
</g>
<!-- note_to -->
<g id="node24" class="node">
<title>note_to</title>
<polygon fill="#fff5b0" stroke="#d1b24a" points="1043.09,-622.15 840.91,-622.15 840.91,-548.62 1043.09,-548.62 1043.09,-622.15"/>
<text xml:space="preserve" text-anchor="middle" x="942" y="-596.41" font-family="Helvetica,sans-Serif" font-size="18.00">All I2C Read functions</text>
<text xml:space="preserve" text-anchor="middle" x="942" y="-577.66" font-family="Helvetica,sans-Serif" font-size="18.00">{c} must have a max.</text>
<text xml:space="preserve" text-anchor="middle" x="942" y="-558.91" font-family="Helvetica,sans-Serif" font-size="18.00">timeout of 5 ms</text>
</g>
<!-- note_nb&#45;&gt;note_to -->
<!-- note_to&#45;&gt;xiao_read_v -->
<g id="edge61" class="edge">
<title>note_to&#45;&gt;xiao_read_v</title>
<path fill="none" stroke="#333333" stroke-width="2.2" stroke-dasharray="5,2" d="M840.47,-614.19C731.54,-644.01 574,-687.15 574,-687.15 574,-687.15 559.58,-693.59 542.99,-701.01"/>
<polygon fill="#333333" stroke="#333333" stroke-width="2.2" points="542.26,-698.27 536.1,-704.09 544.55,-703.38 542.26,-698.27"/>
</g>
<!-- note_to&#45;&gt;xiao_read_i -->
<g id="edge62" class="edge">
<title>note_to&#45;&gt;xiao_read_i</title>
<path fill="none" stroke="#333333" stroke-width="2.2" stroke-dasharray="5,2" d="M865.51,-622.52C812.88,-647.38 744.67,-679.61 699.91,-700.75"/>
<polygon fill="#333333" stroke="#333333" stroke-width="2.2" points="698.94,-698.11 692.91,-704.06 701.34,-703.18 698.94,-698.11"/>
</g>
<!-- note_to&#45;&gt;note_vgt -->
<!-- note_vgt&#45;&gt;xiao_process_v -->
<g id="edge63" class="edge">
<title>note_vgt&#45;&gt;xiao_process_v</title>
<path fill="none" stroke="#333333" stroke-width="2.2" stroke-dasharray="5,2" d="M823.04,-484.02C779.64,-501 741,-516.12 741,-516.12 741,-516.12 608,-516.12 608,-516.12 608,-516.12 574.05,-492.7 543.2,-471.42"/>
<polygon fill="#333333" stroke="#333333" stroke-width="2.2" points="545.11,-469.33 536.93,-467.1 541.93,-473.94 545.11,-469.33"/>
</g>
<!-- note_vgt&#45;&gt;xiao_process_i -->
<g id="edge64" class="edge">
<title>note_vgt&#45;&gt;xiao_process_i</title>
<path fill="none" stroke="#333333" stroke-width="2.2" stroke-dasharray="5,2" d="M792.15,-437.48C769.97,-437.48 749.33,-437.48 749.33,-437.48 749.33,-437.48 730.62,-437.48 709.69,-437.48"/>
<polygon fill="#333333" stroke="#333333" stroke-width="2.2" points="709.96,-434.68 701.96,-437.48 709.96,-440.28 709.96,-434.68"/>
</g>
<!-- note_proc -->
<g id="node26" class="node">
<title>note_proc</title>
<polygon fill="#fff5b0" stroke="#d1b24a" points="1063.71,-326.34 820.29,-326.34 820.29,-252.81 1063.71,-252.81 1063.71,-326.34"/>
<text xml:space="preserve" text-anchor="middle" x="942" y="-300.6" font-family="Helvetica,sans-Serif" font-size="18.00">All Process or Calculate</text>
<text xml:space="preserve" text-anchor="middle" x="942" y="-281.85" font-family="Helvetica,sans-Serif" font-size="18.00">{c} functions must take less</text>
<text xml:space="preserve" text-anchor="middle" x="942" y="-263.1" font-family="Helvetica,sans-Serif" font-size="18.00">than 5ms</text>
</g>
<!-- note_vgt&#45;&gt;note_proc -->
<!-- note_proc&#45;&gt;xiao_process_i -->
<g id="edge65" class="edge">
<title>note_proc&#45;&gt;xiao_process_i</title>
<path fill="none" stroke="#333333" stroke-width="2.2" stroke-dasharray="5,2" d="M870.35,-326.75C820.36,-351.99 754.61,-385.18 708.57,-408.43"/>
<polygon fill="#333333" stroke="#333333" stroke-width="2.2" points="707.33,-405.92 701.45,-412.02 709.85,-410.92 707.33,-405.92"/>
</g>
<!-- note_5hz -->
<g id="node27" class="node">
<title>note_5hz</title>
<polygon fill="#fff5b0" stroke="#d1b24a" points="996.96,-187.81 887.04,-187.81 887.04,-151.78 996.96,-151.78 996.96,-187.81"/>
<text xml:space="preserve" text-anchor="middle" x="942" y="-162.07" font-family="Helvetica,sans-Serif" font-size="18.00">{c} At 5 Hz</text>
</g>
<!-- note_proc&#45;&gt;note_5hz -->
<!-- note_5hz&#45;&gt;xiao_collect -->
<g id="edge66" class="edge">
<title>note_5hz&#45;&gt;xiao_collect</title>
<path fill="none" stroke="#333333" stroke-width="2.2" stroke-dasharray="5,2" d="M886.88,-169.8C857.09,-169.8 826.33,-169.8 826.33,-169.8 826.33,-169.8 761.56,-169.8 728.96,-169.8"/>
<polygon fill="#333333" stroke="#333333" stroke-width="2.2" points="729.23,-167 721.23,-169.8 729.23,-172.6 729.23,-167"/>
</g>
<!-- note_zero -->
<g id="node28" class="node">
<title>note_zero</title>
<polygon fill="#fff5b0" stroke="#d1b24a" points="1014.21,-86.78 869.79,-86.78 869.79,-13.25 1014.21,-13.25 1014.21,-86.78"/>
<text xml:space="preserve" text-anchor="middle" x="942" y="-61.04" font-family="Helvetica,sans-Serif" font-size="18.00">Set unused</text>
<text xml:space="preserve" text-anchor="middle" x="942" y="-42.29" font-family="Helvetica,sans-Serif" font-size="18.00">{c} frame fields</text>
<text xml:space="preserve" text-anchor="middle" x="942" y="-23.54" font-family="Helvetica,sans-Serif" font-size="18.00">to 0</text>
</g>
<!-- note_5hz&#45;&gt;note_zero -->
<!-- note_zero&#45;&gt;xiao_collect -->
<g id="edge67" class="edge">
<title>note_zero&#45;&gt;xiao_collect</title>
<path fill="none" stroke="#333333" stroke-width="2.2" stroke-dasharray="5,2" d="M869.59,-75.59C806.69,-96.94 716.59,-127.53 656.97,-147.76"/>
<polygon fill="#333333" stroke="#333333" stroke-width="2.2" points="656.4,-145 649.73,-150.22 658.2,-150.3 656.4,-145"/>
</g>
</g>
</svg>
