<?xml version="1.0" encoding="UTF-8" standalone="no"?>
<!DOCTYPE svg PUBLIC "-//W3C//DTD SVG 1.1//EN"
 "http://www.w3.org/Graphics/SVG/1.1/DTD/svg11.dtd">
<!-- Generated by graphviz version 14.1.4 (20260321.0153)
 -->
<!-- Title: PDS_v0_2 Pages: 1 -->
<svg width="1556pt" height="1578pt"
 viewBox="0.00 0.00 1556.00 1578.00" xmlns="http://www.w3.org/2000/svg" xmlns:xlink="http://www.w3.org/1999/xlink">
<g id="graph0" class="graph" transform="scale(1 1) rotate(0) translate(20.16 1557.55)">
<title>PDS_v0_2</title>
<polygon fill="white" stroke="none" points="-20.16,20.16 -20.16,-1557.55 1535.62,-1557.55 1535.62,20.16 -20.16,20.16"/>
<g id="clust1" class="cluster">
<title>cluster_charger</title>
<path fill="#bfeaf4" stroke="#5b65c9" stroke-width="2" d="M36,-1351.92C36,-1351.92 168,-1351.92 168,-1351.92 174,-1351.92 180,-1357.92 180,-1363.92 180,-1363.92 180,-1517.39 180,-1517.39 180,-1523.39 174,-1529.39 168,-1529.39 168,-1529.39 36,-1529.39 36,-1529.39 30,-1529.39 24,-1523.39 24,-1517.39 24,-1517.39 24,-1363.92 24,-1363.92 24,-1357.92 30,-1351.92 36,-1351.92"/>
<text xml:space="preserve" text-anchor="middle" x="102" y="-1512.09" font-family="Helvetica,sans-Serif" font-size="14.00">Charger</text>
</g>
<g id="clust2" class="cluster">
<title>cluster_user</title>
<path fill="#bfeaf4" stroke="#5b65c9" stroke-width="2" d="M20,-1079.11C20,-1079.11 168,-1079.11 168,-1079.11 174,-1079.11 180,-1085.11 180,-1091.11 180,-1091.11 180,-1252.55 180,-1252.55 180,-1258.55 174,-1264.55 168,-1264.55 168,-1264.55 20,-1264.55 20,-1264.55 14,-1264.55 8,-1258.55 8,-1252.55 8,-1252.55 8,-1091.11 8,-1091.11 8,-1085.11 14,-1079.11 20,-1079.11"/>
<text xml:space="preserve" text-anchor="middle" x="94" y="-1247.25" font-family="Helvetica,sans-Serif" font-size="14.00">User</text>
</g>
<g id="clust3" class="cluster">
<title>cluster_pds</title>
<path fill="#d9d9d9" stroke="#888888" stroke-width="2" d="M200,-8C200,-8 1169,-8 1169,-8 1175,-8 1181,-14 1181,-20 1181,-20 1181,-1476.95 1181,-1476.95 1181,-1482.95 1175,-1488.95 1169,-1488.95 1169,-1488.95 200,-1488.95 200,-1488.95 194,-1488.95 188,-1482.95 188,-1476.95 188,-1476.95 188,-20 188,-20 188,-14 194,-8 200,-8"/>
<text xml:space="preserve" text-anchor="middle" x="684.5" y="-1471.65" font-family="Helvetica,sans-Serif" font-size="14.00">PDS v0.2&#45;0.3 Subsystem</text>
</g>
<g id="clust4" class="cluster">
<title>cluster_battpack</title>
<polygon fill="#fff8bf" stroke="#d1b24a" stroke-width="2" points="428,-1343.92 428,-1457.95 788,-1457.95 788,-1343.92 428,-1343.92"/>
<text xml:space="preserve" text-anchor="middle" x="608" y="-1440.65" font-family="Helvetica,sans-Serif" font-size="14.00">1S1P Li&#45;Ion</text>
</g>
<g id="clust5" class="cluster">
<title>cluster_battery</title>
<path fill="#a9c7e6" stroke="#5b65c9" stroke-width="2" d="M448,-1351.92C448,-1351.92 768,-1351.92 768,-1351.92 774,-1351.92 780,-1357.92 780,-1363.92 780,-1363.92 780,-1414.95 780,-1414.95 780,-1420.95 774,-1426.95 768,-1426.95 768,-1426.95 448,-1426.95 448,-1426.95 442,-1426.95 436,-1420.95 436,-1414.95 436,-1414.95 436,-1363.92 436,-1363.92 436,-1357.92 442,-1351.92 448,-1351.92"/>
<text xml:space="preserve" text-anchor="middle" x="608" y="-1409.65" font-family="Helvetica,sans-Serif" font-size="14.00">Battery</text>
</g>
<g id="clust6" class="cluster">
<title>cluster_board</title>
<polygon fill="#fff8bf" stroke="#d1b24a" stroke-width="2" points="196,-830.68 196,-1335.92 774,-1335.92 774,-830.68 196,-830.68"/>
<text xml:space="preserve" text-anchor="middle" x="485" y="-1318.62" font-family="Helvetica,sans-Serif" font-size="14.00">PDS Circuitboard</text>
</g>
<g id="clust7" class="cluster">
<title>cluster_protection</title>
<polygon fill="#fff8bf" stroke="#d1b24a" stroke-width="2" points="204,-1071.11 204,-1295.55 599,-1295.55 599,-1071.11 204,-1071.11"/>
<text xml:space="preserve" text-anchor="middle" x="401.5" y="-1278.25" font-family="Helvetica,sans-Serif" font-size="14.00">Protection Circuit</text>
</g>
<g id="clust8" class="cluster">
<title>cluster_batt_charger</title>
<path fill="#a9c7e6" stroke="#5b65c9" stroke-width="2" d="M224,-1189.52C224,-1189.52 436,-1189.52 436,-1189.52 442,-1189.52 448,-1195.52 448,-1201.52 448,-1201.52 448,-1252.55 448,-1252.55 448,-1258.55 442,-1264.55 436,-1264.55 436,-1264.55 224,-1264.55 224,-1264.55 218,-1264.55 212,-1258.55 212,-1252.55 212,-1252.55 212,-1201.52 212,-1201.52 212,-1195.52 218,-1189.52 224,-1189.52"/>
<text xml:space="preserve" text-anchor="middle" x="330" y="-1247.25" font-family="Helvetica,sans-Serif" font-size="14.00">Battery Charger</text>
</g>
<g id="clust9" class="cluster">
<title>cluster_power_protection</title>
<path fill="#a9c7e6" stroke="#5b65c9" stroke-width="2" d="M224,-1079.11C224,-1079.11 579,-1079.11 579,-1079.11 585,-1079.11 591,-1085.11 591,-1091.11 591,-1091.11 591,-1142.14 591,-1142.14 591,-1148.14 585,-1154.14 579,-1154.14 579,-1154.14 224,-1154.14 224,-1154.14 218,-1154.14 212,-1148.14 212,-1142.14 212,-1142.14 212,-1091.11 212,-1091.11 212,-1085.11 218,-1079.11 224,-1079.11"/>
<text xml:space="preserve" text-anchor="middle" x="401.5" y="-1136.85" font-family="Helvetica,sans-Serif" font-size="14.00">Power Protection</text>
</g>
<g id="clust10" class="cluster">
<title>cluster_regulator_block</title>
<polygon fill="#fff8bf" stroke="#d1b24a" stroke-width="2" points="607,-1172.14 607,-1304.92 766,-1304.92 766,-1172.14 607,-1172.14"/>
<text xml:space="preserve" text-anchor="middle" x="686.5" y="-1287.62" font-family="Helvetica,sans-Serif" font-size="14.00">Regulator</text>
</g>
<g id="clust11" class="cluster">
<title>cluster_regulator</title>
<path fill="#a9c7e6" stroke="#5b65c9" stroke-width="2" d="M627,-1180.14C627,-1180.14 746,-1180.14 746,-1180.14 752,-1180.14 758,-1186.14 758,-1192.14 758,-1192.14 758,-1261.92 758,-1261.92 758,-1267.92 752,-1273.92 746,-1273.92 746,-1273.92 627,-1273.92 627,-1273.92 621,-1273.92 615,-1267.92 615,-1261.92 615,-1261.92 615,-1192.14 615,-1192.14 615,-1186.14 621,-1180.14 627,-1180.14"/>
<text xml:space="preserve" text-anchor="middle" x="686.5" y="-1256.62" font-family="Helvetica,sans-Serif" font-size="14.00">Regulator</text>
</g>
<g id="clust12" class="cluster">
<title>cluster_ina219</title>
<polygon fill="#fff8bf" stroke="#d1b24a" stroke-width="2" points="204,-838.68 204,-1063.12 640,-1063.12 640,-838.68 204,-838.68"/>
<text xml:space="preserve" text-anchor="middle" x="422" y="-1045.82" font-family="Helvetica,sans-Serif" font-size="14.00">INA219</text>
</g>
<g id="clust13" class="cluster">
<title>cluster_batt_monitoring</title>
<path fill="#a9c7e6" stroke="#5b65c9" stroke-width="2" d="M224,-846.68C224,-846.68 620,-846.68 620,-846.68 626,-846.68 632,-852.68 632,-858.68 632,-858.68 632,-1020.12 632,-1020.12 632,-1026.12 626,-1032.12 620,-1032.12 620,-1032.12 224,-1032.12 224,-1032.12 218,-1032.12 212,-1026.12 212,-1020.12 212,-1020.12 212,-858.68 212,-858.68 212,-852.68 218,-846.68 224,-846.68"/>
<text xml:space="preserve" text-anchor="middle" x="422" y="-1014.82" font-family="Helvetica,sans-Serif" font-size="14.00">Battery monitoring</text>
</g>
<g id="clust14" class="cluster">
<title>cluster_xiao</title>
<polygon fill="#fff8bf" stroke="#d1b24a" stroke-width="2" points="622,-16 622,-822.68 1157,-822.68 1157,-16 622,-16"/>
<text xml:space="preserve" text-anchor="middle" x="889.5" y="-805.38" font-family="Helvetica,sans-Serif" font-size="14.00">XIAO ESP32&#45;S3</text>
</g>
<g id="clust15" class="cluster">
<title>cluster_setup</title>
<path fill="#a9c7e6" stroke="#5b65c9" stroke-width="2" d="M642,-402.09C642,-402.09 819,-402.09 819,-402.09 825,-402.09 831,-408.09 831,-414.09 831,-414.09 831,-779.68 831,-779.68 831,-785.68 825,-791.68 819,-791.68 819,-791.68 642,-791.68 642,-791.68 636,-791.68 630,-785.68 630,-779.68 630,-779.68 630,-414.09 630,-414.09 630,-408.09 636,-402.09 642,-402.09"/>
<text xml:space="preserve" text-anchor="middle" x="730.5" y="-774.38" font-family="Helvetica,sans-Serif" font-size="14.00">Setup</text>
</g>
<g id="clust16" class="cluster">
<title>cluster_loop</title>
<path fill="#a9c7e6" stroke="#5b65c9" stroke-width="2" d="M857,-24C857,-24 1137,-24 1137,-24 1143,-24 1149,-30 1149,-36 1149,-36 1149,-760.93 1149,-760.93 1149,-766.93 1143,-772.93 1137,-772.93 1137,-772.93 857,-772.93 857,-772.93 851,-772.93 845,-766.93 845,-760.93 845,-760.93 845,-36 845,-36 845,-30 851,-24 857,-24"/>
<text xml:space="preserve" text-anchor="middle" x="997" y="-755.63" font-family="Helvetica,sans-Serif" font-size="14.00">Loop</text>
</g>
<!-- charger_usb -->
<!-- charger_power -->
<g id="node2" class="node">
<title>charger_power</title>
<polygon fill="#bdfb9b" stroke="#166534" points="171.58,-1395.95 32.42,-1395.95 32.42,-1359.92 171.58,-1359.92 171.58,-1395.95"/>
<text xml:space="preserve" text-anchor="middle" x="102" y="-1370.21" font-family="Helvetica,sans-Serif" font-size="18.00">Provide power</text>
</g>
<!-- charger_usb&#45;&gt;charger_power -->
<!-- battchg_usb_in -->
<!-- charger_usb&#45;&gt;battchg_usb_in -->
<!-- charger_usb&#45;&gt;battchg_usb_in -->
<g id="edge70" class="edge">
<title>charger_usb:e&#45;&gt;battchg_usb_in:w</title>
<path fill="none" stroke="#e11d28" stroke-width="2.2" d="M180,-1497.17C204.58,-1495.32 289,-1488.95 289,-1488.95 289,-1488.95 393,-1335.92 393,-1335.92 393,-1335.92 397.63,-1297.87 401.68,-1264.55"/>
<text xml:space="preserve" text-anchor="middle" x="286.24" y="-1429.41" font-family="Helvetica,sans-Serif" font-size="15.00" fill="#e11d28">USB&#45;C Cable</text>
</g>
<!-- user_on -->
<g id="node3" class="node">
<title>user_on</title>
<polygon fill="#bdfb9b" stroke="#166534" points="172.21,-1233.55 15.79,-1233.55 15.79,-1197.52 172.21,-1197.52 172.21,-1233.55"/>
<text xml:space="preserve" text-anchor="middle" x="94" y="-1207.81" font-family="Helvetica,sans-Serif" font-size="18.00">Switch power on</text>
</g>
<!-- charger_power&#45;&gt;user_on -->
<!-- charger_reg -->
<g id="node10" class="node">
<title>charger_reg</title>
<polygon fill="#bdfb9b" stroke="#166534" points="378.33,-1233.55 219.67,-1233.55 219.67,-1197.52 378.33,-1197.52 378.33,-1233.55"/>
<text xml:space="preserve" text-anchor="middle" x="299" y="-1207.81" font-family="Helvetica,sans-Serif" font-size="18.00">Regulate voltage</text>
</g>
<!-- charger_power&#45;&gt;charger_reg -->
<!-- charger_power&#45;&gt;charger_reg -->
<g id="edge52" class="edge">
<title>charger_power&#45;&gt;charger_reg</title>
<path fill="none" stroke="#1f7a4d" stroke-width="2.2" d="M150.81,-1359.43C176.4,-1348.28 202,-1335.92 202,-1335.92 202,-1335.92 256.48,-1277.85 284.36,-1242.71"/>
<polygon fill="#1f7a4d" stroke="#1f7a4d" stroke-width="2.2" points="286.45,-1244.58 289.11,-1236.53 282.01,-1241.17 286.45,-1244.58"/>
</g>
<!-- user_off -->
<g id="node4" class="node">
<title>user_off</title>
<polygon fill="#bdfb9b" stroke="#166534" points="171.83,-1123.14 16.17,-1123.14 16.17,-1087.11 171.83,-1087.11 171.83,-1123.14"/>
<text xml:space="preserve" text-anchor="middle" x="94" y="-1097.4" font-family="Helvetica,sans-Serif" font-size="18.00">Switch power off</text>
</g>
<!-- user_on&#45;&gt;user_off -->
<!-- restore_power -->
<g id="node13" class="node">
<title>restore_power</title>
<polygon fill="#bdfb9b" stroke="#166534" points="422.71,-1123.14 281.29,-1123.14 281.29,-1087.11 422.71,-1087.11 422.71,-1123.14"/>
<text xml:space="preserve" text-anchor="middle" x="352" y="-1097.4" font-family="Helvetica,sans-Serif" font-size="18.00">Restore power</text>
</g>
<!-- user_on&#45;&gt;restore_power -->
<!-- user_on&#45;&gt;restore_power -->
<g id="edge53" class="edge">
<title>user_on&#45;&gt;restore_power</title>
<path fill="none" stroke="#1f7a4d" stroke-width="2.2" d="M152.17,-1197.05C185.37,-1185.37 220,-1172.14 220,-1172.14 220,-1172.14 281,-1154.14 281,-1154.14 281,-1154.14 303.39,-1141.64 323.33,-1129.4"/>
<polygon fill="#1f7a4d" stroke="#1f7a4d" stroke-width="2.2" points="324.69,-1131.85 329.99,-1125.23 321.72,-1127.1 324.69,-1131.85"/>
</g>
<!-- cut_off_power -->
<g id="node14" class="node">
<title>cut_off_power</title>
<polygon fill="#bdfb9b" stroke="#166534" points="583.46,-1123.14 452.54,-1123.14 452.54,-1087.11 583.46,-1087.11 583.46,-1123.14"/>
<text xml:space="preserve" text-anchor="middle" x="518" y="-1097.4" font-family="Helvetica,sans-Serif" font-size="18.00">Cut off power</text>
</g>
<!-- user_off&#45;&gt;cut_off_power -->
<g id="edge54" class="edge">
<title>user_off&#45;&gt;cut_off_power</title>
<path fill="none" stroke="#1f7a4d" stroke-width="2.2" d="M133.87,-1123.49C170.78,-1140.48 220,-1163.14 220,-1163.14 220,-1163.14 423,-1163.14 423,-1163.14 423,-1163.14 438,-1154.14 438,-1154.14 438,-1154.14 458.47,-1141.6 478.7,-1129.21"/>
<polygon fill="#1f7a4d" stroke="#1f7a4d" stroke-width="2.2" points="480.01,-1131.69 485.37,-1125.12 477.09,-1126.91 480.01,-1131.69"/>
</g>
<!-- battery_jst -->
<!-- batt_store -->
<g id="node6" class="node">
<title>batt_store</title>
<polygon fill="#bdfb9b" stroke="#166534" points="601.96,-1395.95 474.04,-1395.95 474.04,-1359.92 601.96,-1359.92 601.96,-1395.95"/>
<text xml:space="preserve" text-anchor="middle" x="538" y="-1370.21" font-family="Helvetica,sans-Serif" font-size="18.00">Store energy</text>
</g>
<!-- battery_jst&#45;&gt;batt_store -->
<!-- battchg_batt_in -->
<!-- battery_jst&#45;&gt;battchg_batt_in -->
<!-- battery_jst&#45;&gt;battchg_batt_in -->
<g id="edge71" class="edge">
<title>battery_jst:s&#45;&gt;battchg_batt_in:nw</title>
<path fill="none" stroke="#e11d28" stroke-width="2.2" d="M443.33,-1351.93C442.7,-1328.77 441.73,-1293.28 440.94,-1264.55"/>
<text xml:space="preserve" text-anchor="middle" x="381.39" y="-1309.74" font-family="Helvetica,sans-Serif" font-size="15.00" fill="#e11d28">Battery Cable JST</text>
</g>
<!-- batt_provide -->
<g id="node7" class="node">
<title>batt_provide</title>
<polygon fill="#bdfb9b" stroke="#166534" points="771.59,-1395.95 632.41,-1395.95 632.41,-1359.92 771.59,-1359.92 771.59,-1395.95"/>
<text xml:space="preserve" text-anchor="middle" x="702" y="-1370.21" font-family="Helvetica,sans-Serif" font-size="18.00">Provide power</text>
</g>
<!-- batt_store&#45;&gt;batt_provide -->
<!-- batt_store&#45;&gt;charger_reg -->
<!-- regulate_voltage -->
<g id="node16" class="node">
<title>regulate_voltage</title>
<polygon fill="#bdfb9b" stroke="#166534" points="750.21,-1242.92 653.79,-1242.92 653.79,-1188.14 750.21,-1188.14 750.21,-1242.92"/>
<text xml:space="preserve" text-anchor="middle" x="702" y="-1217.18" font-family="Helvetica,sans-Serif" font-size="18.00">Regulate</text>
<text xml:space="preserve" text-anchor="middle" x="702" y="-1198.43" font-family="Helvetica,sans-Serif" font-size="18.00">voltage</text>
</g>
<!-- batt_provide&#45;&gt;regulate_voltage -->
<!-- batt_provide&#45;&gt;regulate_voltage -->
<!-- batt_provide&#45;&gt;regulate_voltage -->
<g id="edge56" class="edge">
<title>batt_provide&#45;&gt;regulate_voltage</title>
<path fill="none" stroke="#1f7a4d" stroke-width="2.2" d="M716.67,-1359.47C725.19,-1334.3 726.76,-1287.22 721.38,-1253.98"/>
<polygon fill="#1f7a4d" stroke="#1f7a4d" stroke-width="2.2" points="724.21,-1253.88 719.92,-1246.56 718.71,-1254.95 724.21,-1253.88"/>
</g>
<!-- battchg_usb_in&#45;&gt;charger_reg -->
<!-- battchg_batt_in&#45;&gt;charger_reg -->
<!-- charger_reg&#45;&gt;batt_store -->
<g id="edge55" class="edge">
<title>charger_reg&#45;&gt;batt_store</title>
<path fill="none" stroke="#1f7a4d" stroke-width="2.2" d="M304.39,-1233.9C324.16,-1267.01 379,-1335.92 379,-1335.92 379,-1335.92 444,-1343.92 444,-1343.92 444,-1343.92 456.51,-1349.15 472.51,-1355.45"/>
<polygon fill="#1f7a4d" stroke="#1f7a4d" stroke-width="2.2" points="471.28,-1357.97 479.75,-1358.26 473.31,-1352.75 471.28,-1357.97"/>
</g>
<!-- charger_reg&#45;&gt;restore_power -->
<!-- protection_pc_out -->
<!-- protection_ina_out -->
<!-- protection_pc_out&#45;&gt;protection_ina_out -->
<!-- protection_pc_out&#45;&gt;restore_power -->
<!-- connector_terminal -->
<g id="node17" class="node">
<title>connector_terminal</title>
<polygon fill="#fff8bf" stroke="#d1b24a" stroke-width="2" points="765.84,-1010.49 658.16,-1010.49 658.16,-955.71 765.84,-955.71 765.84,-1010.49"/>
<text xml:space="preserve" text-anchor="middle" x="712" y="-984.75" font-family="Helvetica,sans-Serif" font-size="18.00">Connector</text>
<text xml:space="preserve" text-anchor="middle" x="712" y="-966" font-family="Helvetica,sans-Serif" font-size="18.00">Terminal</text>
</g>
<!-- protection_pc_out&#45;&gt;connector_terminal -->
<g id="edge72" class="edge">
<title>protection_pc_out:e&#45;&gt;connector_terminal:w</title>
<path fill="none" stroke="#e11d28" stroke-width="2.2" d="M232.56,-1079.12C234.55,-1074.49 236,-1071.11 236,-1071.11 236,-1071.11 639,-1063.12 639,-1063.12 639,-1063.12 657.16,-983.1 657.16,-983.1"/>
<text xml:space="preserve" text-anchor="middle" x="426.16" y="-1067.89" font-family="Helvetica,sans-Serif" font-size="15.00" fill="#e11d28">PC Out / GND</text>
</g>
<!-- protection_ina_out&#45;&gt;restore_power -->
<!-- ina_signal_in -->
<!-- protection_ina_out&#45;&gt;ina_signal_in -->
<g id="edge73" class="edge">
<title>protection_ina_out:s&#45;&gt;ina_signal_in:n</title>
<path fill="none" stroke="#e11d28" stroke-width="2.2" d="M262.28,-1079.12C264.42,-1074.52 266,-1071.11 266,-1071.11 266,-1071.11 423,-1063.12 423,-1063.12 423,-1063.12 425.78,-1048.63 428.94,-1032.11"/>
<text xml:space="preserve" text-anchor="middle" x="329.23" y="-1068.04" font-family="Helvetica,sans-Serif" font-size="15.00" fill="#e11d28">INA Out</text>
</g>
<!-- restore_power&#45;&gt;cut_off_power -->
<!-- ina_measure_v -->
<g id="node20" class="node">
<title>ina_measure_v</title>
<polygon fill="#bdfb9b" stroke="#166534" points="407.58,-1001.11 250.42,-1001.11 250.42,-965.08 407.58,-965.08 407.58,-1001.11"/>
<text xml:space="preserve" text-anchor="middle" x="329" y="-975.37" font-family="Helvetica,sans-Serif" font-size="18.00">Measure voltage</text>
</g>
<!-- restore_power&#45;&gt;ina_measure_v -->
<!-- cut_off_power&#45;&gt;protection_pc_out -->
<!-- regulator_out -->
<!-- regulator_out&#45;&gt;regulate_voltage -->
<!-- regulator_out&#45;&gt;connector_terminal -->
<!-- regulator_out&#45;&gt;connector_terminal -->
<g id="edge74" class="edge">
<title>regulator_out:s&#45;&gt;connector_terminal:n</title>
<path fill="none" stroke="#e11d28" stroke-width="2.2" d="M632.67,-1180.15C644.79,-1137.96 664,-1071.11 664,-1071.11 664,-1071.11 712,-1011.49 712,-1011.49"/>
<text xml:space="preserve" text-anchor="middle" x="606.78" y="-1090.35" font-family="Helvetica,sans-Serif" font-size="15.00" fill="#e11d28">5V / 3V3 / GND</text>
</g>
<!-- ina_measure_i -->
<g id="node21" class="node">
<title>ina_measure_i</title>
<polygon fill="#bdfb9b" stroke="#166534" points="623.84,-1001.11 468.17,-1001.11 468.17,-965.08 623.84,-965.08 623.84,-1001.11"/>
<text xml:space="preserve" text-anchor="middle" x="546" y="-975.37" font-family="Helvetica,sans-Serif" font-size="18.00">Measure current</text>
</g>
<!-- regulate_voltage&#45;&gt;ina_measure_i -->
<!-- xiao_collect -->
<g id="node33" class="node">
<title>xiao_collect</title>
<polygon fill="#bdfb9b" stroke="#166534" points="1141.46,-187.81 896.54,-187.81 896.54,-151.78 1141.46,-151.78 1141.46,-187.81"/>
<text xml:space="preserve" text-anchor="middle" x="1019" y="-162.07" font-family="Helvetica,sans-Serif" font-size="18.00">Collect PDS measurements</text>
</g>
<!-- regulate_voltage&#45;&gt;xiao_collect -->
<!-- ina_respond -->
<g id="node22" class="node">
<title>ina_respond</title>
<polygon fill="#bdfb9b" stroke="#166534" points="617.96,-890.71 388.04,-890.71 388.04,-854.68 617.96,-854.68 617.96,-890.71"/>
<text xml:space="preserve" text-anchor="middle" x="503" y="-864.97" font-family="Helvetica,sans-Serif" font-size="18.00">Respond to I2C Requests</text>
</g>
<!-- connector_terminal&#45;&gt;ina_respond -->
<!-- xiao_pwr_3v3 -->
<!-- connector_terminal&#45;&gt;xiao_pwr_3v3 -->
<!-- connector_terminal&#45;&gt;xiao_pwr_3v3 -->
<g id="edge75" class="edge">
<title>connector_terminal:s&#45;&gt;xiao_pwr_3v3:nw</title>
<path fill="none" stroke="#e11d28" stroke-width="2.2" d="M673,-830.68C673,-830.68 654,-822.68 654,-822.68"/>
<text xml:space="preserve" text-anchor="middle" x="627.12" y="-828.18" font-family="Helvetica,sans-Serif" font-size="15.00" fill="#e11d28">3V3 / GND</text>
</g>
<!-- xiao_pwr_5v -->
<!-- connector_terminal&#45;&gt;xiao_pwr_5v -->
<!-- connector_terminal&#45;&gt;xiao_pwr_5v -->
<g id="edge76" class="edge">
<title>connector_terminal:s&#45;&gt;xiao_pwr_5v:ne</title>
<path fill="none" stroke="#e11d28" stroke-width="2.2" d="M701,-830.68C701,-830.68 685,-822.68 685,-822.68"/>
<text xml:space="preserve" text-anchor="middle" x="660.75" y="-812.43" font-family="Helvetica,sans-Serif" font-size="15.00" fill="#e11d28">5V / GND</text>
</g>
<!-- xiao_get_init -->
<g id="node26" class="node">
<title>xiao_get_init</title>
<polygon fill="#bdfb9b" stroke="#166534" points="823.34,-760.68 730.66,-760.68 730.66,-687.15 823.34,-687.15 823.34,-760.68"/>
<text xml:space="preserve" text-anchor="middle" x="777" y="-734.94" font-family="Helvetica,sans-Serif" font-size="18.00">Get</text>
<text xml:space="preserve" text-anchor="middle" x="777" y="-716.19" font-family="Helvetica,sans-Serif" font-size="18.00">INA219</text>
<text xml:space="preserve" text-anchor="middle" x="777" y="-697.44" font-family="Helvetica,sans-Serif" font-size="18.00">init state</text>
</g>
<!-- connector_terminal&#45;&gt;xiao_get_init -->
<!-- ina_power_in -->
<!-- ina_power_in&#45;&gt;ina_measure_v -->
<!-- ina_signal_in&#45;&gt;ina_measure_i -->
<!-- ina_measure_v&#45;&gt;ina_measure_i -->
<!-- ina_measure_v&#45;&gt;ina_respond -->
<!-- ina_measure_v&#45;&gt;ina_respond -->
<g id="edge57" class="edge">
<title>ina_measure_v&#45;&gt;ina_respond</title>
<path fill="none" stroke="#1f7a4d" stroke-width="2.2" d="M365.48,-964.68C398.06,-946.43 444.6,-917.64 474.53,-897.34"/>
<polygon fill="#1f7a4d" stroke="#1f7a4d" stroke-width="2.2" points="475.89,-899.8 480.89,-892.96 472.71,-895.19 475.89,-899.8"/>
</g>
<!-- xiao_read_v -->
<g id="node29" class="node">
<title>xiao_read_v</title>
<polygon fill="#bdfb9b" stroke="#166534" points="983.09,-741.93 852.91,-741.93 852.91,-705.9 983.09,-705.9 983.09,-741.93"/>
<text xml:space="preserve" text-anchor="middle" x="918" y="-716.19" font-family="Helvetica,sans-Serif" font-size="18.00">Read voltage</text>
</g>
<!-- ina_measure_v&#45;&gt;xiao_read_v -->
<g id="edge68" class="edge">
<title>ina_measure_v&#45;&gt;xiao_read_v</title>
<path fill="none" stroke="#1f7a4d" stroke-width="2.2" d="M387.25,-964.59C475.53,-938.05 633,-890.71 633,-890.71 633,-890.71 838,-822.68 838,-822.68 838,-822.68 873.06,-779.84 896.76,-750.87"/>
<polygon fill="#1f7a4d" stroke="#1f7a4d" stroke-width="2.2" points="898.69,-752.93 901.59,-744.97 894.36,-749.39 898.69,-752.93"/>
</g>
<!-- ina_measure_i&#45;&gt;ina_respond -->
<!-- ina_measure_i&#45;&gt;ina_respond -->
<g id="edge58" class="edge">
<title>ina_measure_i&#45;&gt;ina_respond</title>
<path fill="none" stroke="#1f7a4d" stroke-width="2.2" d="M547.62,-964.68C543.88,-947.46 533.78,-920.84 523.67,-900.84"/>
<polygon fill="#1f7a4d" stroke="#1f7a4d" stroke-width="2.2" points="526.24,-899.72 519.99,-894 521.31,-902.37 526.24,-899.72"/>
</g>
<!-- xiao_read_i -->
<g id="node30" class="node">
<title>xiao_read_i</title>
<polygon fill="#bdfb9b" stroke="#166534" points="1141.34,-741.93 1012.66,-741.93 1012.66,-705.9 1141.34,-705.9 1141.34,-741.93"/>
<text xml:space="preserve" text-anchor="middle" x="1077" y="-716.19" font-family="Helvetica,sans-Serif" font-size="18.00">Read current</text>
</g>
<!-- ina_measure_i&#45;&gt;xiao_read_i -->
<g id="edge69" class="edge">
<title>ina_measure_i&#45;&gt;xiao_read_i</title>
<path fill="none" stroke="#1f7a4d" stroke-width="2.2" d="M600.24,-964.64C615.49,-959.74 628,-955.71 628,-955.71 628,-955.71 871,-890.71 871,-890.71 871,-890.71 998,-822.68 998,-822.68 998,-822.68 1032.62,-779.84 1056.02,-750.87"/>
<polygon fill="#1f7a4d" stroke="#1f7a4d" stroke-width="2.2" points="1057.93,-752.97 1060.78,-744.98 1053.58,-749.45 1057.93,-752.97"/>
</g>
<!-- ina_respond&#45;&gt;xiao_read_v -->
<!-- xiao_i2c_port -->
<!-- xiao_i2c_port&#45;&gt;xiao_get_init -->
<!-- xiao_pwr_3v3&#45;&gt;xiao_get_init -->
<!-- xiao_pwr_5v&#45;&gt;xiao_read_i -->
<!-- xiao_get_init&#45;&gt;ina_respond -->
<g id="edge65" class="edge">
<title>xiao_get_init&#45;&gt;ina_respond</title>
<path fill="none" stroke="#1f7a4d" stroke-width="2.2" d="M754.09,-761.04C736.43,-788.89 715,-822.68 715,-822.68 715,-822.68 648.11,-838.15 589.47,-851.7"/>
<polygon fill="#1f7a4d" stroke="#1f7a4d" stroke-width="2.2" points="589.05,-848.93 581.88,-853.46 590.31,-854.38 589.05,-848.93"/>
<text xml:space="preserve" text-anchor="middle" x="655.92" y="-830.47" font-family="Helvetica,sans-Serif" font-size="15.00" fill="#1f7a4d">[I2C Req]</text>
</g>
<!-- xiao_collect_init -->
<g id="node27" class="node">
<title>xiao_collect_init</title>
<polygon fill="#bdfb9b" stroke="#166534" points="819.84,-622.15 688.16,-622.15 688.16,-548.62 819.84,-548.62 819.84,-622.15"/>
<text xml:space="preserve" text-anchor="middle" x="754" y="-596.41" font-family="Helvetica,sans-Serif" font-size="18.00">Collect</text>
<text xml:space="preserve" text-anchor="middle" x="754" y="-577.66" font-family="Helvetica,sans-Serif" font-size="18.00">peripheral init</text>
<text xml:space="preserve" text-anchor="middle" x="754" y="-558.91" font-family="Helvetica,sans-Serif" font-size="18.00">states</text>
</g>
<!-- xiao_get_init&#45;&gt;xiao_collect_init -->
<!-- xiao_get_init&#45;&gt;xiao_collect_init -->
<g id="edge59" class="edge">
<title>xiao_get_init&#45;&gt;xiao_collect_init</title>
<path fill="none" stroke="#1f7a4d" stroke-width="2.2" d="M780.96,-686.69C779.5,-670.2 776.4,-650.49 772.57,-632.92"/>
<polygon fill="#1f7a4d" stroke="#1f7a4d" stroke-width="2.2" points="775.39,-632.71 770.85,-625.55 769.94,-633.98 775.39,-632.71"/>
<text xml:space="preserve" text-anchor="middle" x="751.27" y="-661.3" font-family="Helvetica,sans-Serif" font-size="15.00" fill="#1f7a4d">[Result]</text>
</g>
<!-- xiao_init_bus -->
<g id="node28" class="node">
<title>xiao_init_bus</title>
<polygon fill="#bdfb9b" stroke="#166534" points="823.21,-464.87 678.79,-464.87 678.79,-410.09 823.21,-410.09 823.21,-464.87"/>
<text xml:space="preserve" text-anchor="middle" x="751" y="-439.13" font-family="Helvetica,sans-Serif" font-size="18.00">Init Serial0 and</text>
<text xml:space="preserve" text-anchor="middle" x="751" y="-420.38" font-family="Helvetica,sans-Serif" font-size="18.00">I2C</text>
</g>
<!-- xiao_collect_init&#45;&gt;xiao_init_bus -->
<!-- xiao_read_v&#45;&gt;ina_respond -->
<g id="edge66" class="edge">
<title>xiao_read_v&#45;&gt;ina_respond</title>
<path fill="none" stroke="#1f7a4d" stroke-width="2.2" d="M894.54,-742.39C865.69,-770.51 823,-822.68 823,-822.68 823,-822.68 712.87,-838.79 621.72,-852.54"/>
<polygon fill="#1f7a4d" stroke="#1f7a4d" stroke-width="2.2" points="621.49,-849.75 614,-853.71 622.33,-855.28 621.49,-849.75"/>
<text xml:space="preserve" text-anchor="middle" x="743.67" y="-831.22" font-family="Helvetica,sans-Serif" font-size="15.00" fill="#1f7a4d">[I2C Req]</text>
</g>
<!-- xiao_process_v -->
<g id="node31" class="node">
<title>xiao_process_v</title>
<polygon fill="#bdfb9b" stroke="#166534" points="963.21,-464.87 872.79,-464.87 872.79,-410.09 963.21,-410.09 963.21,-464.87"/>
<text xml:space="preserve" text-anchor="middle" x="918" y="-439.13" font-family="Helvetica,sans-Serif" font-size="18.00">Process</text>
<text xml:space="preserve" text-anchor="middle" x="918" y="-420.38" font-family="Helvetica,sans-Serif" font-size="18.00">voltage</text>
</g>
<!-- xiao_read_v&#45;&gt;xiao_process_v -->
<!-- xiao_read_v&#45;&gt;xiao_process_v -->
<g id="edge60" class="edge">
<title>xiao_read_v&#45;&gt;xiao_process_v</title>
<path fill="none" stroke="#1f7a4d" stroke-width="2.2" d="M923.75,-705.55C930.26,-660.45 930.99,-538.79 925.95,-476.44"/>
<polygon fill="#1f7a4d" stroke="#1f7a4d" stroke-width="2.2" points="928.74,-476.19 925.21,-468.48 923.16,-476.71 928.74,-476.19"/>
</g>
<!-- xiao_read_i&#45;&gt;ina_respond -->
<g id="edge67" class="edge">
<title>xiao_read_i&#45;&gt;ina_respond</title>
<path fill="none" stroke="#1f7a4d" stroke-width="2.2" d="M1062.88,-742.39C1040.15,-770.51 998,-822.68 998,-822.68 998,-822.68 775.95,-844.67 629.29,-859.19"/>
<polygon fill="#1f7a4d" stroke="#1f7a4d" stroke-width="2.2" points="629.43,-856.36 621.74,-859.94 629.98,-861.93 629.43,-856.36"/>
<text xml:space="preserve" text-anchor="middle" x="833.13" y="-837.35" font-family="Helvetica,sans-Serif" font-size="15.00" fill="#1f7a4d">[I2C Req]</text>
</g>
<!-- xiao_process_i -->
<g id="node32" class="node">
<title>xiao_process_i</title>
<polygon fill="#bdfb9b" stroke="#166534" points="1122.21,-464.87 1031.79,-464.87 1031.79,-410.09 1122.21,-410.09 1122.21,-464.87"/>
<text xml:space="preserve" text-anchor="middle" x="1077" y="-439.13" font-family="Helvetica,sans-Serif" font-size="18.00">Process</text>
<text xml:space="preserve" text-anchor="middle" x="1077" y="-420.38" font-family="Helvetica,sans-Serif" font-size="18.00">current</text>
</g>
<!-- xiao_read_i&#45;&gt;xiao_process_i -->
<!-- xiao_read_i&#45;&gt;xiao_process_i -->
<g id="edge61" class="edge">
<title>xiao_read_i&#45;&gt;xiao_process_i</title>
<path fill="none" stroke="#1f7a4d" stroke-width="2.2" d="M1082.75,-705.55C1089.26,-660.45 1089.99,-538.79 1084.95,-476.44"/>
<polygon fill="#1f7a4d" stroke="#1f7a4d" stroke-width="2.2" points="1087.74,-476.19 1084.21,-468.48 1082.16,-476.71 1087.74,-476.19"/>
</g>
<!-- note_vgt -->
<g id="node37" class="node">
<title>note_vgt</title>
<polygon fill="#fff5b0" stroke="#d1b24a" points="1515.46,-483.62 1216.54,-483.62 1216.54,-391.34 1515.46,-391.34 1515.46,-483.62"/>
<text xml:space="preserve" text-anchor="middle" x="1366" y="-457.88" font-family="Helvetica,sans-Serif" font-size="18.00">All pairs of (Read X, Process X) or</text>
<text xml:space="preserve" text-anchor="middle" x="1366" y="-439.13" font-family="Helvetica,sans-Serif" font-size="18.00">(Read X, Calculate Y) must be</text>
<text xml:space="preserve" text-anchor="middle" x="1366" y="-420.38" font-family="Helvetica,sans-Serif" font-size="18.00">implemented as a Variable Getter</text>
<text xml:space="preserve" text-anchor="middle" x="1366" y="-401.63" font-family="Helvetica,sans-Serif" font-size="18.00">Template</text>
</g>
<!-- xiao_read_i&#45;&gt;note_vgt -->
<!-- xiao_process_v&#45;&gt;xiao_collect -->
<!-- xiao_process_v&#45;&gt;xiao_collect -->
<g id="edge62" class="edge">
<title>xiao_process_v&#45;&gt;xiao_collect</title>
<path fill="none" stroke="#1f7a4d" stroke-width="2.2" d="M935.13,-410.03C959.8,-359.64 1001.42,-250.28 1015.61,-198.74"/>
<polygon fill="#1f7a4d" stroke="#1f7a4d" stroke-width="2.2" points="1018.24,-199.76 1017.51,-191.32 1012.81,-198.37 1018.24,-199.76"/>
<text xml:space="preserve" text-anchor="middle" x="949.87" y="-305.89" font-family="Helvetica,sans-Serif" font-size="15.00" fill="#1f7a4d">[Result]</text>
</g>
<!-- xiao_process_i&#45;&gt;xiao_collect -->
<!-- xiao_process_i&#45;&gt;xiao_collect -->
<g id="edge63" class="edge">
<title>xiao_process_i&#45;&gt;xiao_collect</title>
<path fill="none" stroke="#1f7a4d" stroke-width="2.2" d="M1078.3,-410.03C1072.81,-359.64 1048.99,-250.28 1032.33,-198.74"/>
<polygon fill="#1f7a4d" stroke="#1f7a4d" stroke-width="2.2" points="1035.01,-197.9 1029.77,-191.24 1029.71,-199.72 1035.01,-197.9"/>
<text xml:space="preserve" text-anchor="middle" x="1029.82" y="-305.89" font-family="Helvetica,sans-Serif" font-size="15.00" fill="#1f7a4d">[Result]</text>
</g>
<!-- xiao_log -->
<g id="node34" class="node">
<title>xiao_log</title>
<polygon fill="#bdfb9b" stroke="#166534" points="1140.96,-68.03 875.04,-68.03 875.04,-32 1140.96,-32 1140.96,-68.03"/>
<text xml:space="preserve" text-anchor="middle" x="1008" y="-42.29" font-family="Helvetica,sans-Serif" font-size="18.00">Log measurements via Serial0</text>
</g>
<!-- xiao_collect&#45;&gt;xiao_log -->
<!-- xiao_collect&#45;&gt;xiao_log -->
<g id="edge64" class="edge">
<title>xiao_collect&#45;&gt;xiao_log</title>
<path fill="none" stroke="#1f7a4d" stroke-width="2.2" d="M1025.64,-151.42C1027.26,-132.45 1024.9,-101.81 1020.43,-79.35"/>
<polygon fill="#1f7a4d" stroke="#1f7a4d" stroke-width="2.2" points="1023.19,-78.87 1018.65,-71.71 1017.73,-80.13 1023.19,-78.87"/>
<text xml:space="preserve" text-anchor="middle" x="976.91" y="-116.89" font-family="Helvetica,sans-Serif" font-size="15.00" fill="#1f7a4d">[LoRa Frame]</text>
</g>
<!-- note_nb -->
<g id="node35" class="node">
<title>note_nb</title>
<polygon fill="#fff5b0" stroke="#d1b24a" points="1482.84,-760.68 1249.16,-760.68 1249.16,-687.15 1482.84,-687.15 1482.84,-760.68"/>
<text xml:space="preserve" text-anchor="middle" x="1366" y="-734.94" font-family="Helvetica,sans-Serif" font-size="18.00">No blocking</text>
<text xml:space="preserve" text-anchor="middle" x="1366" y="-716.19" font-family="Helvetica,sans-Serif" font-size="18.00">{c} operations besides I2C</text>
<text xml:space="preserve" text-anchor="middle" x="1366" y="-697.44" font-family="Helvetica,sans-Serif" font-size="18.00">or UART comms</text>
</g>
<!-- note_nb&#45;&gt;xiao_read_v -->
<g id="edge77" class="edge">
<title>note_nb&#45;&gt;xiao_read_v</title>
<path fill="none" stroke="#333333" stroke-width="2.2" stroke-dasharray="5,2" d="M1295.95,-761.11C1243.22,-789.11 1180,-822.68 1180,-822.68 1180,-822.68 1165,-826.68 1165,-826.68 1165,-826.68 1013,-826.68 1013,-826.68 1013,-826.68 998,-822.68 998,-822.68 998,-822.68 963.32,-779.86 939.62,-750.61"/>
<polygon fill="#333333" stroke="#333333" stroke-width="2.2" points="941.98,-749.07 934.77,-744.62 937.63,-752.6 941.98,-749.07"/>
</g>
<!-- note_nb&#45;&gt;xiao_read_i -->
<g id="edge78" class="edge">
<title>note_nb&#45;&gt;xiao_read_i</title>
<path fill="none" stroke="#333333" stroke-width="2.2" stroke-dasharray="5,2" d="M1248.76,-723.91C1220.43,-723.91 1173.33,-723.91 1173.33,-723.91 1173.33,-723.91 1164.89,-723.91 1153,-723.91"/>
<polygon fill="#333333" stroke="#333333" stroke-width="2.2" points="1153.12,-721.12 1145.12,-723.92 1153.12,-726.72 1153.12,-721.12"/>
</g>
<!-- note_to -->
<g id="node36" class="node">
<title>note_to</title>
<polygon fill="#fff5b0" stroke="#d1b24a" points="1467.09,-622.15 1264.91,-622.15 1264.91,-548.62 1467.09,-548.62 1467.09,-622.15"/>
<text xml:space="preserve" text-anchor="middle" x="1366" y="-596.41" font-family="Helvetica,sans-Serif" font-size="18.00">All I2C Read functions</text>
<text xml:space="preserve" text-anchor="middle" x="1366" y="-577.66" font-family="Helvetica,sans-Serif" font-size="18.00">{c} must have a max.</text>
<text xml:space="preserve" text-anchor="middle" x="1366" y="-558.91" font-family="Helvetica,sans-Serif" font-size="18.00">timeout of 5 ms</text>
</g>
<!-- note_nb&#45;&gt;note_to -->
<!-- note_to&#45;&gt;xiao_read_v -->
<g id="edge79" class="edge">
<title>note_to&#45;&gt;xiao_read_v</title>
<path fill="none" stroke="#333333" stroke-width="2.2" stroke-dasharray="5,2" d="M1264.47,-614.19C1155.54,-644.01 998,-687.15 998,-687.15 998,-687.15 983.58,-693.59 966.99,-701.01"/>
<polygon fill="#333333" stroke="#333333" stroke-width="2.2" points="966.26,-698.27 960.1,-704.09 968.55,-703.38 966.26,-698.27"/>
</g>
<!-- note_to&#45;&gt;xiao_read_i -->
<g id="edge80" class="edge">
<title>note_to&#45;&gt;xiao_read_i</title>
<path fill="none" stroke="#333333" stroke-width="2.2" stroke-dasharray="5,2" d="M1289.51,-622.52C1236.88,-647.38 1168.67,-679.61 1123.91,-700.75"/>
<polygon fill="#333333" stroke="#333333" stroke-width="2.2" points="1122.94,-698.11 1116.91,-704.06 1125.34,-703.18 1122.94,-698.11"/>
</g>
<!-- note_to&#45;&gt;note_vgt -->
<!-- note_vgt&#45;&gt;xiao_process_v -->
<g id="edge81" class="edge">
<title>note_vgt&#45;&gt;xiao_process_v</title>
<path fill="none" stroke="#333333" stroke-width="2.2" stroke-dasharray="5,2" d="M1247.04,-484.02C1203.64,-501 1165,-516.12 1165,-516.12 1165,-516.12 1032,-516.12 1032,-516.12 1032,-516.12 998.05,-492.7 967.2,-471.42"/>
<polygon fill="#333333" stroke="#333333" stroke-width="2.2" points="969.11,-469.33 960.93,-467.1 965.93,-473.94 969.11,-469.33"/>
</g>
<!-- note_vgt&#45;&gt;xiao_process_i -->
<g id="edge82" class="edge">
<title>note_vgt&#45;&gt;xiao_process_i</title>
<path fill="none" stroke="#333333" stroke-width="2.2" stroke-dasharray="5,2" d="M1216.15,-437.48C1193.97,-437.48 1173.33,-437.48 1173.33,-437.48 1173.33,-437.48 1154.62,-437.48 1133.69,-437.48"/>
<polygon fill="#333333" stroke="#333333" stroke-width="2.2" points="1133.96,-434.68 1125.96,-437.48 1133.96,-440.28 1133.96,-434.68"/>
</g>
<!-- note_proc -->
<g id="node38" class="node">
<title>note_proc</title>
<polygon fill="#fff5b0" stroke="#d1b24a" points="1487.71,-326.34 1244.29,-326.34 1244.29,-252.81 1487.71,-252.81 1487.71,-326.34"/>
<text xml:space="preserve" text-anchor="middle" x="1366" y="-300.6" font-family="Helvetica,sans-Serif" font-size="18.00">All Process or Calculate</text>
<text xml:space="preserve" text-anchor="middle" x="1366" y="-281.85" font-family="Helvetica,sans-Serif" font-size="18.00">{c} functions must take less</text>
<text xml:space="preserve" text-anchor="middle" x="1366" y="-263.1" font-family="Helvetica,sans-Serif" font-size="18.00">than 5ms</text>
</g>
<!-- note_vgt&#45;&gt;note_proc -->
<!-- note_proc&#45;&gt;xiao_process_i -->
<g id="edge83" class="edge">
<title>note_proc&#45;&gt;xiao_process_i</title>
<path fill="none" stroke="#333333" stroke-width="2.2" stroke-dasharray="5,2" d="M1294.35,-326.75C1244.36,-351.99 1178.61,-385.18 1132.57,-408.43"/>
<polygon fill="#333333" stroke="#333333" stroke-width="2.2" points="1131.33,-405.92 1125.45,-412.02 1133.85,-410.92 1131.33,-405.92"/>
</g>
<!-- note_5hz -->
<g id="node39" class="node">
<title>note_5hz</title>
<polygon fill="#fff5b0" stroke="#d1b24a" points="1420.96,-187.81 1311.04,-187.81 1311.04,-151.78 1420.96,-151.78 1420.96,-187.81"/>
<text xml:space="preserve" text-anchor="middle" x="1366" y="-162.07" font-family="Helvetica,sans-Serif" font-size="18.00">{c} At 5 Hz</text>
</g>
<!-- note_proc&#45;&gt;note_5hz -->
<!-- note_5hz&#45;&gt;xiao_collect -->
<g id="edge84" class="edge">
<title>note_5hz&#45;&gt;xiao_collect</title>
<path fill="none" stroke="#333333" stroke-width="2.2" stroke-dasharray="5,2" d="M1310.88,-169.8C1281.09,-169.8 1250.33,-169.8 1250.33,-169.8 1250.33,-169.8 1185.56,-169.8 1152.96,-169.8"/>
<polygon fill="#333333" stroke="#333333" stroke-width="2.2" points="1153.23,-167 1145.23,-169.8 1153.23,-172.6 1153.23,-167"/>
</g>
<!-- note_zero -->
<g id="node40" class="node">
<title>note_zero</title>
<polygon fill="#fff5b0" stroke="#d1b24a" points="1438.21,-86.78 1293.79,-86.78 1293.79,-13.25 1438.21,-13.25 1438.21,-86.78"/>
<text xml:space="preserve" text-anchor="middle" x="1366" y="-61.04" font-family="Helvetica,sans-Serif" font-size="18.00">Set unused</text>
<text xml:space="preserve" text-anchor="middle" x="1366" y="-42.29" font-family="Helvetica,sans-Serif" font-size="18.00">{c} frame fields</text>
<text xml:space="preserve" text-anchor="middle" x="1366" y="-23.54" font-family="Helvetica,sans-Serif" font-size="18.00">to 0</text>
</g>
<!-- note_5hz&#45;&gt;note_zero -->
<!-- note_zero&#45;&gt;xiao_collect -->
<g id="edge85" class="edge">
<title>note_zero&#45;&gt;xiao_collect</title>
<path fill="none" stroke="#333333" stroke-width="2.2" stroke-dasharray="5,2" d="M1293.59,-75.59C1230.69,-96.94 1140.59,-127.53 1080.97,-147.76"/>
<polygon fill="#333333" stroke="#333333" stroke-width="2.2" points="1080.4,-145 1073.73,-150.22 1082.2,-150.3 1080.4,-145"/>
</g>
</g>
</svg>
