<?xml version="1.0" encoding="UTF-8" standalone="no"?>
<!DOCTYPE svg PUBLIC "-//W3C//DTD SVG 1.1//EN"
 "http://www.w3.org/Graphics/SVG/1.1/DTD/svg11.dtd">
<!-- Generated by graphviz version 14.1.4 (20260321.0153)
 -->
<!-- Title: PDS_v0_2 Pages: 1 -->
<svg width="1739pt" height="1453pt"
 viewBox="0.00 0.00 1739.00 1453.00" xmlns="http://www.w3.org/2000/svg" xmlns:xlink="http://www.w3.org/1999/xlink">
<g id="graph0" class="graph" transform="scale(1 1) rotate(0) translate(20.16 1432.52)">
<title>PDS_v0_2</title>
<polygon fill="white" stroke="none" points="-20.16,20.16 -20.16,-1432.52 1718.62,-1432.52 1718.62,20.16 -20.16,20.16"/>
<g id="clust1" class="cluster">
<title>cluster_charger</title>
<path fill="#bfeaf4" stroke="#5b65c9" stroke-width="2" d="M36,-1226.89C36,-1226.89 168,-1226.89 168,-1226.89 174,-1226.89 180,-1232.89 180,-1238.89 180,-1238.89 180,-1392.36 180,-1392.36 180,-1398.36 174,-1404.36 168,-1404.36 168,-1404.36 36,-1404.36 36,-1404.36 30,-1404.36 24,-1398.36 24,-1392.36 24,-1392.36 24,-1238.89 24,-1238.89 24,-1232.89 30,-1226.89 36,-1226.89"/>
<text xml:space="preserve" text-anchor="middle" x="102" y="-1387.06" font-family="Helvetica,sans-Serif" font-size="14.00">Charger</text>
</g>
<g id="clust2" class="cluster">
<title>cluster_user</title>
<path fill="#bfeaf4" stroke="#5b65c9" stroke-width="2" d="M20,-954.08C20,-954.08 168,-954.08 168,-954.08 174,-954.08 180,-960.08 180,-966.08 180,-966.08 180,-1127.52 180,-1127.52 180,-1133.52 174,-1139.52 168,-1139.52 168,-1139.52 20,-1139.52 20,-1139.52 14,-1139.52 8,-1133.52 8,-1127.52 8,-1127.52 8,-966.08 8,-966.08 8,-960.08 14,-954.08 20,-954.08"/>
<text xml:space="preserve" text-anchor="middle" x="94" y="-1122.22" font-family="Helvetica,sans-Serif" font-size="14.00">User</text>
</g>
<g id="clust3" class="cluster">
<title>cluster_pds</title>
<path fill="#d9d9d9" stroke="#888888" stroke-width="2" d="M200,-8C200,-8 1352,-8 1352,-8 1358,-8 1364,-14 1364,-20 1364,-20 1364,-1351.92 1364,-1351.92 1364,-1357.92 1358,-1363.92 1352,-1363.92 1352,-1363.92 200,-1363.92 200,-1363.92 194,-1363.92 188,-1357.92 188,-1351.92 188,-1351.92 188,-20 188,-20 188,-14 194,-8 200,-8"/>
<text xml:space="preserve" text-anchor="middle" x="776" y="-1346.62" font-family="Helvetica,sans-Serif" font-size="14.00">PDS v0.2&#45;0.3 Subsystem</text>
</g>
<g id="clust4" class="cluster">
<title>cluster_battpack</title>
<polygon fill="#fff8bf" stroke="#d1b24a" stroke-width="2" points="397,-1218.89 397,-1332.92 779,-1332.92 779,-1218.89 397,-1218.89"/>
<text xml:space="preserve" text-anchor="middle" x="588" y="-1315.62" font-family="Helvetica,sans-Serif" font-size="14.00">1S1P Li&#45;Ion</text>
</g>
<g id="clust5" class="cluster">
<title>cluster_battery</title>
<path fill="#a9c7e6" stroke="#5b65c9" stroke-width="2" d="M417,-1226.89C417,-1226.89 737,-1226.89 737,-1226.89 743,-1226.89 749,-1232.89 749,-1238.89 749,-1238.89 749,-1289.92 749,-1289.92 749,-1295.92 743,-1301.92 737,-1301.92 737,-1301.92 417,-1301.92 417,-1301.92 411,-1301.92 405,-1295.92 405,-1289.92 405,-1289.92 405,-1238.89 405,-1238.89 405,-1232.89 411,-1226.89 417,-1226.89"/>
<text xml:space="preserve" text-anchor="middle" x="577" y="-1284.62" font-family="Helvetica,sans-Serif" font-size="14.00">Battery</text>
</g>
<g id="clust6" class="cluster">
<title>cluster_board</title>
<polygon fill="#fff8bf" stroke="#d1b24a" stroke-width="2" points="196,-543.37 196,-1210.89 797,-1210.89 797,-543.37 196,-543.37"/>
<text xml:space="preserve" text-anchor="middle" x="496.5" y="-1193.6" font-family="Helvetica,sans-Serif" font-size="14.00">PDS Circuitboard</text>
</g>
<g id="clust7" class="cluster">
<title>cluster_protection</title>
<polygon fill="#fff8bf" stroke="#d1b24a" stroke-width="2" points="204,-946.08 204,-1170.52 599,-1170.52 599,-946.08 204,-946.08"/>
<text xml:space="preserve" text-anchor="middle" x="401.5" y="-1153.22" font-family="Helvetica,sans-Serif" font-size="14.00">Protection Circuit</text>
</g>
<g id="clust8" class="cluster">
<title>cluster_batt_charger</title>
<path fill="#a9c7e6" stroke="#5b65c9" stroke-width="2" d="M224,-1064.49C224,-1064.49 436,-1064.49 436,-1064.49 442,-1064.49 448,-1070.49 448,-1076.49 448,-1076.49 448,-1127.52 448,-1127.52 448,-1133.52 442,-1139.52 436,-1139.52 436,-1139.52 224,-1139.52 224,-1139.52 218,-1139.52 212,-1133.52 212,-1127.52 212,-1127.52 212,-1076.49 212,-1076.49 212,-1070.49 218,-1064.49 224,-1064.49"/>
<text xml:space="preserve" text-anchor="middle" x="330" y="-1122.22" font-family="Helvetica,sans-Serif" font-size="14.00">Battery Charger</text>
</g>
<g id="clust9" class="cluster">
<title>cluster_power_protection</title>
<path fill="#a9c7e6" stroke="#5b65c9" stroke-width="2" d="M224,-954.08C224,-954.08 579,-954.08 579,-954.08 585,-954.08 591,-960.08 591,-966.08 591,-966.08 591,-1017.11 591,-1017.11 591,-1023.11 585,-1029.11 579,-1029.11 579,-1029.11 224,-1029.11 224,-1029.11 218,-1029.11 212,-1023.11 212,-1017.11 212,-1017.11 212,-966.08 212,-966.08 212,-960.08 218,-954.08 224,-954.08"/>
<text xml:space="preserve" text-anchor="middle" x="401.5" y="-1011.81" font-family="Helvetica,sans-Serif" font-size="14.00">Power Protection</text>
</g>
<g id="clust10" class="cluster">
<title>cluster_regulator_block</title>
<polygon fill="#fff8bf" stroke="#d1b24a" stroke-width="2" points="607,-1047.11 607,-1179.89 789,-1179.89 789,-1047.11 607,-1047.11"/>
<text xml:space="preserve" text-anchor="middle" x="698" y="-1162.6" font-family="Helvetica,sans-Serif" font-size="14.00">Regulator</text>
</g>
<g id="clust11" class="cluster">
<title>cluster_regulator</title>
<path fill="#a9c7e6" stroke="#5b65c9" stroke-width="2" d="M627,-1055.11C627,-1055.11 746,-1055.11 746,-1055.11 752,-1055.11 758,-1061.11 758,-1067.11 758,-1067.11 758,-1136.89 758,-1136.89 758,-1142.89 752,-1148.89 746,-1148.89 746,-1148.89 627,-1148.89 627,-1148.89 621,-1148.89 615,-1142.89 615,-1136.89 615,-1136.89 615,-1067.11 615,-1067.11 615,-1061.11 621,-1055.11 627,-1055.11"/>
<text xml:space="preserve" text-anchor="middle" x="686.5" y="-1131.6" font-family="Helvetica,sans-Serif" font-size="14.00">Regulator</text>
</g>
<g id="clust12" class="cluster">
<title>cluster_ina219</title>
<polygon fill="#fff8bf" stroke="#d1b24a" stroke-width="2" points="231,-551.37 231,-938.08 667,-938.08 667,-551.37 231,-551.37"/>
<text xml:space="preserve" text-anchor="middle" x="449" y="-920.78" font-family="Helvetica,sans-Serif" font-size="14.00">INA219</text>
</g>
<g id="clust13" class="cluster">
<title>cluster_batt_monitoring</title>
<path fill="#a9c7e6" stroke="#5b65c9" stroke-width="2" d="M251,-559.37C251,-559.37 647,-559.37 647,-559.37 653,-559.37 659,-565.37 659,-571.37 659,-571.37 659,-895.08 659,-895.08 659,-901.08 653,-907.08 647,-907.08 647,-907.08 251,-907.08 251,-907.08 245,-907.08 239,-901.08 239,-895.08 239,-895.08 239,-571.37 239,-571.37 239,-565.37 245,-559.37 251,-559.37"/>
<text xml:space="preserve" text-anchor="middle" x="449" y="-889.78" font-family="Helvetica,sans-Serif" font-size="14.00">Battery monitoring</text>
</g>
<g id="clust14" class="cluster">
<title>cluster_xiao</title>
<polygon fill="#fff8bf" stroke="#d1b24a" stroke-width="2" points="805,-16 805,-822.68 1340,-822.68 1340,-16 805,-16"/>
<text xml:space="preserve" text-anchor="middle" x="1072.5" y="-805.38" font-family="Helvetica,sans-Serif" font-size="14.00">XIAO ESP32&#45;S3</text>
</g>
<g id="clust15" class="cluster">
<title>cluster_setup</title>
<path fill="#a9c7e6" stroke="#5b65c9" stroke-width="2" d="M825,-402.09C825,-402.09 1002,-402.09 1002,-402.09 1008,-402.09 1014,-408.09 1014,-414.09 1014,-414.09 1014,-779.68 1014,-779.68 1014,-785.68 1008,-791.68 1002,-791.68 1002,-791.68 825,-791.68 825,-791.68 819,-791.68 813,-785.68 813,-779.68 813,-779.68 813,-414.09 813,-414.09 813,-408.09 819,-402.09 825,-402.09"/>
<text xml:space="preserve" text-anchor="middle" x="913.5" y="-774.38" font-family="Helvetica,sans-Serif" font-size="14.00">Setup</text>
</g>
<g id="clust16" class="cluster">
<title>cluster_loop</title>
<path fill="#a9c7e6" stroke="#5b65c9" stroke-width="2" d="M1040,-24C1040,-24 1320,-24 1320,-24 1326,-24 1332,-30 1332,-36 1332,-36 1332,-760.93 1332,-760.93 1332,-766.93 1326,-772.93 1320,-772.93 1320,-772.93 1040,-772.93 1040,-772.93 1034,-772.93 1028,-766.93 1028,-760.93 1028,-760.93 1028,-36 1028,-36 1028,-30 1034,-24 1040,-24"/>
<text xml:space="preserve" text-anchor="middle" x="1180" y="-755.63" font-family="Helvetica,sans-Serif" font-size="14.00">Loop</text>
</g>
<!-- charger_usb -->
<!-- charger_power -->
<g id="node2" class="node">
<title>charger_power</title>
<polygon fill="#bdfb9b" stroke="#166534" points="171.58,-1270.92 32.42,-1270.92 32.42,-1234.89 171.58,-1234.89 171.58,-1270.92"/>
<text xml:space="preserve" text-anchor="middle" x="102" y="-1245.18" font-family="Helvetica,sans-Serif" font-size="18.00">Provide power</text>
</g>
<!-- charger_usb&#45;&gt;charger_power -->
<!-- protection_usb_anchor -->
<!-- charger_usb&#45;&gt;protection_usb_anchor -->
<!-- charger_usb&#45;&gt;protection_usb_anchor -->
<g id="edge79" class="edge">
<title>charger_usb:e&#45;&gt;protection_usb_anchor:w</title>
<path fill="none" stroke="#e11d28" stroke-width="2.2" d="M180,-1372.09C203.01,-1370.17 278,-1363.92 278,-1363.92 278,-1363.92 398,-1218.89 398,-1218.89 398,-1218.89 455,-1210.89 455,-1210.89 455,-1210.89 457.21,-1192.73 459.91,-1170.52"/>
<text xml:space="preserve" text-anchor="middle" x="293.71" y="-1292.95" font-family="Helvetica,sans-Serif" font-size="15.00" fill="#e11d28">USB&#45;C Cable</text>
</g>
<!-- user_on -->
<g id="node3" class="node">
<title>user_on</title>
<polygon fill="#bdfb9b" stroke="#166534" points="172.21,-1108.52 15.79,-1108.52 15.79,-1072.49 172.21,-1072.49 172.21,-1108.52"/>
<text xml:space="preserve" text-anchor="middle" x="94" y="-1082.78" font-family="Helvetica,sans-Serif" font-size="18.00">Switch power on</text>
</g>
<!-- charger_power&#45;&gt;user_on -->
<!-- charger_reg -->
<g id="node13" class="node">
<title>charger_reg</title>
<polygon fill="#bdfb9b" stroke="#166534" points="378.33,-1108.52 219.67,-1108.52 219.67,-1072.49 378.33,-1072.49 378.33,-1108.52"/>
<text xml:space="preserve" text-anchor="middle" x="299" y="-1082.78" font-family="Helvetica,sans-Serif" font-size="18.00">Regulate voltage</text>
</g>
<!-- charger_power&#45;&gt;charger_reg -->
<!-- charger_power&#45;&gt;charger_reg -->
<g id="edge65" class="edge">
<title>charger_power&#45;&gt;charger_reg</title>
<path fill="none" stroke="#1f7a4d" stroke-width="2.2" d="M150.81,-1234.4C176.4,-1223.25 202,-1210.89 202,-1210.89 202,-1210.89 256.48,-1152.82 284.36,-1117.68"/>
<polygon fill="#1f7a4d" stroke="#1f7a4d" stroke-width="2.2" points="286.45,-1119.55 289.11,-1111.5 282.01,-1116.14 286.45,-1119.55"/>
</g>
<!-- user_off -->
<g id="node4" class="node">
<title>user_off</title>
<polygon fill="#bdfb9b" stroke="#166534" points="171.83,-998.11 16.17,-998.11 16.17,-962.08 171.83,-962.08 171.83,-998.11"/>
<text xml:space="preserve" text-anchor="middle" x="94" y="-972.37" font-family="Helvetica,sans-Serif" font-size="18.00">Switch power off</text>
</g>
<!-- user_on&#45;&gt;user_off -->
<!-- restore_power -->
<g id="node16" class="node">
<title>restore_power</title>
<polygon fill="#bdfb9b" stroke="#166534" points="422.71,-998.11 281.29,-998.11 281.29,-962.08 422.71,-962.08 422.71,-998.11"/>
<text xml:space="preserve" text-anchor="middle" x="352" y="-972.37" font-family="Helvetica,sans-Serif" font-size="18.00">Restore power</text>
</g>
<!-- user_on&#45;&gt;restore_power -->
<!-- user_on&#45;&gt;restore_power -->
<g id="edge66" class="edge">
<title>user_on&#45;&gt;restore_power</title>
<path fill="none" stroke="#1f7a4d" stroke-width="2.2" d="M152.17,-1072.02C185.37,-1060.34 220,-1047.11 220,-1047.11 220,-1047.11 281,-1029.11 281,-1029.11 281,-1029.11 303.39,-1016.61 323.33,-1004.37"/>
<polygon fill="#1f7a4d" stroke="#1f7a4d" stroke-width="2.2" points="324.69,-1006.82 329.99,-1000.2 321.72,-1002.07 324.69,-1006.82"/>
</g>
<!-- cut_off_power -->
<g id="node17" class="node">
<title>cut_off_power</title>
<polygon fill="#bdfb9b" stroke="#166534" points="583.46,-998.11 452.54,-998.11 452.54,-962.08 583.46,-962.08 583.46,-998.11"/>
<text xml:space="preserve" text-anchor="middle" x="518" y="-972.37" font-family="Helvetica,sans-Serif" font-size="18.00">Cut off power</text>
</g>
<!-- user_off&#45;&gt;cut_off_power -->
<g id="edge67" class="edge">
<title>user_off&#45;&gt;cut_off_power</title>
<path fill="none" stroke="#1f7a4d" stroke-width="2.2" d="M133.87,-998.46C170.78,-1015.45 220,-1038.11 220,-1038.11 220,-1038.11 423,-1038.11 423,-1038.11 423,-1038.11 438,-1029.11 438,-1029.11 438,-1029.11 458.47,-1016.57 478.7,-1004.18"/>
<polygon fill="#1f7a4d" stroke="#1f7a4d" stroke-width="2.2" points="480.01,-1006.66 485.37,-1000.09 477.09,-1001.88 480.01,-1006.66"/>
</g>
<!-- battpack_jst -->
<!-- battery_jst -->
<!-- battpack_jst&#45;&gt;battery_jst -->
<!-- protection_batt_anchor -->
<!-- battpack_jst&#45;&gt;protection_batt_anchor -->
<!-- battpack_jst&#45;&gt;protection_batt_anchor -->
<g id="edge80" class="edge">
<title>battpack_jst:s&#45;&gt;protection_batt_anchor:n</title>
<path fill="none" stroke="#e11d28" stroke-width="2.2" d="M756,-1218.89C756,-1218.89 608,-1210.89 608,-1210.89 608,-1210.89 603.41,-1178.83 599,-1148.04"/>
<text xml:space="preserve" text-anchor="middle" x="589.55" y="-1214.68" font-family="Helvetica,sans-Serif" font-size="15.00" fill="#e11d28">Battery Cable JST</text>
</g>
<!-- batt_store -->
<g id="node7" class="node">
<title>batt_store</title>
<polygon fill="#bdfb9b" stroke="#166534" points="570.96,-1270.92 443.04,-1270.92 443.04,-1234.89 570.96,-1234.89 570.96,-1270.92"/>
<text xml:space="preserve" text-anchor="middle" x="507" y="-1245.18" font-family="Helvetica,sans-Serif" font-size="18.00">Store energy</text>
</g>
<!-- battery_jst&#45;&gt;batt_store -->
<!-- batt_provide -->
<g id="node8" class="node">
<title>batt_provide</title>
<polygon fill="#bdfb9b" stroke="#166534" points="740.59,-1270.92 601.41,-1270.92 601.41,-1234.89 740.59,-1234.89 740.59,-1270.92"/>
<text xml:space="preserve" text-anchor="middle" x="671" y="-1245.18" font-family="Helvetica,sans-Serif" font-size="18.00">Provide power</text>
</g>
<!-- batt_store&#45;&gt;batt_provide -->
<!-- batt_store&#45;&gt;charger_reg -->
<!-- regulate_voltage -->
<g id="node20" class="node">
<title>regulate_voltage</title>
<polygon fill="#bdfb9b" stroke="#166534" points="719.21,-1117.89 622.79,-1117.89 622.79,-1063.11 719.21,-1063.11 719.21,-1117.89"/>
<text xml:space="preserve" text-anchor="middle" x="671" y="-1092.15" font-family="Helvetica,sans-Serif" font-size="18.00">Regulate</text>
<text xml:space="preserve" text-anchor="middle" x="671" y="-1073.4" font-family="Helvetica,sans-Serif" font-size="18.00">voltage</text>
</g>
<!-- batt_provide&#45;&gt;regulate_voltage -->
<!-- batt_provide&#45;&gt;regulate_voltage -->
<!-- batt_provide&#45;&gt;regulate_voltage -->
<g id="edge69" class="edge">
<title>batt_provide&#45;&gt;regulate_voltage</title>
<path fill="none" stroke="#1f7a4d" stroke-width="2.2" d="M685.67,-1234.44C694.19,-1209.27 695.76,-1162.19 690.38,-1128.95"/>
<polygon fill="#1f7a4d" stroke="#1f7a4d" stroke-width="2.2" points="693.21,-1128.85 688.92,-1121.53 687.71,-1129.92 693.21,-1128.85"/>
</g>
<!-- battchg_usb_in -->
<!-- protection_usb_anchor&#45;&gt;battchg_usb_in -->
<!-- battchg_batt_in -->
<!-- protection_batt_anchor&#45;&gt;battchg_batt_in -->
<!-- battchg_usb_in&#45;&gt;battchg_batt_in -->
<!-- battchg_usb_in&#45;&gt;charger_reg -->
<!-- battchg_usb_in&#45;&gt;charger_reg -->
<!-- battchg_batt_in&#45;&gt;charger_reg -->
<!-- battchg_batt_in&#45;&gt;charger_reg -->
<!-- charger_reg&#45;&gt;batt_store -->
<g id="edge68" class="edge">
<title>charger_reg&#45;&gt;batt_store</title>
<path fill="none" stroke="#1f7a4d" stroke-width="2.2" d="M304.39,-1108.87C324.16,-1141.98 379,-1210.89 379,-1210.89 379,-1210.89 413,-1218.89 413,-1218.89 413,-1218.89 425.51,-1224.12 441.51,-1230.42"/>
<polygon fill="#1f7a4d" stroke="#1f7a4d" stroke-width="2.2" points="440.28,-1232.94 448.75,-1233.23 442.31,-1227.72 440.28,-1232.94"/>
</g>
<!-- charger_reg&#45;&gt;restore_power -->
<!-- protection_pc_out -->
<!-- protection_ina_out -->
<!-- protection_pc_out&#45;&gt;protection_ina_out -->
<!-- protection_pc_out&#45;&gt;restore_power -->
<!-- ina_power_in -->
<!-- protection_pc_out&#45;&gt;ina_power_in -->
<g id="edge81" class="edge">
<title>protection_pc_out:s&#45;&gt;ina_power_in:nw</title>
<path fill="none" stroke="#e11d28" stroke-width="2.2" d="M225.46,-954.09C229.36,-936.7 234.67,-913.05 239,-893.79"/>
<text xml:space="preserve" text-anchor="middle" x="184.23" y="-925.44" font-family="Helvetica,sans-Serif" font-size="15.00" fill="#e11d28">PC Out / GND</text>
</g>
<!-- protection_ina_out&#45;&gt;protection_pc_out -->
<!-- protection_ina_out&#45;&gt;restore_power -->
<!-- connector_terminal -->
<g id="node21" class="node">
<title>connector_terminal</title>
<polygon fill="#fff8bf" stroke="#d1b24a" stroke-width="2" points="788.84,-885.46 681.16,-885.46 681.16,-830.68 788.84,-830.68 788.84,-885.46"/>
<text xml:space="preserve" text-anchor="middle" x="735" y="-859.72" font-family="Helvetica,sans-Serif" font-size="18.00">Connector</text>
<text xml:space="preserve" text-anchor="middle" x="735" y="-840.97" font-family="Helvetica,sans-Serif" font-size="18.00">Terminal</text>
</g>
<!-- protection_ina_out&#45;&gt;connector_terminal -->
<g id="edge82" class="edge">
<title>protection_ina_out:e&#45;&gt;connector_terminal:w</title>
<path fill="none" stroke="#e11d28" stroke-width="2.2" d="M262.79,-954.09C264.65,-949.46 266,-946.08 266,-946.08 266,-946.08 666,-938.08 666,-938.08 666,-938.08 680.16,-858.07 680.16,-858.07"/>
<text xml:space="preserve" text-anchor="middle" x="475.69" y="-942.86" font-family="Helvetica,sans-Serif" font-size="15.00" fill="#e11d28">INA Out</text>
</g>
<!-- restore_power&#45;&gt;protection_ina_out -->
<!-- restore_power&#45;&gt;cut_off_power -->
<!-- ina_measure_v -->
<g id="node24" class="node">
<title>ina_measure_v</title>
<polygon fill="#bdfb9b" stroke="#166534" points="434.58,-876.08 277.42,-876.08 277.42,-840.05 434.58,-840.05 434.58,-876.08"/>
<text xml:space="preserve" text-anchor="middle" x="356" y="-850.34" font-family="Helvetica,sans-Serif" font-size="18.00">Measure voltage</text>
</g>
<!-- restore_power&#45;&gt;ina_measure_v -->
<!-- cut_off_power&#45;&gt;protection_pc_out -->
<!-- cut_off_power&#45;&gt;protection_pc_out -->
<!-- regulator_phys_out -->
<!-- regulator_out -->
<!-- regulator_phys_out&#45;&gt;regulator_out -->
<!-- regulator_phys_out&#45;&gt;connector_terminal -->
<g id="edge83" class="edge">
<title>regulator_phys_out:s&#45;&gt;connector_terminal:n</title>
<path fill="none" stroke="#e11d28" stroke-width="2.2" d="M771.53,-1047.12C758.06,-987.89 735,-886.46 735,-886.46"/>
<text xml:space="preserve" text-anchor="middle" x="701.14" y="-968.29" font-family="Helvetica,sans-Serif" font-size="15.00" fill="#e11d28">5V / 3V3 / GND</text>
</g>
<!-- regulator_out&#45;&gt;connector_terminal -->
<!-- regulate_voltage&#45;&gt;regulator_out -->
<!-- regulate_voltage&#45;&gt;regulator_out -->
<!-- ina_measure_i -->
<g id="node25" class="node">
<title>ina_measure_i</title>
<polygon fill="#bdfb9b" stroke="#166534" points="650.84,-876.08 495.17,-876.08 495.17,-840.05 650.84,-840.05 650.84,-876.08"/>
<text xml:space="preserve" text-anchor="middle" x="573" y="-850.34" font-family="Helvetica,sans-Serif" font-size="18.00">Measure current</text>
</g>
<!-- regulate_voltage&#45;&gt;ina_measure_i -->
<!-- xiao_collect -->
<g id="node37" class="node">
<title>xiao_collect</title>
<polygon fill="#bdfb9b" stroke="#166534" points="1324.46,-187.81 1079.54,-187.81 1079.54,-151.78 1324.46,-151.78 1324.46,-187.81"/>
<text xml:space="preserve" text-anchor="middle" x="1202" y="-162.07" font-family="Helvetica,sans-Serif" font-size="18.00">Collect PDS measurements</text>
</g>
<!-- regulate_voltage&#45;&gt;xiao_collect -->
<!-- ina_respond -->
<g id="node26" class="node">
<title>ina_respond</title>
<polygon fill="#bdfb9b" stroke="#166534" points="650.96,-603.4 421.04,-603.4 421.04,-567.37 650.96,-567.37 650.96,-603.4"/>
<text xml:space="preserve" text-anchor="middle" x="536" y="-577.66" font-family="Helvetica,sans-Serif" font-size="18.00">Respond to I2C Requests</text>
</g>
<!-- connector_terminal&#45;&gt;ina_respond -->
<!-- xiao_pwr_3v3 -->
<!-- connector_terminal&#45;&gt;xiao_pwr_3v3 -->
<!-- connector_terminal&#45;&gt;xiao_pwr_3v3 -->
<g id="edge84" class="edge">
<title>connector_terminal:s&#45;&gt;xiao_pwr_3v3:nw</title>
<path fill="none" stroke="#e11d28" stroke-width="2.2" d="M797,-825.77C817.88,-824.11 836,-822.68 836,-822.68"/>
<text xml:space="preserve" text-anchor="middle" x="780.12" y="-825.72" font-family="Helvetica,sans-Serif" font-size="15.00" fill="#e11d28">3V3 / GND</text>
</g>
<!-- xiao_pwr_5v -->
<!-- connector_terminal&#45;&gt;xiao_pwr_5v -->
<!-- connector_terminal&#45;&gt;xiao_pwr_5v -->
<g id="edge85" class="edge">
<title>connector_terminal:s&#45;&gt;xiao_pwr_5v:ne</title>
<path fill="none" stroke="#e11d28" stroke-width="2.2" d="M797,-828.73C872.48,-826.37 990,-822.68 990,-822.68"/>
<text xml:space="preserve" text-anchor="middle" x="861.25" y="-827.21" font-family="Helvetica,sans-Serif" font-size="15.00" fill="#e11d28">5V / GND</text>
</g>
<!-- xiao_get_init -->
<g id="node30" class="node">
<title>xiao_get_init</title>
<polygon fill="#bdfb9b" stroke="#166534" points="975.34,-760.68 882.66,-760.68 882.66,-687.15 975.34,-687.15 975.34,-760.68"/>
<text xml:space="preserve" text-anchor="middle" x="929" y="-734.94" font-family="Helvetica,sans-Serif" font-size="18.00">Get</text>
<text xml:space="preserve" text-anchor="middle" x="929" y="-716.19" font-family="Helvetica,sans-Serif" font-size="18.00">INA219</text>
<text xml:space="preserve" text-anchor="middle" x="929" y="-697.44" font-family="Helvetica,sans-Serif" font-size="18.00">init state</text>
</g>
<!-- connector_terminal&#45;&gt;xiao_get_init -->
<!-- ina_power_in&#45;&gt;ina_measure_v -->
<!-- ina_signal_in -->
<!-- ina_signal_in&#45;&gt;ina_measure_i -->
<!-- ina_measure_v&#45;&gt;ina_measure_i -->
<!-- ina_measure_v&#45;&gt;ina_respond -->
<!-- ina_measure_i&#45;&gt;ina_respond -->
<!-- xiao_process_v -->
<g id="node35" class="node">
<title>xiao_process_v</title>
<polygon fill="#bdfb9b" stroke="#166534" points="1126.21,-464.87 1035.79,-464.87 1035.79,-410.09 1126.21,-410.09 1126.21,-464.87"/>
<text xml:space="preserve" text-anchor="middle" x="1081" y="-439.13" font-family="Helvetica,sans-Serif" font-size="18.00">Process</text>
<text xml:space="preserve" text-anchor="middle" x="1081" y="-420.38" font-family="Helvetica,sans-Serif" font-size="18.00">voltage</text>
</g>
<!-- ina_respond&#45;&gt;xiao_process_v -->
<!-- ina_respond&#45;&gt;xiao_process_v -->
<!-- ina_respond&#45;&gt;xiao_process_v -->
<g id="edge77" class="edge">
<title>ina_respond&#45;&gt;xiao_process_v</title>
<path fill="none" stroke="#1f7a4d" stroke-width="2.2" d="M638.3,-566.89C789.09,-538.04 1051,-483.62 1051,-483.62 1051,-483.62 1057.19,-478.96 1064.61,-472.64"/>
<polygon fill="#1f7a4d" stroke="#1f7a4d" stroke-width="2.2" points="1066.29,-474.88 1070.4,-467.47 1062.57,-470.7 1066.29,-474.88"/>
<text xml:space="preserve" text-anchor="middle" x="817.59" y="-525.03" font-family="Helvetica,sans-Serif" font-size="15.00" fill="#1f7a4d">[I2C Resp]</text>
</g>
<!-- xiao_process_i -->
<g id="node36" class="node">
<title>xiao_process_i</title>
<polygon fill="#bdfb9b" stroke="#166534" points="1246.21,-464.87 1155.79,-464.87 1155.79,-410.09 1246.21,-410.09 1246.21,-464.87"/>
<text xml:space="preserve" text-anchor="middle" x="1201" y="-439.13" font-family="Helvetica,sans-Serif" font-size="18.00">Process</text>
<text xml:space="preserve" text-anchor="middle" x="1201" y="-420.38" font-family="Helvetica,sans-Serif" font-size="18.00">current</text>
</g>
<!-- ina_respond&#45;&gt;xiao_process_i -->
<!-- ina_respond&#45;&gt;xiao_process_i -->
<g id="edge78" class="edge">
<title>ina_respond&#45;&gt;xiao_process_i</title>
<path fill="none" stroke="#1f7a4d" stroke-width="2.2" d="M650.08,-566.89C829.29,-538.04 1156,-483.62 1156,-483.62 1156,-483.62 1162.46,-478.76 1170.61,-472.23"/>
<polygon fill="#1f7a4d" stroke="#1f7a4d" stroke-width="2.2" points="1172.14,-474.59 1176.57,-467.37 1168.6,-470.26 1172.14,-474.59"/>
<text xml:space="preserve" text-anchor="middle" x="876.56" y="-525.25" font-family="Helvetica,sans-Serif" font-size="15.00" fill="#1f7a4d">[I2C Resp]</text>
</g>
<!-- xiao_i2c_port -->
<!-- xiao_i2c_port&#45;&gt;xiao_get_init -->
<!-- xiao_pwr_3v3&#45;&gt;xiao_get_init -->
<!-- xiao_read_i -->
<g id="node34" class="node">
<title>xiao_read_i</title>
<polygon fill="#bdfb9b" stroke="#166534" points="1324.34,-741.93 1195.66,-741.93 1195.66,-705.9 1324.34,-705.9 1324.34,-741.93"/>
<text xml:space="preserve" text-anchor="middle" x="1260" y="-716.19" font-family="Helvetica,sans-Serif" font-size="18.00">Read current</text>
</g>
<!-- xiao_pwr_5v&#45;&gt;xiao_read_i -->
<!-- xiao_get_init&#45;&gt;ina_respond -->
<g id="edge74" class="edge">
<title>xiao_get_init&#45;&gt;ina_respond</title>
<path fill="none" stroke="#1f7a4d" stroke-width="2.2" d="M882.33,-695.99C873.52,-690.91 867,-687.15 867,-687.15 867,-687.15 700.72,-636.53 603.86,-607.04"/>
<polygon fill="#1f7a4d" stroke="#1f7a4d" stroke-width="2.2" points="604.93,-604.44 596.46,-604.79 603.3,-609.8 604.93,-604.44"/>
<text xml:space="preserve" text-anchor="middle" x="712.02" y="-651.17" font-family="Helvetica,sans-Serif" font-size="15.00" fill="#1f7a4d">[I2C Req]</text>
</g>
<!-- xiao_collect_init -->
<g id="node31" class="node">
<title>xiao_collect_init</title>
<polygon fill="#bdfb9b" stroke="#166534" points="994.84,-622.15 863.16,-622.15 863.16,-548.62 994.84,-548.62 994.84,-622.15"/>
<text xml:space="preserve" text-anchor="middle" x="929" y="-596.41" font-family="Helvetica,sans-Serif" font-size="18.00">Collect</text>
<text xml:space="preserve" text-anchor="middle" x="929" y="-577.66" font-family="Helvetica,sans-Serif" font-size="18.00">peripheral init</text>
<text xml:space="preserve" text-anchor="middle" x="929" y="-558.91" font-family="Helvetica,sans-Serif" font-size="18.00">states</text>
</g>
<!-- xiao_get_init&#45;&gt;xiao_collect_init -->
<!-- xiao_get_init&#45;&gt;xiao_collect_init -->
<g id="edge70" class="edge">
<title>xiao_get_init&#45;&gt;xiao_collect_init</title>
<path fill="none" stroke="#1f7a4d" stroke-width="2.2" d="M939.07,-686.69C940.37,-670.36 940.6,-650.86 939.75,-633.42"/>
<polygon fill="#1f7a4d" stroke="#1f7a4d" stroke-width="2.2" points="942.56,-633.44 939.26,-625.63 936.97,-633.79 942.56,-633.44"/>
<text xml:space="preserve" text-anchor="middle" x="913.91" y="-661.55" font-family="Helvetica,sans-Serif" font-size="15.00" fill="#1f7a4d">[Result]</text>
</g>
<!-- xiao_init_bus -->
<g id="node32" class="node">
<title>xiao_init_bus</title>
<polygon fill="#bdfb9b" stroke="#166534" points="1001.21,-464.87 856.79,-464.87 856.79,-410.09 1001.21,-410.09 1001.21,-464.87"/>
<text xml:space="preserve" text-anchor="middle" x="929" y="-439.13" font-family="Helvetica,sans-Serif" font-size="18.00">Init Serial0 and</text>
<text xml:space="preserve" text-anchor="middle" x="929" y="-420.38" font-family="Helvetica,sans-Serif" font-size="18.00">I2C</text>
</g>
<!-- xiao_collect_init&#45;&gt;xiao_init_bus -->
<!-- xiao_read_v -->
<g id="node33" class="node">
<title>xiao_read_v</title>
<polygon fill="#bdfb9b" stroke="#166534" points="1166.09,-741.93 1035.91,-741.93 1035.91,-705.9 1166.09,-705.9 1166.09,-741.93"/>
<text xml:space="preserve" text-anchor="middle" x="1101" y="-716.19" font-family="Helvetica,sans-Serif" font-size="18.00">Read voltage</text>
</g>
<!-- xiao_read_v&#45;&gt;ina_respond -->
<!-- xiao_read_v&#45;&gt;ina_respond -->
<g id="edge75" class="edge">
<title>xiao_read_v&#45;&gt;ina_respond</title>
<path fill="none" stroke="#1f7a4d" stroke-width="2.2" d="M1074.97,-705.45C1056.63,-696.37 1036,-687.15 1036,-687.15 1036,-687.15 786.72,-635.36 640.06,-606.04"/>
<polygon fill="#1f7a4d" stroke="#1f7a4d" stroke-width="2.2" points="640.91,-603.35 632.52,-604.53 639.81,-608.84 640.91,-603.35"/>
<text xml:space="preserve" text-anchor="middle" x="827.25" y="-652.41" font-family="Helvetica,sans-Serif" font-size="15.00" fill="#1f7a4d">[I2C Req]</text>
</g>
<!-- xiao_read_i&#45;&gt;ina_respond -->
<!-- xiao_read_i&#45;&gt;ina_respond -->
<g id="edge76" class="edge">
<title>xiao_read_i&#45;&gt;ina_respond</title>
<path fill="none" stroke="#1f7a4d" stroke-width="2.2" d="M1234.46,-705.45C1216.37,-696.37 1196,-687.15 1196,-687.15 1196,-687.15 854.11,-633.74 662.37,-604.69"/>
<polygon fill="#1f7a4d" stroke="#1f7a4d" stroke-width="2.2" points="663,-601.95 654.67,-603.52 662.16,-607.49 663,-601.95"/>
<text xml:space="preserve" text-anchor="middle" x="918.36" y="-634.92" font-family="Helvetica,sans-Serif" font-size="15.00" fill="#1f7a4d">[I2C Req]</text>
</g>
<!-- note_vgt -->
<g id="node41" class="node">
<title>note_vgt</title>
<polygon fill="#fff5b0" stroke="#d1b24a" points="1698.46,-483.62 1399.54,-483.62 1399.54,-391.34 1698.46,-391.34 1698.46,-483.62"/>
<text xml:space="preserve" text-anchor="middle" x="1549" y="-457.88" font-family="Helvetica,sans-Serif" font-size="18.00">All pairs of (Read X, Process X) or</text>
<text xml:space="preserve" text-anchor="middle" x="1549" y="-439.13" font-family="Helvetica,sans-Serif" font-size="18.00">(Read X, Calculate Y) must be</text>
<text xml:space="preserve" text-anchor="middle" x="1549" y="-420.38" font-family="Helvetica,sans-Serif" font-size="18.00">implemented as a Variable Getter</text>
<text xml:space="preserve" text-anchor="middle" x="1549" y="-401.63" font-family="Helvetica,sans-Serif" font-size="18.00">Template</text>
</g>
<!-- xiao_read_i&#45;&gt;note_vgt -->
<!-- xiao_process_v&#45;&gt;xiao_collect -->
<!-- xiao_process_v&#45;&gt;xiao_collect -->
<g id="edge71" class="edge">
<title>xiao_process_v&#45;&gt;xiao_collect</title>
<path fill="none" stroke="#1f7a4d" stroke-width="2.2" d="M1100.12,-410.03C1128.58,-359.64 1178.44,-250.28 1196.51,-198.74"/>
<polygon fill="#1f7a4d" stroke="#1f7a4d" stroke-width="2.2" points="1199.13,-199.73 1198.99,-191.25 1193.81,-197.96 1199.13,-199.73"/>
<text xml:space="preserve" text-anchor="middle" x="1122.81" y="-305.89" font-family="Helvetica,sans-Serif" font-size="15.00" fill="#1f7a4d">[Result]</text>
</g>
<!-- xiao_process_i&#45;&gt;xiao_collect -->
<!-- xiao_process_i&#45;&gt;xiao_collect -->
<g id="edge72" class="edge">
<title>xiao_process_i&#45;&gt;xiao_collect</title>
<path fill="none" stroke="#1f7a4d" stroke-width="2.2" d="M1208.17,-410.03C1213.87,-359.74 1214.34,-250.74 1209.16,-199.07"/>
<polygon fill="#1f7a4d" stroke="#1f7a4d" stroke-width="2.2" points="1211.97,-199.01 1208.24,-191.4 1206.41,-199.67 1211.97,-199.01"/>
<text xml:space="preserve" text-anchor="middle" x="1183.17" y="-306.05" font-family="Helvetica,sans-Serif" font-size="15.00" fill="#1f7a4d">[Result]</text>
</g>
<!-- xiao_log -->
<g id="node38" class="node">
<title>xiao_log</title>
<polygon fill="#bdfb9b" stroke="#166534" points="1323.96,-68.03 1058.04,-68.03 1058.04,-32 1323.96,-32 1323.96,-68.03"/>
<text xml:space="preserve" text-anchor="middle" x="1191" y="-42.29" font-family="Helvetica,sans-Serif" font-size="18.00">Log measurements via Serial0</text>
</g>
<!-- xiao_collect&#45;&gt;xiao_log -->
<!-- xiao_collect&#45;&gt;xiao_log -->
<g id="edge73" class="edge">
<title>xiao_collect&#45;&gt;xiao_log</title>
<path fill="none" stroke="#1f7a4d" stroke-width="2.2" d="M1208.64,-151.42C1210.26,-132.45 1207.9,-101.81 1203.43,-79.35"/>
<polygon fill="#1f7a4d" stroke="#1f7a4d" stroke-width="2.2" points="1206.19,-78.87 1201.65,-71.71 1200.73,-80.13 1206.19,-78.87"/>
<text xml:space="preserve" text-anchor="middle" x="1159.91" y="-116.89" font-family="Helvetica,sans-Serif" font-size="15.00" fill="#1f7a4d">[LoRa Frame]</text>
</g>
<!-- note_nb -->
<g id="node39" class="node">
<title>note_nb</title>
<polygon fill="#fff5b0" stroke="#d1b24a" points="1665.84,-760.68 1432.16,-760.68 1432.16,-687.15 1665.84,-687.15 1665.84,-760.68"/>
<text xml:space="preserve" text-anchor="middle" x="1549" y="-734.94" font-family="Helvetica,sans-Serif" font-size="18.00">No blocking</text>
<text xml:space="preserve" text-anchor="middle" x="1549" y="-716.19" font-family="Helvetica,sans-Serif" font-size="18.00">{c} operations besides I2C</text>
<text xml:space="preserve" text-anchor="middle" x="1549" y="-697.44" font-family="Helvetica,sans-Serif" font-size="18.00">or UART comms</text>
</g>
<!-- note_nb&#45;&gt;xiao_read_v -->
<g id="edge86" class="edge">
<title>note_nb&#45;&gt;xiao_read_v</title>
<path fill="none" stroke="#333333" stroke-width="2.2" stroke-dasharray="5,2" d="M1478.95,-761.11C1426.22,-789.11 1363,-822.68 1363,-822.68 1363,-822.68 1348,-826.68 1348,-826.68 1348,-826.68 1196,-826.68 1196,-826.68 1196,-826.68 1181,-822.68 1181,-822.68 1181,-822.68 1146.32,-779.86 1122.62,-750.61"/>
<polygon fill="#333333" stroke="#333333" stroke-width="2.2" points="1124.98,-749.07 1117.77,-744.62 1120.63,-752.6 1124.98,-749.07"/>
</g>
<!-- note_nb&#45;&gt;xiao_read_i -->
<g id="edge87" class="edge">
<title>note_nb&#45;&gt;xiao_read_i</title>
<path fill="none" stroke="#333333" stroke-width="2.2" stroke-dasharray="5,2" d="M1431.76,-723.91C1403.43,-723.91 1356.33,-723.91 1356.33,-723.91 1356.33,-723.91 1347.89,-723.91 1336,-723.91"/>
<polygon fill="#333333" stroke="#333333" stroke-width="2.2" points="1336.12,-721.12 1328.12,-723.92 1336.12,-726.72 1336.12,-721.12"/>
</g>
<!-- note_to -->
<g id="node40" class="node">
<title>note_to</title>
<polygon fill="#fff5b0" stroke="#d1b24a" points="1650.09,-622.15 1447.91,-622.15 1447.91,-548.62 1650.09,-548.62 1650.09,-622.15"/>
<text xml:space="preserve" text-anchor="middle" x="1549" y="-596.41" font-family="Helvetica,sans-Serif" font-size="18.00">All I2C Read functions</text>
<text xml:space="preserve" text-anchor="middle" x="1549" y="-577.66" font-family="Helvetica,sans-Serif" font-size="18.00">{c} must have a max.</text>
<text xml:space="preserve" text-anchor="middle" x="1549" y="-558.91" font-family="Helvetica,sans-Serif" font-size="18.00">timeout of 5 ms</text>
</g>
<!-- note_nb&#45;&gt;note_to -->
<!-- note_to&#45;&gt;xiao_read_v -->
<g id="edge88" class="edge">
<title>note_to&#45;&gt;xiao_read_v</title>
<path fill="none" stroke="#333333" stroke-width="2.2" stroke-dasharray="5,2" d="M1447.49,-620.96C1445.26,-621.72 1444,-622.15 1444,-622.15 1444,-622.15 1181,-687.15 1181,-687.15 1181,-687.15 1166.58,-693.59 1149.99,-701.01"/>
<polygon fill="#333333" stroke="#333333" stroke-width="2.2" points="1149.26,-698.27 1143.1,-704.09 1151.55,-703.38 1149.26,-698.27"/>
</g>
<!-- note_to&#45;&gt;xiao_read_i -->
<g id="edge89" class="edge">
<title>note_to&#45;&gt;xiao_read_i</title>
<path fill="none" stroke="#333333" stroke-width="2.2" stroke-dasharray="5,2" d="M1472.51,-622.52C1419.88,-647.38 1351.67,-679.61 1306.91,-700.75"/>
<polygon fill="#333333" stroke="#333333" stroke-width="2.2" points="1305.94,-698.11 1299.91,-704.06 1308.34,-703.18 1305.94,-698.11"/>
</g>
<!-- note_to&#45;&gt;note_vgt -->
<!-- note_vgt&#45;&gt;xiao_process_v -->
<g id="edge90" class="edge">
<title>note_vgt&#45;&gt;xiao_process_v</title>
<path fill="none" stroke="#333333" stroke-width="2.2" stroke-dasharray="5,2" d="M1425.71,-484.11C1384.11,-499.84 1348,-513.5 1348,-513.5 1348,-513.5 1156,-513.5 1156,-513.5 1156,-513.5 1135.84,-493.07 1116.43,-473.39"/>
<polygon fill="#333333" stroke="#333333" stroke-width="2.2" points="1118.45,-471.45 1110.84,-467.72 1114.47,-475.39 1118.45,-471.45"/>
</g>
<!-- note_vgt&#45;&gt;xiao_process_i -->
<g id="edge91" class="edge">
<title>note_vgt&#45;&gt;xiao_process_i</title>
<path fill="none" stroke="#333333" stroke-width="2.2" stroke-dasharray="5,2" d="M1399.14,-437.48C1364.9,-437.48 1317,-437.48 1317,-437.48 1317,-437.48 1287.13,-437.48 1257.71,-437.48"/>
<polygon fill="#333333" stroke="#333333" stroke-width="2.2" points="1257.84,-434.68 1249.84,-437.48 1257.84,-440.28 1257.84,-434.68"/>
</g>
<!-- note_proc -->
<g id="node42" class="node">
<title>note_proc</title>
<polygon fill="#fff5b0" stroke="#d1b24a" points="1670.71,-326.34 1427.29,-326.34 1427.29,-252.81 1670.71,-252.81 1670.71,-326.34"/>
<text xml:space="preserve" text-anchor="middle" x="1549" y="-300.6" font-family="Helvetica,sans-Serif" font-size="18.00">All Process or Calculate</text>
<text xml:space="preserve" text-anchor="middle" x="1549" y="-281.85" font-family="Helvetica,sans-Serif" font-size="18.00">{c} functions must take less</text>
<text xml:space="preserve" text-anchor="middle" x="1549" y="-263.1" font-family="Helvetica,sans-Serif" font-size="18.00">than 5ms</text>
</g>
<!-- note_vgt&#45;&gt;note_proc -->
<!-- note_proc&#45;&gt;xiao_process_i -->
<g id="edge92" class="edge">
<title>note_proc&#45;&gt;xiao_process_i</title>
<path fill="none" stroke="#333333" stroke-width="2.2" stroke-dasharray="5,2" d="M1462.72,-326.75C1398.39,-353.72 1312.39,-389.78 1256.84,-413.07"/>
<polygon fill="#333333" stroke="#333333" stroke-width="2.2" points="1255.86,-410.44 1249.57,-416.12 1258.03,-415.61 1255.86,-410.44"/>
</g>
<!-- note_5hz -->
<g id="node43" class="node">
<title>note_5hz</title>
<polygon fill="#fff5b0" stroke="#d1b24a" points="1603.96,-187.81 1494.04,-187.81 1494.04,-151.78 1603.96,-151.78 1603.96,-187.81"/>
<text xml:space="preserve" text-anchor="middle" x="1549" y="-162.07" font-family="Helvetica,sans-Serif" font-size="18.00">{c} At 5 Hz</text>
</g>
<!-- note_proc&#45;&gt;note_5hz -->
<!-- note_5hz&#45;&gt;xiao_collect -->
<g id="edge93" class="edge">
<title>note_5hz&#45;&gt;xiao_collect</title>
<path fill="none" stroke="#333333" stroke-width="2.2" stroke-dasharray="5,2" d="M1493.88,-169.8C1464.09,-169.8 1433.33,-169.8 1433.33,-169.8 1433.33,-169.8 1368.56,-169.8 1335.96,-169.8"/>
<polygon fill="#333333" stroke="#333333" stroke-width="2.2" points="1336.23,-167 1328.23,-169.8 1336.23,-172.6 1336.23,-167"/>
</g>
<!-- note_zero -->
<g id="node44" class="node">
<title>note_zero</title>
<polygon fill="#fff5b0" stroke="#d1b24a" points="1621.21,-86.78 1476.79,-86.78 1476.79,-13.25 1621.21,-13.25 1621.21,-86.78"/>
<text xml:space="preserve" text-anchor="middle" x="1549" y="-61.04" font-family="Helvetica,sans-Serif" font-size="18.00">Set unused</text>
<text xml:space="preserve" text-anchor="middle" x="1549" y="-42.29" font-family="Helvetica,sans-Serif" font-size="18.00">{c} frame fields</text>
<text xml:space="preserve" text-anchor="middle" x="1549" y="-23.54" font-family="Helvetica,sans-Serif" font-size="18.00">to 0</text>
</g>
<!-- note_5hz&#45;&gt;note_zero -->
<!-- note_zero&#45;&gt;xiao_collect -->
<g id="edge94" class="edge">
<title>note_zero&#45;&gt;xiao_collect</title>
<path fill="none" stroke="#333333" stroke-width="2.2" stroke-dasharray="5,2" d="M1476.59,-75.59C1413.69,-96.94 1323.59,-127.53 1263.97,-147.76"/>
<polygon fill="#333333" stroke="#333333" stroke-width="2.2" points="1263.4,-145 1256.73,-150.22 1265.2,-150.3 1263.4,-145"/>
</g>
</g>
</svg>
