<?xml version="1.0" encoding="UTF-8" standalone="no"?>
<!DOCTYPE svg PUBLIC "-//W3C//DTD SVG 1.1//EN"
 "http://www.w3.org/Graphics/SVG/1.1/DTD/svg11.dtd">
<!-- Generated by graphviz version 14.1.4 (20260321.0153)
 -->
<!-- Title: PDS_v0_2 Pages: 1 -->
<svg width="1107pt" height="1620pt"
 viewBox="0.00 0.00 1107.00 1620.00" xmlns="http://www.w3.org/2000/svg" xmlns:xlink="http://www.w3.org/1999/xlink">
<g id="graph0" class="graph" transform="scale(1 1) rotate(0) translate(20.16 1600.14)">
<title>PDS_v0_2</title>
<polygon fill="white" stroke="none" points="-20.16,20.16 -20.16,-1600.14 1086.62,-1600.14 1086.62,20.16 -20.16,20.16"/>
<g id="clust1" class="cluster">
<title>cluster_charger</title>
<path fill="#bfeaf4" stroke="#5b65c9" stroke-width="2" d="M28,-1496.95C28,-1496.95 160,-1496.95 160,-1496.95 166,-1496.95 172,-1502.95 172,-1508.95 172,-1508.95 172,-1559.98 172,-1559.98 172,-1565.98 166,-1571.98 160,-1571.98 160,-1571.98 28,-1571.98 28,-1571.98 22,-1571.98 16,-1565.98 16,-1559.98 16,-1559.98 16,-1508.95 16,-1508.95 16,-1502.95 22,-1496.95 28,-1496.95"/>
<text xml:space="preserve" text-anchor="middle" x="94" y="-1554.68" font-family="Helvetica,sans-Serif" font-size="14.00">Charger</text>
</g>
<g id="clust2" class="cluster">
<title>cluster_user</title>
<path fill="#bfeaf4" stroke="#5b65c9" stroke-width="2" d="M20,-1189.52C20,-1189.52 168,-1189.52 168,-1189.52 174,-1189.52 180,-1195.52 180,-1201.52 180,-1201.52 180,-1414.95 180,-1414.95 180,-1420.95 174,-1426.95 168,-1426.95 168,-1426.95 20,-1426.95 20,-1426.95 14,-1426.95 8,-1420.95 8,-1414.95 8,-1414.95 8,-1201.52 8,-1201.52 8,-1195.52 14,-1189.52 20,-1189.52"/>
<text xml:space="preserve" text-anchor="middle" x="94" y="-1409.65" font-family="Helvetica,sans-Serif" font-size="14.00">User</text>
</g>
<g id="clust3" class="cluster">
<title>cluster_pds</title>
<path fill="#d9d9d9" stroke="#888888" stroke-width="2" d="M200,-8C200,-8 720,-8 720,-8 726,-8 732,-14 732,-20 732,-20 732,-1476.95 732,-1476.95 732,-1482.95 726,-1488.95 720,-1488.95 720,-1488.95 200,-1488.95 200,-1488.95 194,-1488.95 188,-1482.95 188,-1476.95 188,-1476.95 188,-20 188,-20 188,-14 194,-8 200,-8"/>
<text xml:space="preserve" text-anchor="middle" x="460" y="-1471.65" font-family="Helvetica,sans-Serif" font-size="14.00">PDS v0.2&#45;0.3 Subsystem</text>
</g>
<g id="clust4" class="cluster">
<title>cluster_battpack</title>
<polygon fill="#fff8bf" stroke="#d1b24a" stroke-width="2" points="384,-1343.92 384,-1457.95 714,-1457.95 714,-1343.92 384,-1343.92"/>
<text xml:space="preserve" text-anchor="middle" x="549" y="-1440.65" font-family="Helvetica,sans-Serif" font-size="14.00">1S1P Li&#45;Ion</text>
</g>
<g id="clust5" class="cluster">
<title>cluster_battery</title>
<path fill="#a9c7e6" stroke="#5b65c9" stroke-width="2" d="M404,-1351.92C404,-1351.92 694,-1351.92 694,-1351.92 700,-1351.92 706,-1357.92 706,-1363.92 706,-1363.92 706,-1414.95 706,-1414.95 706,-1420.95 700,-1426.95 694,-1426.95 694,-1426.95 404,-1426.95 404,-1426.95 398,-1426.95 392,-1420.95 392,-1414.95 392,-1414.95 392,-1363.92 392,-1363.92 392,-1357.92 398,-1351.92 404,-1351.92"/>
<text xml:space="preserve" text-anchor="middle" x="549" y="-1409.65" font-family="Helvetica,sans-Serif" font-size="14.00">Battery</text>
</g>
<g id="clust6" class="cluster">
<title>cluster_board</title>
<polygon fill="#fff8bf" stroke="#d1b24a" stroke-width="2" points="196,-830.68 196,-1335.92 700,-1335.92 700,-830.68 196,-830.68"/>
<text xml:space="preserve" text-anchor="middle" x="448" y="-1318.62" font-family="Helvetica,sans-Serif" font-size="14.00">PDS Circuitboard</text>
</g>
<g id="clust7" class="cluster">
<title>cluster_protection</title>
<polygon fill="#fff8bf" stroke="#d1b24a" stroke-width="2" points="204,-1061.74 204,-1295.55 538,-1295.55 538,-1061.74 204,-1061.74"/>
<text xml:space="preserve" text-anchor="middle" x="371" y="-1278.25" font-family="Helvetica,sans-Serif" font-size="14.00">Protection Circuit</text>
</g>
<g id="clust8" class="cluster">
<title>cluster_batt_charger</title>
<path fill="#a9c7e6" stroke="#5b65c9" stroke-width="2" d="M298,-1189.52C298,-1189.52 448,-1189.52 448,-1189.52 454,-1189.52 460,-1195.52 460,-1201.52 460,-1201.52 460,-1252.55 460,-1252.55 460,-1258.55 454,-1264.55 448,-1264.55 448,-1264.55 298,-1264.55 298,-1264.55 292,-1264.55 286,-1258.55 286,-1252.55 286,-1252.55 286,-1201.52 286,-1201.52 286,-1195.52 292,-1189.52 298,-1189.52"/>
<text xml:space="preserve" text-anchor="middle" x="373" y="-1247.25" font-family="Helvetica,sans-Serif" font-size="14.00">Battery Charger</text>
</g>
<g id="clust9" class="cluster">
<title>cluster_power_protection</title>
<path fill="#a9c7e6" stroke="#5b65c9" stroke-width="2" d="M224,-1069.74C224,-1069.74 518,-1069.74 518,-1069.74 524,-1069.74 530,-1075.74 530,-1081.74 530,-1081.74 530,-1132.77 530,-1132.77 530,-1138.77 524,-1144.77 518,-1144.77 518,-1144.77 224,-1144.77 224,-1144.77 218,-1144.77 212,-1138.77 212,-1132.77 212,-1132.77 212,-1081.74 212,-1081.74 212,-1075.74 218,-1069.74 224,-1069.74"/>
<text xml:space="preserve" text-anchor="middle" x="371" y="-1127.47" font-family="Helvetica,sans-Serif" font-size="14.00">Power Protection</text>
</g>
<g id="clust10" class="cluster">
<title>cluster_regulator_block</title>
<polygon fill="#fff8bf" stroke="#d1b24a" stroke-width="2" points="564,-1172.14 564,-1304.92 692,-1304.92 692,-1172.14 564,-1172.14"/>
<text xml:space="preserve" text-anchor="middle" x="628" y="-1287.62" font-family="Helvetica,sans-Serif" font-size="14.00">Regulator</text>
</g>
<g id="clust11" class="cluster">
<title>cluster_regulator</title>
<path fill="#a9c7e6" stroke="#5b65c9" stroke-width="2" d="M584,-1180.14C584,-1180.14 672,-1180.14 672,-1180.14 678,-1180.14 684,-1186.14 684,-1192.14 684,-1192.14 684,-1261.92 684,-1261.92 684,-1267.92 678,-1273.92 672,-1273.92 672,-1273.92 584,-1273.92 584,-1273.92 578,-1273.92 572,-1267.92 572,-1261.92 572,-1261.92 572,-1192.14 572,-1192.14 572,-1186.14 578,-1180.14 584,-1180.14"/>
<text xml:space="preserve" text-anchor="middle" x="628" y="-1256.62" font-family="Helvetica,sans-Serif" font-size="14.00">Regulator</text>
</g>
<g id="clust12" class="cluster">
<title>cluster_ina219</title>
<polygon fill="#fff8bf" stroke="#d1b24a" stroke-width="2" points="205,-838.68 205,-1053.74 580,-1053.74 580,-838.68 205,-838.68"/>
<text xml:space="preserve" text-anchor="middle" x="392.5" y="-1036.44" font-family="Helvetica,sans-Serif" font-size="14.00">INA219</text>
</g>
<g id="clust13" class="cluster">
<title>cluster_batt_monitoring</title>
<path fill="#a9c7e6" stroke="#5b65c9" stroke-width="2" d="M225,-846.68C225,-846.68 560,-846.68 560,-846.68 566,-846.68 572,-852.68 572,-858.68 572,-858.68 572,-1010.74 572,-1010.74 572,-1016.74 566,-1022.74 560,-1022.74 560,-1022.74 225,-1022.74 225,-1022.74 219,-1022.74 213,-1016.74 213,-1010.74 213,-1010.74 213,-858.68 213,-858.68 213,-852.68 219,-846.68 225,-846.68"/>
<text xml:space="preserve" text-anchor="middle" x="392.5" y="-1005.44" font-family="Helvetica,sans-Serif" font-size="14.00">Battery monitoring</text>
</g>
<g id="clust14" class="cluster">
<title>cluster_xiao</title>
<polygon fill="#fff8bf" stroke="#d1b24a" stroke-width="2" points="220,-16 220,-822.68 708,-822.68 708,-16 220,-16"/>
<text xml:space="preserve" text-anchor="middle" x="464" y="-805.38" font-family="Helvetica,sans-Serif" font-size="14.00">XIAO ESP32&#45;S3</text>
</g>
<g id="clust15" class="cluster">
<title>cluster_setup</title>
<path fill="#a9c7e6" stroke="#5b65c9" stroke-width="2" d="M240,-402.09C240,-402.09 376,-402.09 376,-402.09 382,-402.09 388,-408.09 388,-414.09 388,-414.09 388,-779.68 388,-779.68 388,-785.68 382,-791.68 376,-791.68 376,-791.68 240,-791.68 240,-791.68 234,-791.68 228,-785.68 228,-779.68 228,-779.68 228,-414.09 228,-414.09 228,-408.09 234,-402.09 240,-402.09"/>
<text xml:space="preserve" text-anchor="middle" x="308" y="-774.38" font-family="Helvetica,sans-Serif" font-size="14.00">Setup</text>
</g>
<g id="clust16" class="cluster">
<title>cluster_loop</title>
<path fill="#a9c7e6" stroke="#5b65c9" stroke-width="2" d="M408,-24C408,-24 688,-24 688,-24 694,-24 700,-30 700,-36 700,-36 700,-760.93 700,-760.93 700,-766.93 694,-772.93 688,-772.93 688,-772.93 408,-772.93 408,-772.93 402,-772.93 396,-766.93 396,-760.93 396,-760.93 396,-36 396,-36 396,-30 402,-24 408,-24"/>
<text xml:space="preserve" text-anchor="middle" x="548" y="-755.63" font-family="Helvetica,sans-Serif" font-size="14.00">Loop</text>
</g>
<!-- charger_power -->
<g id="node1" class="node">
<title>charger_power</title>
<polygon fill="#bdfb9b" stroke="#166534" points="163.58,-1540.98 24.42,-1540.98 24.42,-1504.95 163.58,-1504.95 163.58,-1540.98"/>
<text xml:space="preserve" text-anchor="middle" x="94" y="-1515.24" font-family="Helvetica,sans-Serif" font-size="18.00">Provide power</text>
</g>
<!-- user_on -->
<g id="node2" class="node">
<title>user_on</title>
<polygon fill="#bdfb9b" stroke="#166534" points="172.21,-1395.95 15.79,-1395.95 15.79,-1359.92 172.21,-1359.92 172.21,-1395.95"/>
<text xml:space="preserve" text-anchor="middle" x="94" y="-1370.21" font-family="Helvetica,sans-Serif" font-size="18.00">Switch power on</text>
</g>
<!-- charger_power&#45;&gt;user_on -->
<!-- batt_store -->
<g id="node4" class="node">
<title>batt_store</title>
<polygon fill="#bdfb9b" stroke="#166534" points="527.96,-1395.95 400.04,-1395.95 400.04,-1359.92 527.96,-1359.92 527.96,-1395.95"/>
<text xml:space="preserve" text-anchor="middle" x="464" y="-1370.21" font-family="Helvetica,sans-Serif" font-size="18.00">Store energy</text>
</g>
<!-- charger_power&#45;&gt;batt_store -->
<!-- charger_reg -->
<g id="node6" class="node">
<title>charger_reg</title>
<polygon fill="#bdfb9b" stroke="#166534" points="452.33,-1233.55 293.67,-1233.55 293.67,-1197.52 452.33,-1197.52 452.33,-1233.55"/>
<text xml:space="preserve" text-anchor="middle" x="373" y="-1207.81" font-family="Helvetica,sans-Serif" font-size="18.00">Regulate voltage</text>
</g>
<!-- charger_power&#45;&gt;charger_reg -->
<g id="edge33" class="edge">
<title>charger_power&#45;&gt;charger_reg</title>
<path fill="none" stroke="#1f7a4d" stroke-width="2.2" d="M163.84,-1517.82C323.02,-1508.95 698,-1488.95 698,-1488.95 698,-1488.95 698,-1343.92 698,-1343.92 698,-1343.92 550,-1335.92 550,-1335.92 550,-1335.92 452.18,-1275.1 401.64,-1240.28"/>
<polygon fill="#1f7a4d" stroke="#1f7a4d" stroke-width="2.2" points="403.39,-1238.09 395.23,-1235.8 400.18,-1242.68 403.39,-1238.09"/>
</g>
<!-- charger_power&#45;&gt;charger_reg -->
<g id="edge51" class="edge">
<title>charger_power&#45;&gt;charger_reg</title>
<path fill="none" stroke="#e11d28" stroke-width="2.2" d="M164,-1518.62C329.13,-1510.23 728,-1488.95 728,-1488.95 728,-1488.95 728,-1343.92 728,-1343.92 728,-1343.92 580,-1335.92 580,-1335.92 580,-1335.92 555.76,-1320.85 523.84,-1301.42"/>
<polygon fill="#e11d28" stroke="#e11d28" stroke-width="2.2" points="525.31,-1299.04 517.02,-1297.28 522.4,-1303.82 525.31,-1299.04"/>
<text xml:space="preserve" text-anchor="middle" x="581.08" y="-1495.86" font-family="Helvetica,sans-Serif" font-size="15.00" fill="#e11d28">USB&#45;C Cable</text>
</g>
<!-- user_off -->
<g id="node3" class="node">
<title>user_off</title>
<polygon fill="#bdfb9b" stroke="#166534" points="171.83,-1233.55 16.17,-1233.55 16.17,-1197.52 171.83,-1197.52 171.83,-1233.55"/>
<text xml:space="preserve" text-anchor="middle" x="94" y="-1207.81" font-family="Helvetica,sans-Serif" font-size="18.00">Switch power off</text>
</g>
<!-- user_on&#45;&gt;user_off -->
<!-- restore_power -->
<g id="node7" class="node">
<title>restore_power</title>
<polygon fill="#bdfb9b" stroke="#166534" points="361.71,-1113.77 220.29,-1113.77 220.29,-1077.74 361.71,-1077.74 361.71,-1113.77"/>
<text xml:space="preserve" text-anchor="middle" x="291" y="-1088.03" font-family="Helvetica,sans-Serif" font-size="18.00">Restore power</text>
</g>
<!-- user_on&#45;&gt;restore_power -->
<!-- user_on&#45;&gt;restore_power -->
<g id="edge34" class="edge">
<title>user_on&#45;&gt;restore_power</title>
<path fill="none" stroke="#1f7a4d" stroke-width="2.2" d="M146.23,-1359.43C173.99,-1348.28 202,-1335.92 202,-1335.92 202,-1335.92 266.41,-1187.81 286.54,-1124.7"/>
<polygon fill="#1f7a4d" stroke="#1f7a4d" stroke-width="2.2" points="289.19,-1125.61 288.8,-1117.15 283.82,-1124 289.19,-1125.61"/>
</g>
<!-- cut_off_power -->
<g id="node8" class="node">
<title>cut_off_power</title>
<polygon fill="#bdfb9b" stroke="#166534" points="522.46,-1113.77 391.54,-1113.77 391.54,-1077.74 522.46,-1077.74 522.46,-1113.77"/>
<text xml:space="preserve" text-anchor="middle" x="457" y="-1088.03" font-family="Helvetica,sans-Serif" font-size="18.00">Cut off power</text>
</g>
<!-- user_off&#45;&gt;cut_off_power -->
<g id="edge35" class="edge">
<title>user_off&#45;&gt;cut_off_power</title>
<path fill="none" stroke="#1f7a4d" stroke-width="2.2" d="M165.05,-1197.02C248.88,-1176.35 377,-1144.77 377,-1144.77 377,-1144.77 398.02,-1132.15 418.51,-1119.86"/>
<polygon fill="#1f7a4d" stroke="#1f7a4d" stroke-width="2.2" points="419.84,-1122.32 425.26,-1115.8 416.96,-1117.52 419.84,-1122.32"/>
</g>
<!-- batt_provide -->
<g id="node5" class="node">
<title>batt_provide</title>
<polygon fill="#bdfb9b" stroke="#166534" points="697.59,-1395.95 558.41,-1395.95 558.41,-1359.92 697.59,-1359.92 697.59,-1395.95"/>
<text xml:space="preserve" text-anchor="middle" x="628" y="-1370.21" font-family="Helvetica,sans-Serif" font-size="18.00">Provide power</text>
</g>
<!-- batt_store&#45;&gt;batt_provide -->
<!-- batt_store&#45;&gt;charger_reg -->
<!-- batt_store&#45;&gt;restore_power -->
<g id="edge52" class="edge">
<title>batt_store&#45;&gt;restore_power</title>
<path fill="none" stroke="#e11d28" stroke-width="2.2" d="M543,-1343.92C543,-1343.92 691,-1335.92 691,-1335.92 691,-1335.92 691,-1172.14 691,-1172.14 691,-1172.14 622.37,-1166.16 549.28,-1159.79"/>
<polygon fill="#e11d28" stroke="#e11d28" stroke-width="2.2" points="549.53,-1157 541.31,-1159.1 549.04,-1162.58 549.53,-1157"/>
<text xml:space="preserve" text-anchor="middle" x="751.75" y="-1258.51" font-family="Helvetica,sans-Serif" font-size="15.00" fill="#e11d28">Battery Cable JST</text>
</g>
<!-- regulate_voltage -->
<g id="node9" class="node">
<title>regulate_voltage</title>
<polygon fill="#bdfb9b" stroke="#166534" points="676.21,-1242.92 579.79,-1242.92 579.79,-1188.14 676.21,-1188.14 676.21,-1242.92"/>
<text xml:space="preserve" text-anchor="middle" x="628" y="-1217.18" font-family="Helvetica,sans-Serif" font-size="18.00">Regulate</text>
<text xml:space="preserve" text-anchor="middle" x="628" y="-1198.43" font-family="Helvetica,sans-Serif" font-size="18.00">voltage</text>
</g>
<!-- batt_provide&#45;&gt;regulate_voltage -->
<!-- batt_provide&#45;&gt;regulate_voltage -->
<!-- batt_provide&#45;&gt;regulate_voltage -->
<g id="edge37" class="edge">
<title>batt_provide&#45;&gt;regulate_voltage</title>
<path fill="none" stroke="#1f7a4d" stroke-width="2.2" d="M642.67,-1359.47C651.19,-1334.3 652.76,-1287.22 647.38,-1253.98"/>
<polygon fill="#1f7a4d" stroke="#1f7a4d" stroke-width="2.2" points="650.21,-1253.88 645.92,-1246.56 644.71,-1254.95 650.21,-1253.88"/>
</g>
<!-- charger_reg&#45;&gt;batt_store -->
<g id="edge36" class="edge">
<title>charger_reg&#45;&gt;batt_store</title>
<path fill="none" stroke="#1f7a4d" stroke-width="2.2" d="M375.57,-1233.98C386.74,-1262.05 417.72,-1317.42 440.33,-1350.4"/>
<polygon fill="#1f7a4d" stroke="#1f7a4d" stroke-width="2.2" points="437.92,-1351.84 444.83,-1356.75 442.49,-1348.61 437.92,-1351.84"/>
</g>
<!-- charger_reg&#45;&gt;restore_power -->
<!-- restore_power&#45;&gt;cut_off_power -->
<!-- connector_terminal -->
<g id="node10" class="node">
<title>connector_terminal</title>
<polygon fill="#fff5b0" stroke="#d1b24a" points="691.84,-1123.14 584.16,-1123.14 584.16,-1068.36 691.84,-1068.36 691.84,-1123.14"/>
<text xml:space="preserve" text-anchor="middle" x="638" y="-1097.4" font-family="Helvetica,sans-Serif" font-size="18.00">Connector</text>
<text xml:space="preserve" text-anchor="middle" x="638" y="-1078.65" font-family="Helvetica,sans-Serif" font-size="18.00">Terminal</text>
</g>
<!-- restore_power&#45;&gt;connector_terminal -->
<g id="edge53" class="edge">
<title>restore_power&#45;&gt;connector_terminal</title>
<path fill="none" stroke="#e11d28" stroke-width="2.2" d="M538,-1158.46C543.06,-1158.46 546,-1158.46 546,-1158.46 546,-1158.46 566.32,-1144.61 587.86,-1129.93"/>
<polygon fill="#e11d28" stroke="#e11d28" stroke-width="2.2" points="589.33,-1132.32 594.36,-1125.5 586.17,-1127.69 589.33,-1132.32"/>
<text xml:space="preserve" text-anchor="middle" x="496.5" y="-1147.95" font-family="Helvetica,sans-Serif" font-size="15.00" fill="#e11d28">PC Out trace / GND</text>
</g>
<!-- ina_measure_v -->
<g id="node11" class="node">
<title>ina_measure_v</title>
<polygon fill="#bdfb9b" stroke="#166534" points="378.58,-991.74 221.42,-991.74 221.42,-955.71 378.58,-955.71 378.58,-991.74"/>
<text xml:space="preserve" text-anchor="middle" x="300" y="-966" font-family="Helvetica,sans-Serif" font-size="18.00">Measure voltage</text>
</g>
<!-- restore_power&#45;&gt;ina_measure_v -->
<!-- restore_power&#45;&gt;ina_measure_v -->
<g id="edge54" class="edge">
<title>restore_power&#45;&gt;ina_measure_v</title>
<path fill="none" stroke="#e11d28" stroke-width="2.2" d="M303.14,-1061.74C303.55,-1059.74 303.97,-1057.74 304.39,-1055.74"/>
<polygon fill="#e11d28" stroke="#e11d28" stroke-width="2.2" points="305.23,-1065.4 304.13,-1057 299.75,-1064.26 305.23,-1065.4"/>
<text xml:space="preserve" text-anchor="middle" x="277.14" y="-1060.24" font-family="Helvetica,sans-Serif" font-size="15.00" fill="#e11d28">INA Out</text>
</g>
<!-- regulate_voltage&#45;&gt;connector_terminal -->
<g id="edge55" class="edge">
<title>regulate_voltage&#45;&gt;connector_terminal</title>
<path fill="none" stroke="#e11d28" stroke-width="2.2" d="M631.6,-1172.15C632.65,-1159.78 633.79,-1146.36 634.81,-1134.32"/>
<polygon fill="#e11d28" stroke="#e11d28" stroke-width="2.2" points="637.57,-1134.9 635.46,-1126.69 631.99,-1134.43 637.57,-1134.9"/>
<text xml:space="preserve" text-anchor="middle" x="685.33" y="-1154.73" font-family="Helvetica,sans-Serif" font-size="15.00" fill="#e11d28">5V / 3V3 / GND</text>
</g>
<!-- ina_measure_i -->
<g id="node12" class="node">
<title>ina_measure_i</title>
<polygon fill="#bdfb9b" stroke="#166534" points="563.84,-991.74 408.17,-991.74 408.17,-955.71 563.84,-955.71 563.84,-991.74"/>
<text xml:space="preserve" text-anchor="middle" x="486" y="-966" font-family="Helvetica,sans-Serif" font-size="18.00">Measure current</text>
</g>
<!-- regulate_voltage&#45;&gt;ina_measure_i -->
<!-- xiao_collect -->
<g id="node21" class="node">
<title>xiao_collect</title>
<polygon fill="#bdfb9b" stroke="#166534" points="692.46,-187.81 447.54,-187.81 447.54,-151.78 692.46,-151.78 692.46,-187.81"/>
<text xml:space="preserve" text-anchor="middle" x="570" y="-162.07" font-family="Helvetica,sans-Serif" font-size="18.00">Collect PDS measurements</text>
</g>
<!-- regulate_voltage&#45;&gt;xiao_collect -->
<!-- ina_respond -->
<g id="node13" class="node">
<title>ina_respond</title>
<polygon fill="#bdfb9b" stroke="#166534" points="531.96,-890.71 302.04,-890.71 302.04,-854.68 531.96,-854.68 531.96,-890.71"/>
<text xml:space="preserve" text-anchor="middle" x="417" y="-864.97" font-family="Helvetica,sans-Serif" font-size="18.00">Respond to I2C Requests</text>
</g>
<!-- connector_terminal&#45;&gt;ina_respond -->
<!-- xiao_get_init -->
<g id="node14" class="node">
<title>xiao_get_init</title>
<polygon fill="#bdfb9b" stroke="#166534" points="374.33,-760.68 281.67,-760.68 281.67,-687.15 374.33,-687.15 374.33,-760.68"/>
<text xml:space="preserve" text-anchor="middle" x="328" y="-734.94" font-family="Helvetica,sans-Serif" font-size="18.00">Get</text>
<text xml:space="preserve" text-anchor="middle" x="328" y="-716.19" font-family="Helvetica,sans-Serif" font-size="18.00">INA219</text>
<text xml:space="preserve" text-anchor="middle" x="328" y="-697.44" font-family="Helvetica,sans-Serif" font-size="18.00">init state</text>
</g>
<!-- connector_terminal&#45;&gt;xiao_get_init -->
<!-- xiao_read_v -->
<g id="node17" class="node">
<title>xiao_read_v</title>
<polygon fill="#bdfb9b" stroke="#166534" points="534.09,-741.93 403.92,-741.93 403.92,-705.9 534.09,-705.9 534.09,-741.93"/>
<text xml:space="preserve" text-anchor="middle" x="469" y="-716.19" font-family="Helvetica,sans-Serif" font-size="18.00">Read voltage</text>
</g>
<!-- connector_terminal&#45;&gt;xiao_read_v -->
<g id="edge56" class="edge">
<title>connector_terminal&#45;&gt;xiao_read_v</title>
<path fill="none" stroke="#e11d28" stroke-width="2.2" d="M635,-830.68C635,-830.68 583.55,-825.89 560.24,-823.73"/>
<polygon fill="#e11d28" stroke="#e11d28" stroke-width="2.2" points="560.54,-820.94 552.32,-822.99 560.02,-826.52 560.54,-820.94"/>
<text xml:space="preserve" text-anchor="middle" x="561.25" y="-828.7" font-family="Helvetica,sans-Serif" font-size="15.00" fill="#e11d28">3V3 / GND</text>
</g>
<!-- xiao_read_i -->
<g id="node18" class="node">
<title>xiao_read_i</title>
<polygon fill="#bdfb9b" stroke="#166534" points="692.34,-741.93 563.66,-741.93 563.66,-705.9 692.34,-705.9 692.34,-741.93"/>
<text xml:space="preserve" text-anchor="middle" x="628" y="-716.19" font-family="Helvetica,sans-Serif" font-size="18.00">Read current</text>
</g>
<!-- connector_terminal&#45;&gt;xiao_read_i -->
<g id="edge57" class="edge">
<title>connector_terminal&#45;&gt;xiao_read_i</title>
<path fill="none" stroke="#e11d28" stroke-width="2.2" d="M664.98,-830.68C664.75,-828.68 664.52,-826.68 664.28,-824.68"/>
<polygon fill="#e11d28" stroke="#e11d28" stroke-width="2.2" points="668.14,-833.61 664.44,-825.98 662.58,-834.26 668.14,-833.61"/>
<text xml:space="preserve" text-anchor="middle" x="632.38" y="-829.18" font-family="Helvetica,sans-Serif" font-size="15.00" fill="#e11d28">5V / GND</text>
</g>
<!-- ina_measure_v&#45;&gt;ina_measure_i -->
<!-- ina_measure_v&#45;&gt;ina_respond -->
<!-- ina_measure_v&#45;&gt;ina_respond -->
<g id="edge38" class="edge">
<title>ina_measure_v&#45;&gt;ina_respond</title>
<path fill="none" stroke="#1f7a4d" stroke-width="2.2" d="M329.47,-955.25C350.83,-939.55 378.64,-916.32 397.41,-898.67"/>
<polygon fill="#1f7a4d" stroke="#1f7a4d" stroke-width="2.2" points="399.15,-900.89 402.95,-893.31 395.26,-896.86 399.15,-900.89"/>
</g>
<!-- ina_measure_v&#45;&gt;xiao_read_v -->
<g id="edge49" class="edge">
<title>ina_measure_v&#45;&gt;xiao_read_v</title>
<path fill="none" stroke="#1f7a4d" stroke-width="2.2" d="M352.68,-955.23C425.23,-931.14 547,-890.71 547,-890.71 547,-890.71 547,-830.68 547,-830.68 547,-830.68 511.41,-782.42 488.31,-751.1"/>
<polygon fill="#1f7a4d" stroke="#1f7a4d" stroke-width="2.2" points="490.86,-749.84 483.86,-745.06 486.35,-753.16 490.86,-749.84"/>
</g>
<!-- ina_measure_i&#45;&gt;ina_respond -->
<!-- ina_measure_i&#45;&gt;ina_respond -->
<g id="edge39" class="edge">
<title>ina_measure_i&#45;&gt;ina_respond</title>
<path fill="none" stroke="#1f7a4d" stroke-width="2.2" d="M482.76,-955.48C474.84,-940.09 459.41,-917.35 445.2,-899.75"/>
<polygon fill="#1f7a4d" stroke="#1f7a4d" stroke-width="2.2" points="447.35,-897.95 440.06,-893.63 443.06,-901.56 447.35,-897.95"/>
</g>
<!-- ina_measure_i&#45;&gt;xiao_read_i -->
<g id="edge50" class="edge">
<title>ina_measure_i&#45;&gt;xiao_read_i</title>
<path fill="none" stroke="#1f7a4d" stroke-width="2.2" d="M504.03,-955.33C528.98,-931.26 571,-890.71 571,-890.71 571,-890.71 602.17,-800.03 618.41,-752.8"/>
<polygon fill="#1f7a4d" stroke="#1f7a4d" stroke-width="2.2" points="620.97,-753.97 620.93,-745.49 615.68,-752.15 620.97,-753.97"/>
</g>
<!-- ina_respond&#45;&gt;xiao_read_v -->
<!-- xiao_get_init&#45;&gt;ina_respond -->
<g id="edge46" class="edge">
<title>xiao_get_init&#45;&gt;ina_respond</title>
<path fill="none" stroke="#1f7a4d" stroke-width="2.2" d="M349.92,-761.07C365.59,-786.91 386.33,-821.12 400.58,-844.61"/>
<polygon fill="#1f7a4d" stroke="#1f7a4d" stroke-width="2.2" points="398.17,-846.04 404.71,-851.43 402.96,-843.14 398.17,-846.04"/>
<text xml:space="preserve" text-anchor="middle" x="343.38" y="-804.34" font-family="Helvetica,sans-Serif" font-size="15.00" fill="#1f7a4d">[I2C Req]</text>
</g>
<!-- xiao_collect_init -->
<g id="node15" class="node">
<title>xiao_collect_init</title>
<polygon fill="#bdfb9b" stroke="#166534" points="376.83,-622.15 245.17,-622.15 245.17,-548.62 376.83,-548.62 376.83,-622.15"/>
<text xml:space="preserve" text-anchor="middle" x="311" y="-596.41" font-family="Helvetica,sans-Serif" font-size="18.00">Collect</text>
<text xml:space="preserve" text-anchor="middle" x="311" y="-577.66" font-family="Helvetica,sans-Serif" font-size="18.00">peripheral init</text>
<text xml:space="preserve" text-anchor="middle" x="311" y="-558.91" font-family="Helvetica,sans-Serif" font-size="18.00">states</text>
</g>
<!-- xiao_get_init&#45;&gt;xiao_collect_init -->
<!-- xiao_get_init&#45;&gt;xiao_collect_init -->
<g id="edge40" class="edge">
<title>xiao_get_init&#45;&gt;xiao_collect_init</title>
<path fill="none" stroke="#1f7a4d" stroke-width="2.2" d="M333.56,-686.69C332.82,-670.36 330.62,-650.86 327.61,-633.42"/>
<polygon fill="#1f7a4d" stroke="#1f7a4d" stroke-width="2.2" points="330.36,-632.93 326.13,-625.58 324.86,-633.96 330.36,-632.93"/>
<text xml:space="preserve" text-anchor="middle" x="305.08" y="-661.55" font-family="Helvetica,sans-Serif" font-size="15.00" fill="#1f7a4d">[Result]</text>
</g>
<!-- xiao_init_bus -->
<g id="node16" class="node">
<title>xiao_init_bus</title>
<polygon fill="#bdfb9b" stroke="#166534" points="380.21,-464.87 235.79,-464.87 235.79,-410.09 380.21,-410.09 380.21,-464.87"/>
<text xml:space="preserve" text-anchor="middle" x="308" y="-439.13" font-family="Helvetica,sans-Serif" font-size="18.00">Init Serial0 and</text>
<text xml:space="preserve" text-anchor="middle" x="308" y="-420.38" font-family="Helvetica,sans-Serif" font-size="18.00">I2C</text>
</g>
<!-- xiao_collect_init&#45;&gt;xiao_init_bus -->
<!-- xiao_read_v&#45;&gt;ina_respond -->
<g id="edge47" class="edge">
<title>xiao_read_v&#45;&gt;ina_respond</title>
<path fill="none" stroke="#1f7a4d" stroke-width="2.2" d="M455.25,-742.31C442.11,-767.23 425.25,-813.4 417.95,-843.32"/>
<polygon fill="#1f7a4d" stroke="#1f7a4d" stroke-width="2.2" points="415.24,-842.62 416.28,-851.03 420.71,-843.8 415.24,-842.62"/>
<text xml:space="preserve" text-anchor="middle" x="404.73" y="-778.56" font-family="Helvetica,sans-Serif" font-size="15.00" fill="#1f7a4d">[I2C Req]</text>
</g>
<!-- xiao_process_v -->
<g id="node19" class="node">
<title>xiao_process_v</title>
<polygon fill="#bdfb9b" stroke="#166534" points="514.21,-464.87 423.79,-464.87 423.79,-410.09 514.21,-410.09 514.21,-464.87"/>
<text xml:space="preserve" text-anchor="middle" x="469" y="-439.13" font-family="Helvetica,sans-Serif" font-size="18.00">Process</text>
<text xml:space="preserve" text-anchor="middle" x="469" y="-420.38" font-family="Helvetica,sans-Serif" font-size="18.00">voltage</text>
</g>
<!-- xiao_read_v&#45;&gt;xiao_process_v -->
<!-- xiao_read_v&#45;&gt;xiao_process_v -->
<g id="edge41" class="edge">
<title>xiao_read_v&#45;&gt;xiao_process_v</title>
<path fill="none" stroke="#1f7a4d" stroke-width="2.2" d="M474.75,-705.55C481.26,-660.45 481.99,-538.79 476.95,-476.44"/>
<polygon fill="#1f7a4d" stroke="#1f7a4d" stroke-width="2.2" points="479.74,-476.19 476.21,-468.48 474.16,-476.71 479.74,-476.19"/>
</g>
<!-- xiao_read_i&#45;&gt;ina_respond -->
<g id="edge48" class="edge">
<title>xiao_read_i&#45;&gt;ina_respond</title>
<path fill="none" stroke="#1f7a4d" stroke-width="2.2" d="M613.88,-742.39C591.15,-770.51 549,-822.68 549,-822.68 549,-822.68 509.94,-837.18 474.32,-850.41"/>
<polygon fill="#1f7a4d" stroke="#1f7a4d" stroke-width="2.2" points="473.56,-847.71 467.03,-853.12 475.51,-852.96 473.56,-847.71"/>
<text xml:space="preserve" text-anchor="middle" x="588.28" y="-799.27" font-family="Helvetica,sans-Serif" font-size="15.00" fill="#1f7a4d">[I2C Req]</text>
</g>
<!-- xiao_process_i -->
<g id="node20" class="node">
<title>xiao_process_i</title>
<polygon fill="#bdfb9b" stroke="#166534" points="673.21,-464.87 582.79,-464.87 582.79,-410.09 673.21,-410.09 673.21,-464.87"/>
<text xml:space="preserve" text-anchor="middle" x="628" y="-439.13" font-family="Helvetica,sans-Serif" font-size="18.00">Process</text>
<text xml:space="preserve" text-anchor="middle" x="628" y="-420.38" font-family="Helvetica,sans-Serif" font-size="18.00">current</text>
</g>
<!-- xiao_read_i&#45;&gt;xiao_process_i -->
<!-- xiao_read_i&#45;&gt;xiao_process_i -->
<g id="edge42" class="edge">
<title>xiao_read_i&#45;&gt;xiao_process_i</title>
<path fill="none" stroke="#1f7a4d" stroke-width="2.2" d="M633.75,-705.55C640.26,-660.45 640.99,-538.79 635.95,-476.44"/>
<polygon fill="#1f7a4d" stroke="#1f7a4d" stroke-width="2.2" points="638.74,-476.19 635.21,-468.48 633.16,-476.71 638.74,-476.19"/>
</g>
<!-- note_vgt -->
<g id="node25" class="node">
<title>note_vgt</title>
<polygon fill="#fff5b0" stroke="#d1b24a" points="1066.46,-483.62 767.54,-483.62 767.54,-391.34 1066.46,-391.34 1066.46,-483.62"/>
<text xml:space="preserve" text-anchor="middle" x="917" y="-457.88" font-family="Helvetica,sans-Serif" font-size="18.00">All pairs of (Read X, Process X) or</text>
<text xml:space="preserve" text-anchor="middle" x="917" y="-439.13" font-family="Helvetica,sans-Serif" font-size="18.00">(Read X, Calculate Y) must be</text>
<text xml:space="preserve" text-anchor="middle" x="917" y="-420.38" font-family="Helvetica,sans-Serif" font-size="18.00">implemented as a Variable Getter</text>
<text xml:space="preserve" text-anchor="middle" x="917" y="-401.63" font-family="Helvetica,sans-Serif" font-size="18.00">Template</text>
</g>
<!-- xiao_read_i&#45;&gt;note_vgt -->
<!-- xiao_process_v&#45;&gt;xiao_collect -->
<!-- xiao_process_v&#45;&gt;xiao_collect -->
<g id="edge43" class="edge">
<title>xiao_process_v&#45;&gt;xiao_collect</title>
<path fill="none" stroke="#1f7a4d" stroke-width="2.2" d="M486.13,-410.03C510.8,-359.64 552.42,-250.28 566.61,-198.74"/>
<polygon fill="#1f7a4d" stroke="#1f7a4d" stroke-width="2.2" points="569.24,-199.76 568.51,-191.32 563.81,-198.37 569.24,-199.76"/>
<text xml:space="preserve" text-anchor="middle" x="500.87" y="-305.89" font-family="Helvetica,sans-Serif" font-size="15.00" fill="#1f7a4d">[Result]</text>
</g>
<!-- xiao_process_i&#45;&gt;xiao_collect -->
<!-- xiao_process_i&#45;&gt;xiao_collect -->
<g id="edge44" class="edge">
<title>xiao_process_i&#45;&gt;xiao_collect</title>
<path fill="none" stroke="#1f7a4d" stroke-width="2.2" d="M629.3,-410.03C623.81,-359.64 599.99,-250.28 583.33,-198.74"/>
<polygon fill="#1f7a4d" stroke="#1f7a4d" stroke-width="2.2" points="586.01,-197.9 580.77,-191.24 580.71,-199.72 586.01,-197.9"/>
<text xml:space="preserve" text-anchor="middle" x="580.82" y="-305.89" font-family="Helvetica,sans-Serif" font-size="15.00" fill="#1f7a4d">[Result]</text>
</g>
<!-- xiao_log -->
<g id="node22" class="node">
<title>xiao_log</title>
<polygon fill="#bdfb9b" stroke="#166534" points="691.96,-68.03 426.04,-68.03 426.04,-32 691.96,-32 691.96,-68.03"/>
<text xml:space="preserve" text-anchor="middle" x="559" y="-42.29" font-family="Helvetica,sans-Serif" font-size="18.00">Log measurements via Serial0</text>
</g>
<!-- xiao_collect&#45;&gt;xiao_log -->
<!-- xiao_collect&#45;&gt;xiao_log -->
<g id="edge45" class="edge">
<title>xiao_collect&#45;&gt;xiao_log</title>
<path fill="none" stroke="#1f7a4d" stroke-width="2.2" d="M576.64,-151.42C578.26,-132.45 575.9,-101.81 571.43,-79.35"/>
<polygon fill="#1f7a4d" stroke="#1f7a4d" stroke-width="2.2" points="574.19,-78.87 569.65,-71.71 568.73,-80.13 574.19,-78.87"/>
<text xml:space="preserve" text-anchor="middle" x="527.91" y="-116.89" font-family="Helvetica,sans-Serif" font-size="15.00" fill="#1f7a4d">[LoRa Frame]</text>
</g>
<!-- note_nb -->
<g id="node23" class="node">
<title>note_nb</title>
<polygon fill="#fff5b0" stroke="#d1b24a" points="1033.84,-760.68 800.16,-760.68 800.16,-687.15 1033.84,-687.15 1033.84,-760.68"/>
<text xml:space="preserve" text-anchor="middle" x="917" y="-734.94" font-family="Helvetica,sans-Serif" font-size="18.00">No blocking</text>
<text xml:space="preserve" text-anchor="middle" x="917" y="-716.19" font-family="Helvetica,sans-Serif" font-size="18.00">{c} operations besides I2C</text>
<text xml:space="preserve" text-anchor="middle" x="917" y="-697.44" font-family="Helvetica,sans-Serif" font-size="18.00">or UART comms</text>
</g>
<!-- note_nb&#45;&gt;xiao_read_v -->
<g id="edge58" class="edge">
<title>note_nb&#45;&gt;xiao_read_v</title>
<path fill="none" stroke="#333333" stroke-width="2.2" stroke-dasharray="5,2" d="M846.95,-761.11C794.22,-789.11 731,-822.68 731,-822.68 731,-822.68 716,-826.68 716,-826.68 716,-826.68 564,-826.68 564,-826.68 564,-826.68 549,-822.68 549,-822.68 549,-822.68 514.32,-779.86 490.62,-750.61"/>
<polygon fill="#333333" stroke="#333333" stroke-width="2.2" points="492.98,-749.07 485.77,-744.62 488.63,-752.6 492.98,-749.07"/>
</g>
<!-- note_nb&#45;&gt;xiao_read_i -->
<g id="edge59" class="edge">
<title>note_nb&#45;&gt;xiao_read_i</title>
<path fill="none" stroke="#333333" stroke-width="2.2" stroke-dasharray="5,2" d="M799.76,-723.91C771.43,-723.91 724.33,-723.91 724.33,-723.91 724.33,-723.91 715.89,-723.91 704,-723.91"/>
<polygon fill="#333333" stroke="#333333" stroke-width="2.2" points="704.12,-721.12 696.12,-723.92 704.12,-726.72 704.12,-721.12"/>
</g>
<!-- note_to -->
<g id="node24" class="node">
<title>note_to</title>
<polygon fill="#fff5b0" stroke="#d1b24a" points="1018.09,-622.15 815.91,-622.15 815.91,-548.62 1018.09,-548.62 1018.09,-622.15"/>
<text xml:space="preserve" text-anchor="middle" x="917" y="-596.41" font-family="Helvetica,sans-Serif" font-size="18.00">All I2C Read functions</text>
<text xml:space="preserve" text-anchor="middle" x="917" y="-577.66" font-family="Helvetica,sans-Serif" font-size="18.00">{c} must have a max.</text>
<text xml:space="preserve" text-anchor="middle" x="917" y="-558.91" font-family="Helvetica,sans-Serif" font-size="18.00">timeout of 5 ms</text>
</g>
<!-- note_nb&#45;&gt;note_to -->
<!-- note_to&#45;&gt;xiao_read_v -->
<g id="edge60" class="edge">
<title>note_to&#45;&gt;xiao_read_v</title>
<path fill="none" stroke="#333333" stroke-width="2.2" stroke-dasharray="5,2" d="M815.47,-614.19C706.54,-644.01 549,-687.15 549,-687.15 549,-687.15 534.58,-693.59 517.99,-701.01"/>
<polygon fill="#333333" stroke="#333333" stroke-width="2.2" points="517.26,-698.27 511.1,-704.09 519.55,-703.38 517.26,-698.27"/>
</g>
<!-- note_to&#45;&gt;xiao_read_i -->
<g id="edge61" class="edge">
<title>note_to&#45;&gt;xiao_read_i</title>
<path fill="none" stroke="#333333" stroke-width="2.2" stroke-dasharray="5,2" d="M840.51,-622.52C787.88,-647.38 719.67,-679.61 674.91,-700.75"/>
<polygon fill="#333333" stroke="#333333" stroke-width="2.2" points="673.94,-698.11 667.91,-704.06 676.34,-703.18 673.94,-698.11"/>
</g>
<!-- note_to&#45;&gt;note_vgt -->
<!-- note_vgt&#45;&gt;xiao_process_v -->
<g id="edge62" class="edge">
<title>note_vgt&#45;&gt;xiao_process_v</title>
<path fill="none" stroke="#333333" stroke-width="2.2" stroke-dasharray="5,2" d="M798.04,-484.02C754.64,-501 716,-516.12 716,-516.12 716,-516.12 583,-516.12 583,-516.12 583,-516.12 549.05,-492.7 518.2,-471.42"/>
<polygon fill="#333333" stroke="#333333" stroke-width="2.2" points="520.11,-469.33 511.93,-467.1 516.93,-473.94 520.11,-469.33"/>
</g>
<!-- note_vgt&#45;&gt;xiao_process_i -->
<g id="edge63" class="edge">
<title>note_vgt&#45;&gt;xiao_process_i</title>
<path fill="none" stroke="#333333" stroke-width="2.2" stroke-dasharray="5,2" d="M767.15,-437.48C744.97,-437.48 724.33,-437.48 724.33,-437.48 724.33,-437.48 705.62,-437.48 684.69,-437.48"/>
<polygon fill="#333333" stroke="#333333" stroke-width="2.2" points="684.96,-434.68 676.96,-437.48 684.96,-440.28 684.96,-434.68"/>
</g>
<!-- note_proc -->
<g id="node26" class="node">
<title>note_proc</title>
<polygon fill="#fff5b0" stroke="#d1b24a" points="1038.71,-326.34 795.29,-326.34 795.29,-252.81 1038.71,-252.81 1038.71,-326.34"/>
<text xml:space="preserve" text-anchor="middle" x="917" y="-300.6" font-family="Helvetica,sans-Serif" font-size="18.00">All Process or Calculate</text>
<text xml:space="preserve" text-anchor="middle" x="917" y="-281.85" font-family="Helvetica,sans-Serif" font-size="18.00">{c} functions must take less</text>
<text xml:space="preserve" text-anchor="middle" x="917" y="-263.1" font-family="Helvetica,sans-Serif" font-size="18.00">than 5ms</text>
</g>
<!-- note_vgt&#45;&gt;note_proc -->
<!-- note_proc&#45;&gt;xiao_process_i -->
<g id="edge64" class="edge">
<title>note_proc&#45;&gt;xiao_process_i</title>
<path fill="none" stroke="#333333" stroke-width="2.2" stroke-dasharray="5,2" d="M845.35,-326.75C795.36,-351.99 729.61,-385.18 683.57,-408.43"/>
<polygon fill="#333333" stroke="#333333" stroke-width="2.2" points="682.33,-405.92 676.45,-412.02 684.85,-410.92 682.33,-405.92"/>
</g>
<!-- note_5hz -->
<g id="node27" class="node">
<title>note_5hz</title>
<polygon fill="#fff5b0" stroke="#d1b24a" points="971.96,-187.81 862.04,-187.81 862.04,-151.78 971.96,-151.78 971.96,-187.81"/>
<text xml:space="preserve" text-anchor="middle" x="917" y="-162.07" font-family="Helvetica,sans-Serif" font-size="18.00">{c} At 5 Hz</text>
</g>
<!-- note_proc&#45;&gt;note_5hz -->
<!-- note_5hz&#45;&gt;xiao_collect -->
<g id="edge65" class="edge">
<title>note_5hz&#45;&gt;xiao_collect</title>
<path fill="none" stroke="#333333" stroke-width="2.2" stroke-dasharray="5,2" d="M861.88,-169.8C832.09,-169.8 801.33,-169.8 801.33,-169.8 801.33,-169.8 736.56,-169.8 703.96,-169.8"/>
<polygon fill="#333333" stroke="#333333" stroke-width="2.2" points="704.23,-167 696.23,-169.8 704.23,-172.6 704.23,-167"/>
</g>
<!-- note_zero -->
<g id="node28" class="node">
<title>note_zero</title>
<polygon fill="#fff5b0" stroke="#d1b24a" points="989.21,-86.78 844.79,-86.78 844.79,-13.25 989.21,-13.25 989.21,-86.78"/>
<text xml:space="preserve" text-anchor="middle" x="917" y="-61.04" font-family="Helvetica,sans-Serif" font-size="18.00">Set unused</text>
<text xml:space="preserve" text-anchor="middle" x="917" y="-42.29" font-family="Helvetica,sans-Serif" font-size="18.00">{c} frame fields</text>
<text xml:space="preserve" text-anchor="middle" x="917" y="-23.54" font-family="Helvetica,sans-Serif" font-size="18.00">to 0</text>
</g>
<!-- note_5hz&#45;&gt;note_zero -->
<!-- note_zero&#45;&gt;xiao_collect -->
<g id="edge66" class="edge">
<title>note_zero&#45;&gt;xiao_collect</title>
<path fill="none" stroke="#333333" stroke-width="2.2" stroke-dasharray="5,2" d="M844.59,-75.59C781.69,-96.94 691.59,-127.53 631.97,-147.76"/>
<polygon fill="#333333" stroke="#333333" stroke-width="2.2" points="631.4,-145 624.73,-150.22 633.2,-150.3 631.4,-145"/>
</g>
</g>
</svg>
