<?xml version="1.0" encoding="UTF-8" standalone="no"?>
<!DOCTYPE svg PUBLIC "-//W3C//DTD SVG 1.1//EN"
 "http://www.w3.org/Graphics/SVG/1.1/DTD/svg11.dtd">
<!-- Generated by graphviz version 14.1.4 (20260321.0153)
 -->
<!-- Title: PDS_v0_2 Pages: 1 -->
<svg width="1566pt" height="1582pt"
 viewBox="0.00 0.00 1566.00 1582.00" xmlns="http://www.w3.org/2000/svg" xmlns:xlink="http://www.w3.org/1999/xlink">
<g id="graph0" class="graph" transform="scale(1 1) rotate(0) translate(20.16 1561.87)">
<title>PDS_v0_2</title>
<polygon fill="white" stroke="none" points="-20.16,20.16 -20.16,-1561.87 1545.62,-1561.87 1545.62,20.16 -20.16,20.16"/>
<g id="clust1" class="cluster">
<title>cluster_charger</title>
<path fill="#bfeaf4" stroke="#5b65c9" stroke-width="2" d="M36,-1351.92C36,-1351.92 168,-1351.92 168,-1351.92 174,-1351.92 180,-1357.92 180,-1363.92 180,-1363.92 180,-1521.71 180,-1521.71 180,-1527.71 174,-1533.71 168,-1533.71 168,-1533.71 36,-1533.71 36,-1533.71 30,-1533.71 24,-1527.71 24,-1521.71 24,-1521.71 24,-1363.92 24,-1363.92 24,-1357.92 30,-1351.92 36,-1351.92"/>
<text xml:space="preserve" text-anchor="middle" x="102" y="-1516.41" font-family="Helvetica,sans-Serif" font-size="14.00">Charger</text>
</g>
<g id="clust2" class="cluster">
<title>cluster_user</title>
<path fill="#bfeaf4" stroke="#5b65c9" stroke-width="2" d="M20,-1079.11C20,-1079.11 168,-1079.11 168,-1079.11 174,-1079.11 180,-1085.11 180,-1091.11 180,-1091.11 180,-1252.55 180,-1252.55 180,-1258.55 174,-1264.55 168,-1264.55 168,-1264.55 20,-1264.55 20,-1264.55 14,-1264.55 8,-1258.55 8,-1252.55 8,-1252.55 8,-1091.11 8,-1091.11 8,-1085.11 14,-1079.11 20,-1079.11"/>
<text xml:space="preserve" text-anchor="middle" x="94" y="-1247.25" font-family="Helvetica,sans-Serif" font-size="14.00">User</text>
</g>
<g id="clust3" class="cluster">
<title>cluster_pds</title>
<path fill="#d9d9d9" stroke="#888888" stroke-width="2" d="M200,-8C200,-8 1179,-8 1179,-8 1185,-8 1191,-14 1191,-20 1191,-20 1191,-1476.95 1191,-1476.95 1191,-1482.95 1185,-1488.95 1179,-1488.95 1179,-1488.95 200,-1488.95 200,-1488.95 194,-1488.95 188,-1482.95 188,-1476.95 188,-1476.95 188,-20 188,-20 188,-14 194,-8 200,-8"/>
<text xml:space="preserve" text-anchor="middle" x="689.5" y="-1471.65" font-family="Helvetica,sans-Serif" font-size="14.00">PDS v0.2&#45;0.3 Subsystem</text>
</g>
<g id="clust4" class="cluster">
<title>cluster_battpack</title>
<polygon fill="#fff8bf" stroke="#d1b24a" stroke-width="2" points="438,-1343.92 438,-1457.95 804,-1457.95 804,-1343.92 438,-1343.92"/>
<text xml:space="preserve" text-anchor="middle" x="621" y="-1440.65" font-family="Helvetica,sans-Serif" font-size="14.00">1S1P Li&#45;Ion</text>
</g>
<g id="clust5" class="cluster">
<title>cluster_battery</title>
<path fill="#a9c7e6" stroke="#5b65c9" stroke-width="2" d="M458,-1351.92C458,-1351.92 784,-1351.92 784,-1351.92 790,-1351.92 796,-1357.92 796,-1363.92 796,-1363.92 796,-1414.95 796,-1414.95 796,-1420.95 790,-1426.95 784,-1426.95 784,-1426.95 458,-1426.95 458,-1426.95 452,-1426.95 446,-1420.95 446,-1414.95 446,-1414.95 446,-1363.92 446,-1363.92 446,-1357.92 452,-1351.92 458,-1351.92"/>
<text xml:space="preserve" text-anchor="middle" x="621" y="-1409.65" font-family="Helvetica,sans-Serif" font-size="14.00">Battery</text>
</g>
<g id="clust6" class="cluster">
<title>cluster_board</title>
<polygon fill="#fff8bf" stroke="#d1b24a" stroke-width="2" points="196,-830.68 196,-1335.92 790,-1335.92 790,-830.68 196,-830.68"/>
<text xml:space="preserve" text-anchor="middle" x="493" y="-1318.62" font-family="Helvetica,sans-Serif" font-size="14.00">PDS Circuitboard</text>
</g>
<g id="clust7" class="cluster">
<title>cluster_protection</title>
<polygon fill="#fff8bf" stroke="#d1b24a" stroke-width="2" points="204,-1071.11 204,-1295.55 610,-1295.55 610,-1071.11 204,-1071.11"/>
<text xml:space="preserve" text-anchor="middle" x="407" y="-1278.25" font-family="Helvetica,sans-Serif" font-size="14.00">Protection Circuit</text>
</g>
<g id="clust8" class="cluster">
<title>cluster_batt_charger</title>
<path fill="#a9c7e6" stroke="#5b65c9" stroke-width="2" d="M224,-1189.52C224,-1189.52 446,-1189.52 446,-1189.52 452,-1189.52 458,-1195.52 458,-1201.52 458,-1201.52 458,-1252.55 458,-1252.55 458,-1258.55 452,-1264.55 446,-1264.55 446,-1264.55 224,-1264.55 224,-1264.55 218,-1264.55 212,-1258.55 212,-1252.55 212,-1252.55 212,-1201.52 212,-1201.52 212,-1195.52 218,-1189.52 224,-1189.52"/>
<text xml:space="preserve" text-anchor="middle" x="335" y="-1247.25" font-family="Helvetica,sans-Serif" font-size="14.00">Battery Charger</text>
</g>
<g id="clust9" class="cluster">
<title>cluster_power_protection</title>
<path fill="#a9c7e6" stroke="#5b65c9" stroke-width="2" d="M224,-1079.11C224,-1079.11 590,-1079.11 590,-1079.11 596,-1079.11 602,-1085.11 602,-1091.11 602,-1091.11 602,-1142.14 602,-1142.14 602,-1148.14 596,-1154.14 590,-1154.14 590,-1154.14 224,-1154.14 224,-1154.14 218,-1154.14 212,-1148.14 212,-1142.14 212,-1142.14 212,-1091.11 212,-1091.11 212,-1085.11 218,-1079.11 224,-1079.11"/>
<text xml:space="preserve" text-anchor="middle" x="407" y="-1136.85" font-family="Helvetica,sans-Serif" font-size="14.00">Power Protection</text>
</g>
<g id="clust10" class="cluster">
<title>cluster_regulator_block</title>
<polygon fill="#fff8bf" stroke="#d1b24a" stroke-width="2" points="618,-1172.14 618,-1304.92 782,-1304.92 782,-1172.14 618,-1172.14"/>
<text xml:space="preserve" text-anchor="middle" x="700" y="-1287.62" font-family="Helvetica,sans-Serif" font-size="14.00">Regulator</text>
</g>
<g id="clust11" class="cluster">
<title>cluster_regulator</title>
<path fill="#a9c7e6" stroke="#5b65c9" stroke-width="2" d="M638,-1180.14C638,-1180.14 762,-1180.14 762,-1180.14 768,-1180.14 774,-1186.14 774,-1192.14 774,-1192.14 774,-1261.92 774,-1261.92 774,-1267.92 768,-1273.92 762,-1273.92 762,-1273.92 638,-1273.92 638,-1273.92 632,-1273.92 626,-1267.92 626,-1261.92 626,-1261.92 626,-1192.14 626,-1192.14 626,-1186.14 632,-1180.14 638,-1180.14"/>
<text xml:space="preserve" text-anchor="middle" x="700" y="-1256.62" font-family="Helvetica,sans-Serif" font-size="14.00">Regulator</text>
</g>
<g id="clust12" class="cluster">
<title>cluster_ina219</title>
<polygon fill="#fff8bf" stroke="#d1b24a" stroke-width="2" points="204,-838.68 204,-1063.12 650,-1063.12 650,-838.68 204,-838.68"/>
<text xml:space="preserve" text-anchor="middle" x="427" y="-1045.82" font-family="Helvetica,sans-Serif" font-size="14.00">INA219</text>
</g>
<g id="clust13" class="cluster">
<title>cluster_batt_monitoring</title>
<path fill="#a9c7e6" stroke="#5b65c9" stroke-width="2" d="M224,-846.68C224,-846.68 630,-846.68 630,-846.68 636,-846.68 642,-852.68 642,-858.68 642,-858.68 642,-1020.12 642,-1020.12 642,-1026.12 636,-1032.12 630,-1032.12 630,-1032.12 224,-1032.12 224,-1032.12 218,-1032.12 212,-1026.12 212,-1020.12 212,-1020.12 212,-858.68 212,-858.68 212,-852.68 218,-846.68 224,-846.68"/>
<text xml:space="preserve" text-anchor="middle" x="427" y="-1014.82" font-family="Helvetica,sans-Serif" font-size="14.00">Battery monitoring</text>
</g>
<g id="clust14" class="cluster">
<title>cluster_xiao</title>
<polygon fill="#fff8bf" stroke="#d1b24a" stroke-width="2" points="617,-16 617,-822.68 1167,-822.68 1167,-16 617,-16"/>
<text xml:space="preserve" text-anchor="middle" x="892" y="-805.38" font-family="Helvetica,sans-Serif" font-size="14.00">XIAO ESP32&#45;S3</text>
</g>
<g id="clust15" class="cluster">
<title>cluster_setup</title>
<path fill="#a9c7e6" stroke="#5b65c9" stroke-width="2" d="M637,-402.09C637,-402.09 829,-402.09 829,-402.09 835,-402.09 841,-408.09 841,-414.09 841,-414.09 841,-779.68 841,-779.68 841,-785.68 835,-791.68 829,-791.68 829,-791.68 637,-791.68 637,-791.68 631,-791.68 625,-785.68 625,-779.68 625,-779.68 625,-414.09 625,-414.09 625,-408.09 631,-402.09 637,-402.09"/>
<text xml:space="preserve" text-anchor="middle" x="733" y="-774.38" font-family="Helvetica,sans-Serif" font-size="14.00">Setup</text>
</g>
<g id="clust16" class="cluster">
<title>cluster_loop</title>
<path fill="#a9c7e6" stroke="#5b65c9" stroke-width="2" d="M867,-24C867,-24 1147,-24 1147,-24 1153,-24 1159,-30 1159,-36 1159,-36 1159,-760.93 1159,-760.93 1159,-766.93 1153,-772.93 1147,-772.93 1147,-772.93 867,-772.93 867,-772.93 861,-772.93 855,-766.93 855,-760.93 855,-760.93 855,-36 855,-36 855,-30 861,-24 867,-24"/>
<text xml:space="preserve" text-anchor="middle" x="1007" y="-755.63" font-family="Helvetica,sans-Serif" font-size="14.00">Loop</text>
</g>
<!-- charger_usb -->
<g id="node1" class="node">
<title>charger_usb</title>
<ellipse fill="#d1b24a" stroke="#d1b24a" cx="169" cy="-1499.83" rx="2.88" ry="2.88"/>
</g>
<!-- charger_power -->
<g id="node2" class="node">
<title>charger_power</title>
<polygon fill="#bdfb9b" stroke="#166534" points="171.58,-1395.95 32.42,-1395.95 32.42,-1359.92 171.58,-1359.92 171.58,-1395.95"/>
<text xml:space="preserve" text-anchor="middle" x="102" y="-1370.21" font-family="Helvetica,sans-Serif" font-size="18.00">Provide power</text>
</g>
<!-- charger_usb&#45;&gt;charger_power -->
<!-- battchg_usb_in -->
<g id="node8" class="node">
<title>battchg_usb_in</title>
<ellipse fill="#d1b24a" stroke="#d1b24a" cx="411" cy="-1215.53" rx="2.88" ry="2.88"/>
</g>
<!-- charger_usb&#45;&gt;battchg_usb_in -->
<!-- charger_usb&#45;&gt;battchg_usb_in -->
<g id="edge68" class="edge">
<title>charger_usb:e&#45;&gt;battchg_usb_in:w</title>
<path fill="none" stroke="#e11d28" stroke-width="2.2" d="M180,-1499.28C207.44,-1497.07 308,-1488.95 308,-1488.95 308,-1488.95 393,-1335.92 393,-1335.92 393,-1335.92 397.38,-1297.87 401.21,-1264.55"/>
<text xml:space="preserve" text-anchor="middle" x="292.52" y="-1438.67" font-family="Helvetica,sans-Serif" font-size="15.00" fill="#e11d28">USB&#45;C Cable</text>
</g>
<!-- user_on -->
<g id="node3" class="node">
<title>user_on</title>
<polygon fill="#bdfb9b" stroke="#166534" points="172.21,-1233.55 15.79,-1233.55 15.79,-1197.52 172.21,-1197.52 172.21,-1233.55"/>
<text xml:space="preserve" text-anchor="middle" x="94" y="-1207.81" font-family="Helvetica,sans-Serif" font-size="18.00">Switch power on</text>
</g>
<!-- charger_power&#45;&gt;user_on -->
<!-- charger_reg -->
<g id="node10" class="node">
<title>charger_reg</title>
<polygon fill="#bdfb9b" stroke="#166534" points="378.33,-1233.55 219.67,-1233.55 219.67,-1197.52 378.33,-1197.52 378.33,-1233.55"/>
<text xml:space="preserve" text-anchor="middle" x="299" y="-1207.81" font-family="Helvetica,sans-Serif" font-size="18.00">Regulate voltage</text>
</g>
<!-- charger_power&#45;&gt;charger_reg -->
<!-- charger_power&#45;&gt;charger_reg -->
<g id="edge50" class="edge">
<title>charger_power&#45;&gt;charger_reg</title>
<path fill="none" stroke="#1f7a4d" stroke-width="2.2" d="M150.81,-1359.43C176.4,-1348.28 202,-1335.92 202,-1335.92 202,-1335.92 256.48,-1277.85 284.36,-1242.71"/>
<polygon fill="#1f7a4d" stroke="#1f7a4d" stroke-width="2.2" points="286.45,-1244.58 289.11,-1236.53 282.01,-1241.17 286.45,-1244.58"/>
</g>
<!-- user_off -->
<g id="node4" class="node">
<title>user_off</title>
<polygon fill="#bdfb9b" stroke="#166534" points="171.83,-1123.14 16.17,-1123.14 16.17,-1087.11 171.83,-1087.11 171.83,-1123.14"/>
<text xml:space="preserve" text-anchor="middle" x="94" y="-1097.4" font-family="Helvetica,sans-Serif" font-size="18.00">Switch power off</text>
</g>
<!-- user_on&#45;&gt;user_off -->
<!-- restore_power -->
<g id="node13" class="node">
<title>restore_power</title>
<polygon fill="#bdfb9b" stroke="#166534" points="433.71,-1123.14 292.29,-1123.14 292.29,-1087.11 433.71,-1087.11 433.71,-1123.14"/>
<text xml:space="preserve" text-anchor="middle" x="363" y="-1097.4" font-family="Helvetica,sans-Serif" font-size="18.00">Restore power</text>
</g>
<!-- user_on&#45;&gt;restore_power -->
<!-- user_on&#45;&gt;restore_power -->
<g id="edge51" class="edge">
<title>user_on&#45;&gt;restore_power</title>
<path fill="none" stroke="#1f7a4d" stroke-width="2.2" d="M152.17,-1197.05C185.37,-1185.37 220,-1172.14 220,-1172.14 220,-1172.14 292,-1154.14 292,-1154.14 292,-1154.14 314.39,-1141.64 334.33,-1129.4"/>
<polygon fill="#1f7a4d" stroke="#1f7a4d" stroke-width="2.2" points="335.69,-1131.85 340.99,-1125.23 332.72,-1127.1 335.69,-1131.85"/>
</g>
<!-- cut_off_power -->
<g id="node14" class="node">
<title>cut_off_power</title>
<polygon fill="#bdfb9b" stroke="#166534" points="594.46,-1123.14 463.54,-1123.14 463.54,-1087.11 594.46,-1087.11 594.46,-1123.14"/>
<text xml:space="preserve" text-anchor="middle" x="529" y="-1097.4" font-family="Helvetica,sans-Serif" font-size="18.00">Cut off power</text>
</g>
<!-- user_off&#45;&gt;cut_off_power -->
<g id="edge52" class="edge">
<title>user_off&#45;&gt;cut_off_power</title>
<path fill="none" stroke="#1f7a4d" stroke-width="2.2" d="M133.87,-1123.49C170.78,-1140.48 220,-1163.14 220,-1163.14 220,-1163.14 434,-1163.14 434,-1163.14 434,-1163.14 449,-1154.14 449,-1154.14 449,-1154.14 469.47,-1141.6 489.7,-1129.21"/>
<polygon fill="#1f7a4d" stroke="#1f7a4d" stroke-width="2.2" points="491.01,-1131.69 496.37,-1125.12 488.09,-1126.91 491.01,-1131.69"/>
</g>
<!-- battery_jst -->
<g id="node5" class="node">
<title>battery_jst</title>
<ellipse fill="#d1b24a" stroke="#d1b24a" cx="457" cy="-1377.94" rx="2.88" ry="2.88"/>
</g>
<!-- batt_store -->
<g id="node6" class="node">
<title>batt_store</title>
<polygon fill="#bdfb9b" stroke="#166534" points="617.96,-1395.95 490.04,-1395.95 490.04,-1359.92 617.96,-1359.92 617.96,-1395.95"/>
<text xml:space="preserve" text-anchor="middle" x="554" y="-1370.21" font-family="Helvetica,sans-Serif" font-size="18.00">Store energy</text>
</g>
<!-- battery_jst&#45;&gt;batt_store -->
<!-- battchg_batt_in -->
<g id="node9" class="node">
<title>battchg_batt_in</title>
<ellipse fill="#d1b24a" stroke="#d1b24a" cx="447" cy="-1215.53" rx="2.88" ry="2.88"/>
</g>
<!-- battery_jst&#45;&gt;battchg_batt_in -->
<!-- battery_jst&#45;&gt;battchg_batt_in -->
<g id="edge69" class="edge">
<title>battery_jst:s&#45;&gt;battchg_batt_in:nw</title>
<path fill="none" stroke="#e11d28" stroke-width="2.2" d="M455.28,-1351.93C453.5,-1329.33 450.66,-1293.4 448.39,-1264.55"/>
<text xml:space="preserve" text-anchor="middle" x="391.08" y="-1309.74" font-family="Helvetica,sans-Serif" font-size="15.00" fill="#e11d28">Battery Cable JST</text>
</g>
<!-- batt_provide -->
<g id="node7" class="node">
<title>batt_provide</title>
<polygon fill="#bdfb9b" stroke="#166534" points="787.59,-1395.95 648.41,-1395.95 648.41,-1359.92 787.59,-1359.92 787.59,-1395.95"/>
<text xml:space="preserve" text-anchor="middle" x="718" y="-1370.21" font-family="Helvetica,sans-Serif" font-size="18.00">Provide power</text>
</g>
<!-- batt_store&#45;&gt;batt_provide -->
<!-- batt_store&#45;&gt;charger_reg -->
<!-- regulate_voltage -->
<g id="node16" class="node">
<title>regulate_voltage</title>
<polygon fill="#bdfb9b" stroke="#166534" points="766.21,-1242.92 669.79,-1242.92 669.79,-1188.14 766.21,-1188.14 766.21,-1242.92"/>
<text xml:space="preserve" text-anchor="middle" x="718" y="-1217.18" font-family="Helvetica,sans-Serif" font-size="18.00">Regulate</text>
<text xml:space="preserve" text-anchor="middle" x="718" y="-1198.43" font-family="Helvetica,sans-Serif" font-size="18.00">voltage</text>
</g>
<!-- batt_provide&#45;&gt;regulate_voltage -->
<!-- batt_provide&#45;&gt;regulate_voltage -->
<!-- batt_provide&#45;&gt;regulate_voltage -->
<g id="edge54" class="edge">
<title>batt_provide&#45;&gt;regulate_voltage</title>
<path fill="none" stroke="#1f7a4d" stroke-width="2.2" d="M732.67,-1359.47C741.19,-1334.3 742.76,-1287.22 737.38,-1253.98"/>
<polygon fill="#1f7a4d" stroke="#1f7a4d" stroke-width="2.2" points="740.21,-1253.88 735.92,-1246.56 734.71,-1254.95 740.21,-1253.88"/>
</g>
<!-- battchg_usb_in&#45;&gt;charger_reg -->
<!-- battchg_batt_in&#45;&gt;charger_reg -->
<!-- charger_reg&#45;&gt;batt_store -->
<g id="edge53" class="edge">
<title>charger_reg&#45;&gt;batt_store</title>
<path fill="none" stroke="#1f7a4d" stroke-width="2.2" d="M304.25,-1233.9C323.74,-1267.01 378,-1335.92 378,-1335.92 378,-1335.92 460,-1343.92 460,-1343.92 460,-1343.92 472.51,-1349.15 488.51,-1355.45"/>
<polygon fill="#1f7a4d" stroke="#1f7a4d" stroke-width="2.2" points="487.28,-1357.97 495.75,-1358.26 489.31,-1352.75 487.28,-1357.97"/>
</g>
<!-- charger_reg&#45;&gt;restore_power -->
<!-- protection_pc_out -->
<g id="node11" class="node">
<title>protection_pc_out</title>
<ellipse fill="#d1b24a" stroke="#d1b24a" cx="223" cy="-1105.13" rx="2.88" ry="2.88"/>
</g>
<!-- protection_pc_out&#45;&gt;restore_power -->
<!-- connector_terminal -->
<g id="node17" class="node">
<title>connector_terminal</title>
<polygon fill="#fff8bf" stroke="#d1b24a" stroke-width="2" points="776.84,-1010.49 669.16,-1010.49 669.16,-955.71 776.84,-955.71 776.84,-1010.49"/>
<text xml:space="preserve" text-anchor="middle" x="723" y="-984.75" font-family="Helvetica,sans-Serif" font-size="18.00">Connector</text>
<text xml:space="preserve" text-anchor="middle" x="723" y="-966" font-family="Helvetica,sans-Serif" font-size="18.00">Terminal</text>
</g>
<!-- protection_pc_out&#45;&gt;connector_terminal -->
<g id="edge70" class="edge">
<title>protection_pc_out:e&#45;&gt;connector_terminal:w</title>
<path fill="none" stroke="#e11d28" stroke-width="2.2" d="M227.15,-1105.13C227.15,-1105.13 241,-1071.11 241,-1071.11 241,-1071.11 649,-1063.12 649,-1063.12 649,-1063.12 668.16,-983.1 668.16,-983.1"/>
<text xml:space="preserve" text-anchor="middle" x="419.77" y="-1068.17" font-family="Helvetica,sans-Serif" font-size="15.00" fill="#e11d28">PC Out / GND</text>
</g>
<!-- protection_ina_out -->
<g id="node12" class="node">
<title>protection_ina_out</title>
<ellipse fill="#d1b24a" stroke="#d1b24a" cx="259" cy="-1105.13" rx="2.88" ry="2.88"/>
</g>
<!-- protection_ina_out&#45;&gt;restore_power -->
<!-- ina_signal_in -->
<g id="node19" class="node">
<title>ina_signal_in</title>
<ellipse fill="#d1b24a" stroke="#d1b24a" cx="445" cy="-983.1" rx="2.88" ry="2.88"/>
</g>
<!-- protection_ina_out&#45;&gt;ina_signal_in -->
<g id="edge71" class="edge">
<title>protection_ina_out:s&#45;&gt;ina_signal_in:n</title>
<path fill="none" stroke="#e11d28" stroke-width="2.2" d="M272.18,-1079.12C274.92,-1074.56 277,-1071.11 277,-1071.11 277,-1071.11 428,-1063.12 428,-1063.12 428,-1063.12 431.27,-1048.51 434.95,-1032.11"/>
<text xml:space="preserve" text-anchor="middle" x="337.07" y="-1068.02" font-family="Helvetica,sans-Serif" font-size="15.00" fill="#e11d28">INA Out</text>
</g>
<!-- restore_power&#45;&gt;cut_off_power -->
<!-- ina_measure_v -->
<g id="node20" class="node">
<title>ina_measure_v</title>
<polygon fill="#bdfb9b" stroke="#166534" points="412.58,-1001.11 255.42,-1001.11 255.42,-965.08 412.58,-965.08 412.58,-1001.11"/>
<text xml:space="preserve" text-anchor="middle" x="334" y="-975.37" font-family="Helvetica,sans-Serif" font-size="18.00">Measure voltage</text>
</g>
<!-- restore_power&#45;&gt;ina_measure_v -->
<!-- regulator_out -->
<g id="node15" class="node">
<title>regulator_out</title>
<ellipse fill="#d1b24a" stroke="#d1b24a" cx="637" cy="-1215.53" rx="2.88" ry="2.88"/>
</g>
<!-- regulator_out&#45;&gt;regulate_voltage -->
<!-- regulator_out&#45;&gt;connector_terminal -->
<!-- regulator_out&#45;&gt;connector_terminal -->
<g id="edge72" class="edge">
<title>regulator_out:s&#45;&gt;connector_terminal:n</title>
<path fill="none" stroke="#e11d28" stroke-width="2.2" d="M637,-1211.39C637,-1211.39 675,-1071.11 675,-1071.11 675,-1071.11 723,-1011.49 723,-1011.49"/>
<text xml:space="preserve" text-anchor="middle" x="613.88" y="-1105.81" font-family="Helvetica,sans-Serif" font-size="15.00" fill="#e11d28">5V / 3V3 / GND</text>
</g>
<!-- ina_measure_i -->
<g id="node21" class="node">
<title>ina_measure_i</title>
<polygon fill="#bdfb9b" stroke="#166534" points="633.84,-1001.11 478.17,-1001.11 478.17,-965.08 633.84,-965.08 633.84,-1001.11"/>
<text xml:space="preserve" text-anchor="middle" x="556" y="-975.37" font-family="Helvetica,sans-Serif" font-size="18.00">Measure current</text>
</g>
<!-- regulate_voltage&#45;&gt;ina_measure_i -->
<!-- xiao_collect -->
<g id="node33" class="node">
<title>xiao_collect</title>
<polygon fill="#bdfb9b" stroke="#166534" points="1151.46,-187.81 906.54,-187.81 906.54,-151.78 1151.46,-151.78 1151.46,-187.81"/>
<text xml:space="preserve" text-anchor="middle" x="1029" y="-162.07" font-family="Helvetica,sans-Serif" font-size="18.00">Collect PDS measurements</text>
</g>
<!-- regulate_voltage&#45;&gt;xiao_collect -->
<!-- ina_respond -->
<g id="node22" class="node">
<title>ina_respond</title>
<polygon fill="#bdfb9b" stroke="#166534" points="627.96,-890.71 398.04,-890.71 398.04,-854.68 627.96,-854.68 627.96,-890.71"/>
<text xml:space="preserve" text-anchor="middle" x="513" y="-864.97" font-family="Helvetica,sans-Serif" font-size="18.00">Respond to I2C Requests</text>
</g>
<!-- connector_terminal&#45;&gt;ina_respond -->
<!-- xiao_pwr_3v3 -->
<g id="node24" class="node">
<title>xiao_pwr_3v3</title>
<ellipse fill="#d1b24a" stroke="#d1b24a" cx="636" cy="-723.91" rx="2.88" ry="2.88"/>
</g>
<!-- connector_terminal&#45;&gt;xiao_pwr_3v3 -->
<!-- connector_terminal&#45;&gt;xiao_pwr_3v3 -->
<g id="edge73" class="edge">
<title>connector_terminal:s&#45;&gt;xiao_pwr_3v3:nw</title>
<path fill="none" stroke="#e11d28" stroke-width="2.2" d="M678,-830.68C678,-830.68 654,-822.68 654,-822.68"/>
<text xml:space="preserve" text-anchor="middle" x="629.62" y="-828.18" font-family="Helvetica,sans-Serif" font-size="15.00" fill="#e11d28">3V3 / GND</text>
</g>
<!-- xiao_pwr_5v -->
<g id="node25" class="node">
<title>xiao_pwr_5v</title>
<ellipse fill="#d1b24a" stroke="#d1b24a" cx="672" cy="-723.91" rx="2.88" ry="2.88"/>
</g>
<!-- connector_terminal&#45;&gt;xiao_pwr_5v -->
<!-- connector_terminal&#45;&gt;xiao_pwr_5v -->
<g id="edge74" class="edge">
<title>connector_terminal:s&#45;&gt;xiao_pwr_5v:ne</title>
<path fill="none" stroke="#e11d28" stroke-width="2.2" d="M712,-830.68C712,-830.68 690,-822.68 690,-822.68"/>
<text xml:space="preserve" text-anchor="middle" x="668.75" y="-828.18" font-family="Helvetica,sans-Serif" font-size="15.00" fill="#e11d28">5V / GND</text>
</g>
<!-- xiao_get_init -->
<g id="node26" class="node">
<title>xiao_get_init</title>
<polygon fill="#bdfb9b" stroke="#166534" points="833.34,-760.68 740.66,-760.68 740.66,-687.15 833.34,-687.15 833.34,-760.68"/>
<text xml:space="preserve" text-anchor="middle" x="787" y="-734.94" font-family="Helvetica,sans-Serif" font-size="18.00">Get</text>
<text xml:space="preserve" text-anchor="middle" x="787" y="-716.19" font-family="Helvetica,sans-Serif" font-size="18.00">INA219</text>
<text xml:space="preserve" text-anchor="middle" x="787" y="-697.44" font-family="Helvetica,sans-Serif" font-size="18.00">init state</text>
</g>
<!-- connector_terminal&#45;&gt;xiao_get_init -->
<!-- ina_power_in -->
<g id="node18" class="node">
<title>ina_power_in</title>
<ellipse fill="#d1b24a" stroke="#d1b24a" cx="223" cy="-983.1" rx="2.88" ry="2.88"/>
</g>
<!-- ina_power_in&#45;&gt;ina_measure_v -->
<!-- ina_signal_in&#45;&gt;ina_measure_i -->
<!-- ina_measure_v&#45;&gt;ina_measure_i -->
<!-- ina_measure_v&#45;&gt;ina_respond -->
<!-- ina_measure_v&#45;&gt;ina_respond -->
<g id="edge55" class="edge">
<title>ina_measure_v&#45;&gt;ina_respond</title>
<path fill="none" stroke="#1f7a4d" stroke-width="2.2" d="M371.28,-964.68C404.71,-946.43 452.57,-917.64 483.44,-897.34"/>
<polygon fill="#1f7a4d" stroke="#1f7a4d" stroke-width="2.2" points="484.96,-899.69 490.06,-892.92 481.85,-895.03 484.96,-899.69"/>
</g>
<!-- xiao_read_v -->
<g id="node29" class="node">
<title>xiao_read_v</title>
<polygon fill="#bdfb9b" stroke="#166534" points="993.09,-741.93 862.91,-741.93 862.91,-705.9 993.09,-705.9 993.09,-741.93"/>
<text xml:space="preserve" text-anchor="middle" x="928" y="-716.19" font-family="Helvetica,sans-Serif" font-size="18.00">Read voltage</text>
</g>
<!-- ina_measure_v&#45;&gt;xiao_read_v -->
<g id="edge66" class="edge">
<title>ina_measure_v&#45;&gt;xiao_read_v</title>
<path fill="none" stroke="#1f7a4d" stroke-width="2.2" d="M393.21,-964.59C482.94,-938.05 643,-890.71 643,-890.71 643,-890.71 848,-822.68 848,-822.68 848,-822.68 883.06,-779.84 906.76,-750.87"/>
<polygon fill="#1f7a4d" stroke="#1f7a4d" stroke-width="2.2" points="908.69,-752.93 911.59,-744.97 904.36,-749.39 908.69,-752.93"/>
</g>
<!-- ina_measure_i&#45;&gt;ina_respond -->
<!-- ina_measure_i&#45;&gt;ina_respond -->
<g id="edge56" class="edge">
<title>ina_measure_i&#45;&gt;ina_respond</title>
<path fill="none" stroke="#1f7a4d" stroke-width="2.2" d="M557.62,-964.68C553.88,-947.46 543.78,-920.84 533.67,-900.84"/>
<polygon fill="#1f7a4d" stroke="#1f7a4d" stroke-width="2.2" points="536.24,-899.72 529.99,-894 531.31,-902.37 536.24,-899.72"/>
</g>
<!-- xiao_read_i -->
<g id="node30" class="node">
<title>xiao_read_i</title>
<polygon fill="#bdfb9b" stroke="#166534" points="1151.34,-741.93 1022.66,-741.93 1022.66,-705.9 1151.34,-705.9 1151.34,-741.93"/>
<text xml:space="preserve" text-anchor="middle" x="1087" y="-716.19" font-family="Helvetica,sans-Serif" font-size="18.00">Read current</text>
</g>
<!-- ina_measure_i&#45;&gt;xiao_read_i -->
<g id="edge67" class="edge">
<title>ina_measure_i&#45;&gt;xiao_read_i</title>
<path fill="none" stroke="#1f7a4d" stroke-width="2.2" d="M610.24,-964.64C625.49,-959.74 638,-955.71 638,-955.71 638,-955.71 881,-890.71 881,-890.71 881,-890.71 1008,-822.68 1008,-822.68 1008,-822.68 1042.62,-779.84 1066.02,-750.87"/>
<polygon fill="#1f7a4d" stroke="#1f7a4d" stroke-width="2.2" points="1067.93,-752.97 1070.78,-744.98 1063.58,-749.45 1067.93,-752.97"/>
</g>
<!-- ina_respond&#45;&gt;xiao_read_v -->
<!-- xiao_i2c_port -->
<g id="node23" class="node">
<title>xiao_i2c_port</title>
<ellipse fill="#d1b24a" stroke="#d1b24a" cx="708" cy="-723.91" rx="2.88" ry="2.88"/>
</g>
<!-- xiao_i2c_port&#45;&gt;xiao_get_init -->
<!-- xiao_pwr_3v3&#45;&gt;xiao_get_init -->
<!-- xiao_pwr_5v&#45;&gt;xiao_read_i -->
<!-- xiao_get_init&#45;&gt;ina_respond -->
<g id="edge63" class="edge">
<title>xiao_get_init&#45;&gt;ina_respond</title>
<path fill="none" stroke="#1f7a4d" stroke-width="2.2" d="M764.46,-761.04C747.08,-788.89 726,-822.68 726,-822.68 726,-822.68 632,-830.68 632,-830.68 632,-830.68 603.57,-840.48 574.5,-850.5"/>
<polygon fill="#1f7a4d" stroke="#1f7a4d" stroke-width="2.2" points="573.61,-847.84 566.96,-853.1 575.44,-853.14 573.61,-847.84"/>
<text xml:space="preserve" text-anchor="middle" x="653.02" y="-811.93" font-family="Helvetica,sans-Serif" font-size="15.00" fill="#1f7a4d">[I2C Req]</text>
</g>
<!-- xiao_collect_init -->
<g id="node27" class="node">
<title>xiao_collect_init</title>
<polygon fill="#bdfb9b" stroke="#166534" points="829.84,-622.15 698.16,-622.15 698.16,-548.62 829.84,-548.62 829.84,-622.15"/>
<text xml:space="preserve" text-anchor="middle" x="764" y="-596.41" font-family="Helvetica,sans-Serif" font-size="18.00">Collect</text>
<text xml:space="preserve" text-anchor="middle" x="764" y="-577.66" font-family="Helvetica,sans-Serif" font-size="18.00">peripheral init</text>
<text xml:space="preserve" text-anchor="middle" x="764" y="-558.91" font-family="Helvetica,sans-Serif" font-size="18.00">states</text>
</g>
<!-- xiao_get_init&#45;&gt;xiao_collect_init -->
<!-- xiao_get_init&#45;&gt;xiao_collect_init -->
<g id="edge57" class="edge">
<title>xiao_get_init&#45;&gt;xiao_collect_init</title>
<path fill="none" stroke="#1f7a4d" stroke-width="2.2" d="M790.96,-686.69C789.5,-670.2 786.4,-650.49 782.57,-632.92"/>
<polygon fill="#1f7a4d" stroke="#1f7a4d" stroke-width="2.2" points="785.39,-632.71 780.85,-625.55 779.94,-633.98 785.39,-632.71"/>
<text xml:space="preserve" text-anchor="middle" x="761.27" y="-661.3" font-family="Helvetica,sans-Serif" font-size="15.00" fill="#1f7a4d">[Result]</text>
</g>
<!-- xiao_init_bus -->
<g id="node28" class="node">
<title>xiao_init_bus</title>
<polygon fill="#bdfb9b" stroke="#166534" points="833.21,-464.87 688.79,-464.87 688.79,-410.09 833.21,-410.09 833.21,-464.87"/>
<text xml:space="preserve" text-anchor="middle" x="761" y="-439.13" font-family="Helvetica,sans-Serif" font-size="18.00">Init Serial0 and</text>
<text xml:space="preserve" text-anchor="middle" x="761" y="-420.38" font-family="Helvetica,sans-Serif" font-size="18.00">I2C</text>
</g>
<!-- xiao_collect_init&#45;&gt;xiao_init_bus -->
<!-- xiao_read_v&#45;&gt;ina_respond -->
<g id="edge64" class="edge">
<title>xiao_read_v&#45;&gt;ina_respond</title>
<path fill="none" stroke="#1f7a4d" stroke-width="2.2" d="M904.54,-742.39C875.69,-770.51 833,-822.68 833,-822.68 833,-822.68 722.87,-838.79 631.72,-852.54"/>
<polygon fill="#1f7a4d" stroke="#1f7a4d" stroke-width="2.2" points="631.49,-849.75 624,-853.71 632.33,-855.28 631.49,-849.75"/>
<text xml:space="preserve" text-anchor="middle" x="753.67" y="-831.22" font-family="Helvetica,sans-Serif" font-size="15.00" fill="#1f7a4d">[I2C Req]</text>
</g>
<!-- xiao_process_v -->
<g id="node31" class="node">
<title>xiao_process_v</title>
<polygon fill="#bdfb9b" stroke="#166534" points="973.21,-464.87 882.79,-464.87 882.79,-410.09 973.21,-410.09 973.21,-464.87"/>
<text xml:space="preserve" text-anchor="middle" x="928" y="-439.13" font-family="Helvetica,sans-Serif" font-size="18.00">Process</text>
<text xml:space="preserve" text-anchor="middle" x="928" y="-420.38" font-family="Helvetica,sans-Serif" font-size="18.00">voltage</text>
</g>
<!-- xiao_read_v&#45;&gt;xiao_process_v -->
<!-- xiao_read_v&#45;&gt;xiao_process_v -->
<g id="edge58" class="edge">
<title>xiao_read_v&#45;&gt;xiao_process_v</title>
<path fill="none" stroke="#1f7a4d" stroke-width="2.2" d="M933.75,-705.55C940.26,-660.45 940.99,-538.79 935.95,-476.44"/>
<polygon fill="#1f7a4d" stroke="#1f7a4d" stroke-width="2.2" points="938.74,-476.19 935.21,-468.48 933.16,-476.71 938.74,-476.19"/>
</g>
<!-- xiao_read_i&#45;&gt;ina_respond -->
<g id="edge65" class="edge">
<title>xiao_read_i&#45;&gt;ina_respond</title>
<path fill="none" stroke="#1f7a4d" stroke-width="2.2" d="M1072.88,-742.39C1050.15,-770.51 1008,-822.68 1008,-822.68 1008,-822.68 785.95,-844.67 639.29,-859.19"/>
<polygon fill="#1f7a4d" stroke="#1f7a4d" stroke-width="2.2" points="639.43,-856.36 631.74,-859.94 639.98,-861.93 639.43,-856.36"/>
<text xml:space="preserve" text-anchor="middle" x="843.13" y="-837.35" font-family="Helvetica,sans-Serif" font-size="15.00" fill="#1f7a4d">[I2C Req]</text>
</g>
<!-- xiao_process_i -->
<g id="node32" class="node">
<title>xiao_process_i</title>
<polygon fill="#bdfb9b" stroke="#166534" points="1132.21,-464.87 1041.79,-464.87 1041.79,-410.09 1132.21,-410.09 1132.21,-464.87"/>
<text xml:space="preserve" text-anchor="middle" x="1087" y="-439.13" font-family="Helvetica,sans-Serif" font-size="18.00">Process</text>
<text xml:space="preserve" text-anchor="middle" x="1087" y="-420.38" font-family="Helvetica,sans-Serif" font-size="18.00">current</text>
</g>
<!-- xiao_read_i&#45;&gt;xiao_process_i -->
<!-- xiao_read_i&#45;&gt;xiao_process_i -->
<g id="edge59" class="edge">
<title>xiao_read_i&#45;&gt;xiao_process_i</title>
<path fill="none" stroke="#1f7a4d" stroke-width="2.2" d="M1092.75,-705.55C1099.26,-660.45 1099.99,-538.79 1094.95,-476.44"/>
<polygon fill="#1f7a4d" stroke="#1f7a4d" stroke-width="2.2" points="1097.74,-476.19 1094.21,-468.48 1092.16,-476.71 1097.74,-476.19"/>
</g>
<!-- note_vgt -->
<g id="node37" class="node">
<title>note_vgt</title>
<polygon fill="#fff5b0" stroke="#d1b24a" points="1525.46,-483.62 1226.54,-483.62 1226.54,-391.34 1525.46,-391.34 1525.46,-483.62"/>
<text xml:space="preserve" text-anchor="middle" x="1376" y="-457.88" font-family="Helvetica,sans-Serif" font-size="18.00">All pairs of (Read X, Process X) or</text>
<text xml:space="preserve" text-anchor="middle" x="1376" y="-439.13" font-family="Helvetica,sans-Serif" font-size="18.00">(Read X, Calculate Y) must be</text>
<text xml:space="preserve" text-anchor="middle" x="1376" y="-420.38" font-family="Helvetica,sans-Serif" font-size="18.00">implemented as a Variable Getter</text>
<text xml:space="preserve" text-anchor="middle" x="1376" y="-401.63" font-family="Helvetica,sans-Serif" font-size="18.00">Template</text>
</g>
<!-- xiao_read_i&#45;&gt;note_vgt -->
<!-- xiao_process_v&#45;&gt;xiao_collect -->
<!-- xiao_process_v&#45;&gt;xiao_collect -->
<g id="edge60" class="edge">
<title>xiao_process_v&#45;&gt;xiao_collect</title>
<path fill="none" stroke="#1f7a4d" stroke-width="2.2" d="M945.13,-410.03C969.8,-359.64 1011.42,-250.28 1025.61,-198.74"/>
<polygon fill="#1f7a4d" stroke="#1f7a4d" stroke-width="2.2" points="1028.24,-199.76 1027.51,-191.32 1022.81,-198.37 1028.24,-199.76"/>
<text xml:space="preserve" text-anchor="middle" x="959.87" y="-305.89" font-family="Helvetica,sans-Serif" font-size="15.00" fill="#1f7a4d">[Result]</text>
</g>
<!-- xiao_process_i&#45;&gt;xiao_collect -->
<!-- xiao_process_i&#45;&gt;xiao_collect -->
<g id="edge61" class="edge">
<title>xiao_process_i&#45;&gt;xiao_collect</title>
<path fill="none" stroke="#1f7a4d" stroke-width="2.2" d="M1088.3,-410.03C1082.81,-359.64 1058.99,-250.28 1042.33,-198.74"/>
<polygon fill="#1f7a4d" stroke="#1f7a4d" stroke-width="2.2" points="1045.01,-197.9 1039.77,-191.24 1039.71,-199.72 1045.01,-197.9"/>
<text xml:space="preserve" text-anchor="middle" x="1039.82" y="-305.89" font-family="Helvetica,sans-Serif" font-size="15.00" fill="#1f7a4d">[Result]</text>
</g>
<!-- xiao_log -->
<g id="node34" class="node">
<title>xiao_log</title>
<polygon fill="#bdfb9b" stroke="#166534" points="1150.96,-68.03 885.04,-68.03 885.04,-32 1150.96,-32 1150.96,-68.03"/>
<text xml:space="preserve" text-anchor="middle" x="1018" y="-42.29" font-family="Helvetica,sans-Serif" font-size="18.00">Log measurements via Serial0</text>
</g>
<!-- xiao_collect&#45;&gt;xiao_log -->
<!-- xiao_collect&#45;&gt;xiao_log -->
<g id="edge62" class="edge">
<title>xiao_collect&#45;&gt;xiao_log</title>
<path fill="none" stroke="#1f7a4d" stroke-width="2.2" d="M1035.64,-151.42C1037.26,-132.45 1034.9,-101.81 1030.43,-79.35"/>
<polygon fill="#1f7a4d" stroke="#1f7a4d" stroke-width="2.2" points="1033.19,-78.87 1028.65,-71.71 1027.73,-80.13 1033.19,-78.87"/>
<text xml:space="preserve" text-anchor="middle" x="986.91" y="-116.89" font-family="Helvetica,sans-Serif" font-size="15.00" fill="#1f7a4d">[LoRa Frame]</text>
</g>
<!-- note_nb -->
<g id="node35" class="node">
<title>note_nb</title>
<polygon fill="#fff5b0" stroke="#d1b24a" points="1492.84,-760.68 1259.16,-760.68 1259.16,-687.15 1492.84,-687.15 1492.84,-760.68"/>
<text xml:space="preserve" text-anchor="middle" x="1376" y="-734.94" font-family="Helvetica,sans-Serif" font-size="18.00">No blocking</text>
<text xml:space="preserve" text-anchor="middle" x="1376" y="-716.19" font-family="Helvetica,sans-Serif" font-size="18.00">{c} operations besides I2C</text>
<text xml:space="preserve" text-anchor="middle" x="1376" y="-697.44" font-family="Helvetica,sans-Serif" font-size="18.00">or UART comms</text>
</g>
<!-- note_nb&#45;&gt;xiao_read_v -->
<g id="edge75" class="edge">
<title>note_nb&#45;&gt;xiao_read_v</title>
<path fill="none" stroke="#333333" stroke-width="2.2" stroke-dasharray="5,2" d="M1305.95,-761.11C1253.22,-789.11 1190,-822.68 1190,-822.68 1190,-822.68 1175,-826.68 1175,-826.68 1175,-826.68 1023,-826.68 1023,-826.68 1023,-826.68 1008,-822.68 1008,-822.68 1008,-822.68 973.32,-779.86 949.62,-750.61"/>
<polygon fill="#333333" stroke="#333333" stroke-width="2.2" points="951.98,-749.07 944.77,-744.62 947.63,-752.6 951.98,-749.07"/>
</g>
<!-- note_nb&#45;&gt;xiao_read_i -->
<g id="edge76" class="edge">
<title>note_nb&#45;&gt;xiao_read_i</title>
<path fill="none" stroke="#333333" stroke-width="2.2" stroke-dasharray="5,2" d="M1258.76,-723.91C1230.43,-723.91 1183.33,-723.91 1183.33,-723.91 1183.33,-723.91 1174.89,-723.91 1163,-723.91"/>
<polygon fill="#333333" stroke="#333333" stroke-width="2.2" points="1163.12,-721.12 1155.12,-723.92 1163.12,-726.72 1163.12,-721.12"/>
</g>
<!-- note_to -->
<g id="node36" class="node">
<title>note_to</title>
<polygon fill="#fff5b0" stroke="#d1b24a" points="1477.09,-622.15 1274.91,-622.15 1274.91,-548.62 1477.09,-548.62 1477.09,-622.15"/>
<text xml:space="preserve" text-anchor="middle" x="1376" y="-596.41" font-family="Helvetica,sans-Serif" font-size="18.00">All I2C Read functions</text>
<text xml:space="preserve" text-anchor="middle" x="1376" y="-577.66" font-family="Helvetica,sans-Serif" font-size="18.00">{c} must have a max.</text>
<text xml:space="preserve" text-anchor="middle" x="1376" y="-558.91" font-family="Helvetica,sans-Serif" font-size="18.00">timeout of 5 ms</text>
</g>
<!-- note_nb&#45;&gt;note_to -->
<!-- note_to&#45;&gt;xiao_read_v -->
<g id="edge77" class="edge">
<title>note_to&#45;&gt;xiao_read_v</title>
<path fill="none" stroke="#333333" stroke-width="2.2" stroke-dasharray="5,2" d="M1274.47,-614.19C1165.54,-644.01 1008,-687.15 1008,-687.15 1008,-687.15 993.58,-693.59 976.99,-701.01"/>
<polygon fill="#333333" stroke="#333333" stroke-width="2.2" points="976.26,-698.27 970.1,-704.09 978.55,-703.38 976.26,-698.27"/>
</g>
<!-- note_to&#45;&gt;xiao_read_i -->
<g id="edge78" class="edge">
<title>note_to&#45;&gt;xiao_read_i</title>
<path fill="none" stroke="#333333" stroke-width="2.2" stroke-dasharray="5,2" d="M1299.51,-622.52C1246.88,-647.38 1178.67,-679.61 1133.91,-700.75"/>
<polygon fill="#333333" stroke="#333333" stroke-width="2.2" points="1132.94,-698.11 1126.91,-704.06 1135.34,-703.18 1132.94,-698.11"/>
</g>
<!-- note_to&#45;&gt;note_vgt -->
<!-- note_vgt&#45;&gt;xiao_process_v -->
<g id="edge79" class="edge">
<title>note_vgt&#45;&gt;xiao_process_v</title>
<path fill="none" stroke="#333333" stroke-width="2.2" stroke-dasharray="5,2" d="M1257.04,-484.02C1213.64,-501 1175,-516.12 1175,-516.12 1175,-516.12 1042,-516.12 1042,-516.12 1042,-516.12 1008.05,-492.7 977.2,-471.42"/>
<polygon fill="#333333" stroke="#333333" stroke-width="2.2" points="979.11,-469.33 970.93,-467.1 975.93,-473.94 979.11,-469.33"/>
</g>
<!-- note_vgt&#45;&gt;xiao_process_i -->
<g id="edge80" class="edge">
<title>note_vgt&#45;&gt;xiao_process_i</title>
<path fill="none" stroke="#333333" stroke-width="2.2" stroke-dasharray="5,2" d="M1226.15,-437.48C1203.97,-437.48 1183.33,-437.48 1183.33,-437.48 1183.33,-437.48 1164.62,-437.48 1143.69,-437.48"/>
<polygon fill="#333333" stroke="#333333" stroke-width="2.2" points="1143.96,-434.68 1135.96,-437.48 1143.96,-440.28 1143.96,-434.68"/>
</g>
<!-- note_proc -->
<g id="node38" class="node">
<title>note_proc</title>
<polygon fill="#fff5b0" stroke="#d1b24a" points="1497.71,-326.34 1254.29,-326.34 1254.29,-252.81 1497.71,-252.81 1497.71,-326.34"/>
<text xml:space="preserve" text-anchor="middle" x="1376" y="-300.6" font-family="Helvetica,sans-Serif" font-size="18.00">All Process or Calculate</text>
<text xml:space="preserve" text-anchor="middle" x="1376" y="-281.85" font-family="Helvetica,sans-Serif" font-size="18.00">{c} functions must take less</text>
<text xml:space="preserve" text-anchor="middle" x="1376" y="-263.1" font-family="Helvetica,sans-Serif" font-size="18.00">than 5ms</text>
</g>
<!-- note_vgt&#45;&gt;note_proc -->
<!-- note_proc&#45;&gt;xiao_process_i -->
<g id="edge81" class="edge">
<title>note_proc&#45;&gt;xiao_process_i</title>
<path fill="none" stroke="#333333" stroke-width="2.2" stroke-dasharray="5,2" d="M1304.35,-326.75C1254.36,-351.99 1188.61,-385.18 1142.57,-408.43"/>
<polygon fill="#333333" stroke="#333333" stroke-width="2.2" points="1141.33,-405.92 1135.45,-412.02 1143.85,-410.92 1141.33,-405.92"/>
</g>
<!-- note_5hz -->
<g id="node39" class="node">
<title>note_5hz</title>
<polygon fill="#fff5b0" stroke="#d1b24a" points="1430.96,-187.81 1321.04,-187.81 1321.04,-151.78 1430.96,-151.78 1430.96,-187.81"/>
<text xml:space="preserve" text-anchor="middle" x="1376" y="-162.07" font-family="Helvetica,sans-Serif" font-size="18.00">{c} At 5 Hz</text>
</g>
<!-- note_proc&#45;&gt;note_5hz -->
<!-- note_5hz&#45;&gt;xiao_collect -->
<g id="edge82" class="edge">
<title>note_5hz&#45;&gt;xiao_collect</title>
<path fill="none" stroke="#333333" stroke-width="2.2" stroke-dasharray="5,2" d="M1320.88,-169.8C1291.09,-169.8 1260.33,-169.8 1260.33,-169.8 1260.33,-169.8 1195.56,-169.8 1162.96,-169.8"/>
<polygon fill="#333333" stroke="#333333" stroke-width="2.2" points="1163.23,-167 1155.23,-169.8 1163.23,-172.6 1163.23,-167"/>
</g>
<!-- note_zero -->
<g id="node40" class="node">
<title>note_zero</title>
<polygon fill="#fff5b0" stroke="#d1b24a" points="1448.21,-86.78 1303.79,-86.78 1303.79,-13.25 1448.21,-13.25 1448.21,-86.78"/>
<text xml:space="preserve" text-anchor="middle" x="1376" y="-61.04" font-family="Helvetica,sans-Serif" font-size="18.00">Set unused</text>
<text xml:space="preserve" text-anchor="middle" x="1376" y="-42.29" font-family="Helvetica,sans-Serif" font-size="18.00">{c} frame fields</text>
<text xml:space="preserve" text-anchor="middle" x="1376" y="-23.54" font-family="Helvetica,sans-Serif" font-size="18.00">to 0</text>
</g>
<!-- note_5hz&#45;&gt;note_zero -->
<!-- note_zero&#45;&gt;xiao_collect -->
<g id="edge83" class="edge">
<title>note_zero&#45;&gt;xiao_collect</title>
<path fill="none" stroke="#333333" stroke-width="2.2" stroke-dasharray="5,2" d="M1303.59,-75.59C1240.69,-96.94 1150.59,-127.53 1090.97,-147.76"/>
<polygon fill="#333333" stroke="#333333" stroke-width="2.2" points="1090.4,-145 1083.73,-150.22 1092.2,-150.3 1090.4,-145"/>
</g>
</g>
</svg>
