<?xml version="1.0" encoding="UTF-8" standalone="no"?>
<!DOCTYPE svg PUBLIC "-//W3C//DTD SVG 1.1//EN"
 "http://www.w3.org/Graphics/SVG/1.1/DTD/svg11.dtd">
<!-- Generated by graphviz version 14.1.4 (20260321.0153)
 -->
<!-- Title: PDS_v0_1 Pages: 1 -->
<svg width="986pt" height="469pt"
 viewBox="0.00 0.00 986.00 469.00" xmlns="http://www.w3.org/2000/svg" xmlns:xlink="http://www.w3.org/1999/xlink">
<g id="graph0" class="graph" transform="scale(1 1) rotate(0) translate(18 450.97)">
<title>PDS_v0_1</title>
<polygon fill="white" stroke="none" points="-18,18 -18,-450.97 968.46,-450.97 968.46,18 -18,18"/>
<g id="clust1" class="cluster">
<title>cluster_user</title>
<path fill="#bfeaf4" stroke="#5b65c9" stroke-width="2" d="M20,-131.78C20,-131.78 144,-131.78 144,-131.78 150,-131.78 156,-137.78 156,-143.78 156,-143.78 156,-329.34 156,-329.34 156,-335.34 150,-341.34 144,-341.34 144,-341.34 20,-341.34 20,-341.34 14,-341.34 8,-335.34 8,-329.34 8,-329.34 8,-143.78 8,-143.78 8,-137.78 14,-131.78 20,-131.78"/>
<text xml:space="preserve" text-anchor="middle" x="82" y="-324.04" font-family="Helvetica,sans-Serif" font-size="14.00">User</text>
</g>
<g id="clust2" class="cluster">
<title>cluster_pds</title>
<path fill="#d9d9d9" stroke="#888888" stroke-width="2" d="M176,-8C176,-8 736,-8 736,-8 742,-8 748,-14 748,-20 748,-20 748,-412.97 748,-412.97 748,-418.97 742,-424.97 736,-424.97 736,-424.97 176,-424.97 176,-424.97 170,-424.97 164,-418.97 164,-412.97 164,-412.97 164,-20 164,-20 164,-14 170,-8 176,-8"/>
<text xml:space="preserve" text-anchor="middle" x="456" y="-407.67" font-family="Helvetica,sans-Serif" font-size="14.00">PDS v0.1 Subsystem</text>
</g>
<g id="clust3" class="cluster">
<title>cluster_board</title>
<polygon fill="#fff8bf" stroke="#d1b24a" stroke-width="2" points="172,-16 172,-393.97 560,-393.97 560,-16 172,-16"/>
<text xml:space="preserve" text-anchor="middle" x="366" y="-376.67" font-family="Helvetica,sans-Serif" font-size="14.00">PDS Circuitboard</text>
</g>
<g id="clust4" class="cluster">
<title>cluster_protection</title>
<polygon fill="#fff8bf" stroke="#d1b24a" stroke-width="2" points="180,-133.16 180,-362.97 354,-362.97 354,-133.16 180,-133.16"/>
<text xml:space="preserve" text-anchor="middle" x="267" y="-345.67" font-family="Helvetica,sans-Serif" font-size="14.00">Protection Circuit</text>
</g>
<g id="clust5" class="cluster">
<title>cluster_power_protection</title>
<path fill="#a9c7e6" stroke="#5b65c9" stroke-width="2" d="M200,-141.16C200,-141.16 334,-141.16 334,-141.16 340,-141.16 346,-147.16 346,-153.16 346,-153.16 346,-319.97 346,-319.97 346,-325.97 340,-331.97 334,-331.97 334,-331.97 200,-331.97 200,-331.97 194,-331.97 188,-325.97 188,-319.97 188,-319.97 188,-153.16 188,-153.16 188,-147.16 194,-141.16 200,-141.16"/>
<text xml:space="preserve" text-anchor="middle" x="267" y="-314.67" font-family="Helvetica,sans-Serif" font-size="14.00">Power Protection</text>
</g>
<g id="clust6" class="cluster">
<title>cluster_regulator_block</title>
<polygon fill="#fff8bf" stroke="#d1b24a" stroke-width="2" points="362,-133.16 362,-247.19 552,-247.19 552,-133.16 362,-133.16"/>
<text xml:space="preserve" text-anchor="middle" x="457" y="-229.88" font-family="Helvetica,sans-Serif" font-size="14.00">Regulator</text>
</g>
<g id="clust7" class="cluster">
<title>cluster_regulator</title>
<path fill="#a9c7e6" stroke="#5b65c9" stroke-width="2" d="M382,-141.16C382,-141.16 532,-141.16 532,-141.16 538,-141.16 544,-147.16 544,-153.16 544,-153.16 544,-204.19 544,-204.19 544,-210.19 538,-216.19 532,-216.19 532,-216.19 382,-216.19 382,-216.19 376,-216.19 370,-210.19 370,-204.19 370,-204.19 370,-153.16 370,-153.16 370,-147.16 376,-141.16 382,-141.16"/>
<text xml:space="preserve" text-anchor="middle" x="457" y="-198.88" font-family="Helvetica,sans-Serif" font-size="14.00">Regulator</text>
</g>
<g id="clust8" class="cluster">
<title>cluster_battpack</title>
<polygon fill="#fff8bf" stroke="#d1b24a" stroke-width="2" points="568,-133.16 568,-362.97 740,-362.97 740,-133.16 568,-133.16"/>
<text xml:space="preserve" text-anchor="middle" x="654" y="-345.67" font-family="Helvetica,sans-Serif" font-size="14.00">1s1P Li&#45;Ion</text>
</g>
<g id="clust9" class="cluster">
<title>cluster_battery</title>
<path fill="#a9c7e6" stroke="#5b65c9" stroke-width="2" d="M588,-141.16C588,-141.16 720,-141.16 720,-141.16 726,-141.16 732,-147.16 732,-153.16 732,-153.16 732,-319.97 732,-319.97 732,-325.97 726,-331.97 720,-331.97 720,-331.97 588,-331.97 588,-331.97 582,-331.97 576,-325.97 576,-319.97 576,-319.97 576,-153.16 576,-153.16 576,-147.16 582,-141.16 588,-141.16"/>
<text xml:space="preserve" text-anchor="middle" x="654" y="-314.67" font-family="Helvetica,sans-Serif" font-size="14.00">Battery</text>
</g>
<!-- switch_on -->
<g id="node1" class="node">
<title>switch_on</title>
<polygon fill="#bdfb9b" stroke="#166534" points="147.83,-310.34 16.17,-310.34 16.17,-255.56 147.83,-255.56 147.83,-310.34"/>
<text xml:space="preserve" text-anchor="middle" x="82" y="-284.6" font-family="Helvetica,sans-Serif" font-size="18.00">Switch power</text>
<text xml:space="preserve" text-anchor="middle" x="82" y="-265.85" font-family="Helvetica,sans-Serif" font-size="18.00">on</text>
</g>
<!-- switch_off -->
<g id="node2" class="node">
<title>switch_off</title>
<polygon fill="#bdfb9b" stroke="#166534" points="147.83,-194.56 16.17,-194.56 16.17,-139.78 147.83,-139.78 147.83,-194.56"/>
<text xml:space="preserve" text-anchor="middle" x="82" y="-168.82" font-family="Helvetica,sans-Serif" font-size="18.00">Switch power</text>
<text xml:space="preserve" text-anchor="middle" x="82" y="-150.07" font-family="Helvetica,sans-Serif" font-size="18.00">off</text>
</g>
<!-- switch_on&#45;&gt;switch_off -->
<!-- restore_power -->
<g id="node3" class="node">
<title>restore_power</title>
<polygon fill="#bdfb9b" stroke="#166534" points="337.71,-300.97 196.29,-300.97 196.29,-264.94 337.71,-264.94 337.71,-300.97"/>
<text xml:space="preserve" text-anchor="middle" x="267" y="-275.23" font-family="Helvetica,sans-Serif" font-size="18.00">Restore power</text>
</g>
<!-- switch_on&#45;&gt;restore_power -->
<g id="edge10" class="edge">
<title>switch_on&#45;&gt;restore_power</title>
<path fill="none" stroke="#1f7a4d" stroke-width="2.5" d="M148.1,-282.95C155.56,-282.95 171.07,-282.95 184.06,-282.95"/>
<polygon fill="#1f7a4d" stroke="#1f7a4d" stroke-width="2.5" points="184.04,-285.75 192.04,-282.95 184.04,-280.15 184.04,-285.75"/>
</g>
<!-- cut_off_power -->
<g id="node4" class="node">
<title>cut_off_power</title>
<polygon fill="#bdfb9b" stroke="#166534" points="332.46,-185.19 201.54,-185.19 201.54,-149.16 332.46,-149.16 332.46,-185.19"/>
<text xml:space="preserve" text-anchor="middle" x="267" y="-159.45" font-family="Helvetica,sans-Serif" font-size="18.00">Cut off power</text>
</g>
<!-- switch_off&#45;&gt;cut_off_power -->
<g id="edge11" class="edge">
<title>switch_off&#45;&gt;cut_off_power</title>
<path fill="none" stroke="#1f7a4d" stroke-width="2.5" d="M148.1,-167.17C156.72,-167.17 176.09,-167.17 189.9,-167.17"/>
<polygon fill="#1f7a4d" stroke="#1f7a4d" stroke-width="2.5" points="189.48,-169.97 197.48,-167.17 189.48,-164.37 189.48,-169.97"/>
</g>
<!-- restore_power&#45;&gt;cut_off_power -->
<!-- regulate_voltage -->
<g id="node6" class="node">
<title>regulate_voltage</title>
<polygon fill="#bdfb9b" stroke="#166534" points="536.34,-185.19 377.67,-185.19 377.67,-149.16 536.34,-149.16 536.34,-185.19"/>
<text xml:space="preserve" text-anchor="middle" x="457" y="-159.45" font-family="Helvetica,sans-Serif" font-size="18.00">Regulate voltage</text>
</g>
<!-- restore_power&#45;&gt;regulate_voltage -->
<!-- restore_power&#45;&gt;regulate_voltage -->
<g id="edge14" class="edge">
<title>restore_power&#45;&gt;regulate_voltage</title>
<path fill="none" stroke="#e11d28" stroke-width="2.5" d="M354,-254.51C356.97,-253.38 359.7,-252.34 362.1,-251.42"/>
<polygon fill="#e11d28" stroke="#e11d28" stroke-width="2.5" points="363.03,-254.06 369.47,-248.55 361,-248.84 363.03,-254.06"/>
<text xml:space="preserve" text-anchor="middle" x="307.42" y="-237.76" font-family="Helvetica,sans-Serif" font-size="16.00" fill="#e11d28">PC Out / GND</text>
</g>
<!-- store_energy -->
<g id="node7" class="node">
<title>store_energy</title>
<polygon fill="#bdfb9b" stroke="#166534" points="711.96,-300.97 584.04,-300.97 584.04,-264.94 711.96,-264.94 711.96,-300.97"/>
<text xml:space="preserve" text-anchor="middle" x="648" y="-275.23" font-family="Helvetica,sans-Serif" font-size="18.00">Store energy</text>
</g>
<!-- restore_power&#45;&gt;store_energy -->
<!-- connector_terminal -->
<g id="node5" class="node">
<title>connector_terminal</title>
<polygon fill="#fff5b0" stroke="#d1b24a" points="510.83,-78.78 403.17,-78.78 403.17,-24 510.83,-24 510.83,-78.78"/>
<text xml:space="preserve" text-anchor="middle" x="457" y="-53.04" font-family="Helvetica,sans-Serif" font-size="18.00">Connector</text>
<text xml:space="preserve" text-anchor="middle" x="457" y="-34.29" font-family="Helvetica,sans-Serif" font-size="18.00">Terminal</text>
</g>
<!-- regulate_voltage&#45;&gt;connector_terminal -->
<!-- regulate_voltage&#45;&gt;connector_terminal -->
<g id="edge15" class="edge">
<title>regulate_voltage&#45;&gt;connector_terminal</title>
<path fill="none" stroke="#e11d28" stroke-width="2.5" d="M467.02,-148.89C470.36,-133.48 471.29,-110.36 469.83,-90.62"/>
<polygon fill="#e11d28" stroke="#e11d28" stroke-width="2.5" points="472.65,-90.6 469.04,-82.93 467.07,-91.17 472.65,-90.6"/>
<text xml:space="preserve" text-anchor="middle" x="413.3" y="-121.05" font-family="Helvetica,sans-Serif" font-size="16.00" fill="#e11d28">5V / 3V3 / GND</text>
</g>
<!-- screw_terminals -->
<g id="node9" class="node">
<title>screw_terminals</title>
<polygon fill="#fff5b0" stroke="#d1b24a" points="950.46,-194.56 759.54,-194.56 759.54,-139.78 950.46,-139.78 950.46,-194.56"/>
<text xml:space="preserve" text-anchor="middle" x="855" y="-168.82" font-family="Helvetica,sans-Serif" font-size="18.00">{c} Screw terminal or</text>
<text xml:space="preserve" text-anchor="middle" x="855" y="-150.07" font-family="Helvetica,sans-Serif" font-size="18.00">crimped cables</text>
</g>
<!-- regulate_voltage&#45;&gt;screw_terminals -->
<!-- store_energy&#45;&gt;restore_power -->
<g id="edge13" class="edge">
<title>store_energy&#45;&gt;restore_power</title>
<path fill="none" stroke="#e11d28" stroke-width="2.5" d="M568,-282.95C542.61,-282.95 521,-282.95 521,-282.95 521,-282.95 394,-282.95 394,-282.95 394,-282.95 382.05,-282.95 365.48,-282.95"/>
<polygon fill="#e11d28" stroke="#e11d28" stroke-width="2.5" points="365.78,-280.15 357.78,-282.95 365.78,-285.75 365.78,-280.15"/>
<text xml:space="preserve" text-anchor="middle" x="499.36" y="-267.75" font-family="Helvetica,sans-Serif" font-size="16.00" fill="#e11d28">Battery Cable JST</text>
</g>
<!-- store_energy&#45;&gt;regulate_voltage -->
<!-- provide_power -->
<g id="node8" class="node">
<title>provide_power</title>
<polygon fill="#bdfb9b" stroke="#166534" points="723.59,-185.19 584.41,-185.19 584.41,-149.16 723.59,-149.16 723.59,-185.19"/>
<text xml:space="preserve" text-anchor="middle" x="654" y="-159.45" font-family="Helvetica,sans-Serif" font-size="18.00">Provide power</text>
</g>
<!-- store_energy&#45;&gt;provide_power -->
<!-- provide_power&#45;&gt;regulate_voltage -->
<g id="edge12" class="edge">
<title>provide_power&#45;&gt;regulate_voltage</title>
<path fill="none" stroke="#1f7a4d" stroke-width="2.5" d="M584.15,-167.17C576.96,-167.17 561.73,-167.17 548.23,-167.17"/>
<polygon fill="#1f7a4d" stroke="#1f7a4d" stroke-width="2.5" points="548.38,-164.37 540.38,-167.17 548.38,-169.97 548.38,-164.37"/>
</g>
<!-- screw_terminals&#45;&gt;connector_terminal -->
<g id="edge4" class="edge">
<title>screw_terminals&#45;&gt;connector_terminal</title>
<path fill="none" stroke="#333333" stroke-width="2.5" stroke-dasharray="5,2" d="M766.02,-139.33C751.45,-134.93 741,-131.78 741,-131.78 741,-131.78 606.17,-94.09 522.31,-70.65"/>
<polygon fill="#333333" stroke="#333333" stroke-width="2.5" points="523.19,-67.99 514.73,-68.53 521.68,-73.38 523.19,-67.99"/>
</g>
</g>
</svg>
